<svg xmlns="http://www.w3.org/2000/svg" viewBox="0 0 558.4 833.87"><defs><style>.cls-1{fill:#231f20;}.cls-2{fill:#326b9e;}.cls-3{fill:#4aa3e5;}.cls-4{fill:#6d4033;}.cls-5{fill:#99594a;}.cls-6{fill:#dd3a36;}.cls-7{fill:#c63232;}.cls-8{fill:#ff5252;}.cls-9{fill:#ffc50d;}</style></defs><g id="图层_2" data-name="图层 2"><g id="Layer_2" data-name="Layer 2"><path class="cls-1" d="M526.77,699.65s6.15,36.23,11.92,36.83,17.34-52.34,9.38-54.33-21.1,6.56-21.1,6.56Z"/><path class="cls-1" d="M437.66,531.53a56.27,56.27,0,0,1-15-1.75,3.5,3.5,0,0,1,2-6.71c.35.1,24.31,6.73,52.05-9.86,40.77-24.38,36.73-63.28,36.69-63.67a3.5,3.5,0,0,1,6.95-.81c.21,1.78,4.56,43.81-40.05,70.49C463.64,529.2,448.31,531.53,437.66,531.53Z"/><path class="cls-1" d="M525.59,423.75c.11-1.38.15-2.91-.71-4s-3-1.08-3.33.27c-.4-2-1.06-4.19-2.81-5.24s-4.7.23-4.32,2.23A6.75,6.75,0,0,0,513,414.3a2.3,2.3,0,0,0-2.81-.51,3.18,3.18,0,0,0-1.05,1.53c-1.88,4.45-1.95,13.21-2.43,18-.52-1.8-7.09-6.07-8.14-4.51-2.42,3.59,3.75,10.16,4.71,11.83C507,447,514.16,462,509.18,477.85c9.21,0,10.76-16.36,12.06-22.74A249.2,249.2,0,0,0,525.59,423.75Z"/><path class="cls-1" d="M97.86,545.22a92.08,92.08,0,0,1-11.2-.7C35.06,538.23,22,498,21.47,496.33a3.5,3.5,0,1,1,6.69-2.08c.48,1.52,12.38,37.59,59.35,43.33,32.33,3.94,51.39-11.93,51.57-12.09a3.5,3.5,0,1,1,4.54,5.33C142.86,531.47,126.37,545.22,97.86,545.22Z"/><path class="cls-1" d="M471.06,709.72c-31.23,0-73-33.05-74.79-34.48a5,5,0,0,1,6.24-7.82c.42.33,42.14,33.33,69.84,32.28,28.71-1.14,60.1-13.41,60.42-13.53a5,5,0,0,1,3.67,9.3c-1.35.53-33.3,13-63.7,14.22C472.19,709.71,471.62,709.72,471.06,709.72Z"/><path class="cls-1" d="M266.33,823a5,5,0,0,1-4.46-2.72c-16.48-32.17-13.11-113.15-13-116.58a5,5,0,1,1,10,.44c0,.81-3.42,81.75,11.86,111.58a5,5,0,0,1-2.17,6.73A4.87,4.87,0,0,1,266.33,823Z"/><path class="cls-1" d="M255.72,809.68s-33.35,15.42-32.42,21.15,55.05,3,54.89-5.17S266.33,807,266.33,807Z"/><path class="cls-1" d="M1.06,468c-.65-1.22-1.32-2.59-1-3.93s2.3-2.2,3.16-1.11c-.45-2-.74-4.25.44-5.92s4.39-1.7,4.85.29a6.7,6.7,0,0,1,.17-3.06,2.3,2.3,0,0,1,2.36-1.61,3.3,3.3,0,0,1,1.58,1c3.51,3.3,7.13,11.28,9.52,15.47-.26-1.86,4-8.43,5.61-7.43,3.67,2.3.7,10.81.48,12.72-.81,7.36-1.25,23.93,9.73,36.4-8.43,3.73-16.47-10.59-20.25-15.9A250.57,250.57,0,0,1,1.06,468Z"/><path class="cls-2" d="M161.4,269.74c5.51-4.57,24.3-19.08,24.3-19.08a208.7,208.7,0,0,1,23.7,18.77c17.55,16.68,35,38,46.85,59,7.64,13.47,12.47,24.59,14.9,40,1.16,7.36,2,24.93-4.72,29.55l-5.14,8c-4.74,13.78-30.45,9-39.7,4.09-12.92-6.88-19.21-13.81-26.83-26.47-6.28-10.44-11.91-21-14.68-32.95-3.77-16.32-8.38-35.77-18.65-49.39-4.84-6.42-9.81-11.38-16.49-17.52C149.19,278.88,156.25,274,161.4,269.74Z"/><path class="cls-3" d="M156.63,255c-11.88,8.54-17.34,21.24-12.21,28.39s18.93,6,30.8-2.51,17.34-21.24,12.21-28.39S168.5,246.46,156.63,255Z"/><path class="cls-2" d="M158.15,257.92c-9.15,6.57-13.49,16.18-9.7,21.45s14.28,4.23,23.43-2.35,13.49-16.18,9.7-21.45S167.3,251.35,158.15,257.92Z"/><path class="cls-2" d="M499.6,364.79c1.29-7,4.76-30.53,4.76-30.53a209.18,209.18,0,0,0-28-11.49c-23.13-7.14-50.27-11.89-74.38-12-15.49-.07-27.55,1.15-42.2,6.58-7,2.6-22.71,10.49-23.47,18.58l-4.5,8.42c-9.7,10.87,7,31,15.85,36.62,12.33,7.9,21.44,10,36.21,10.46,12.18.37,24.14.12,35.92-3.32,16.08-4.68,35.3-10.19,52.21-7.89,8,1.09,14.72,3,23.34,5.81C497.6,379.91,498.39,371.37,499.6,364.79Z"/><path class="cls-4" d="M220.74,251.41l47.68,23c-2,7.11-2.91,19.73-3.13,29-.28,11.44,1.74,22.3,4.94,33.54,2.76,9.68,8.47,18.69,6.71,29.05-1.62,9.48-8.36,18.31-17.81,21.65-22.59,8-46.34-3.77-51.67-27.49-5-22.42-2.46-50.74,1.21-73.45C209.67,280.57,215.58,257,220.74,251.41Z"/><path class="cls-5" d="M219.52,253.51C216.17,261,224.33,272,237.75,278s27,4.76,30.36-2.75-4.81-18.45-18.22-24.44S222.88,246,219.52,253.51Z"/><path class="cls-4" d="M224.81,254.73c-2.12,4.76,4.58,12.38,15,17s20.53,4.54,22.65-.22-4.57-12.38-15-17S226.94,250,224.81,254.73Z"/><path class="cls-6" d="M428.09,598.67c4.33-35.33,11.94-69.53,18.1-104.09,7.56-42.42,14-91.92-8.14-131C418.5,329,379.9,315,342.92,316.69c-14.64.66-41.13,8.71-40.88,8.31-11.56-7.63-24.1-14.17-37.21-18.17-35.43-10.82-67-7.23-96.67,13.9-41.6,29.62-66.1,91.44-65,142.86,1.61,75.69,40.08,149.27,90,204.64,50.1,55.53,174.9,132.41,219.32,26C425.15,663.89,424.14,630.83,428.09,598.67Z"/><path class="cls-7" d="M428.09,598.67c4.33-35.33,11.94-69.53,18.1-104.09,7.56-42.42,14-91.92-8.14-131a89,89,0,0,0-5.18-8.07c18.7,38.58,11.57,69.23,6.11,99.84-6.15,34.56-24.17,65.27-28.51,100.59-4,32.17-2.93,65.23-15.6,95.59-44.42,106.39-159,54.34-220.59-13.4-23-25.26-42.06-67.15-57.68-98.6,15.67,47.75,43.62,92.2,76.56,128.72,50.1,55.53,174.9,132.41,219.32,26C425.15,663.89,424.14,630.83,428.09,598.67Z"/><path class="cls-7" d="M342.06,316.53c-12.48.6-34.22,7-40,8.47-21.38,16.39-39.08,45.58-33.71,72.27,7.24-23.47,30.72-47.33,51.78-59.25,12.55-7.11,26.5-12.95,40.84-15,8.3-1.19,22.29-.63,31.1,1.45A120.18,120.18,0,0,0,342.06,316.53Z"/><path class="cls-4" d="M449.36,288.92l-52.92-2.87c-.3,5-5.53,18.35-9.8,26.54-5.28,10.15-12.29,18.68-20.53,27-7.09,7.13-16.44,12.28-19.9,22.19-3.17,9.08-1.53,20.07,5.13,27.56,15.92,17.93,42.4,19.09,58.52.89C425.1,373,436.53,347,444.28,325.32,446.38,319.45,452.42,293.18,449.36,288.92Z"/><path class="cls-5" d="M449.45,290.53c-.69,8.2-13.12,13.83-27.76,12.6s-25.95-8.88-25.25-17.08,13.12-13.83,27.76-12.6S450.15,282.34,449.45,290.53Z"/><path class="cls-4" d="M444.23,289c-.44,5.2-10,8.63-21.32,7.68s-20.17-6-19.73-11.14,10-8.63,21.32-7.67S444.67,283.85,444.23,289Z"/><path class="cls-3" d="M514.8,361.74c-1.64,14.53-10,25.51-18.79,24.53s-14.51-13.56-12.88-28.09,10.05-25.51,18.79-24.53S516.43,347.21,514.8,361.74Z"/><path class="cls-2" d="M511.5,361.85c-1.26,11.19-7.51,19.67-14,18.95s-10.66-10.39-9.4-21.58,7.51-19.68,14-19S512.76,350.65,511.5,361.85Z"/><path class="cls-8" d="M246.13,331.13c-.66-10.94-19.42-11.61-27.15-11.13a41.38,41.38,0,0,0-9.28,1.69c-9.26,1.5-19,7.36-25.07,12.12-16.2,12.76-29.43,29.38-34.47,49.78-3.08,12.45-2.32,33.13,14.28,34.76,15.51,1.52,27-17.74,32.41-29.63,6.7-14.62,13.89-31.11,27.4-40.76C230.24,343.67,246.7,340.71,246.13,331.13Z"/><path class="cls-1" d="M177.25,430.74c-3.55-1.73-10.7-1.06-14.05.22-4.1,1.57-17.39,9.72-9.93,16.52,2.66,2.41,6.25-3.57,9.2-4.82,12-5.09,12.8-2.85,15.81-4.43C181.88,436.34,181.73,432.93,177.25,430.74Z"/><path class="cls-7" d="M145.36,479.92c2.34-5.72,5.81-11.27,11.27-14.17a32.13,32.13,0,0,1,9.82-3c11-1.84,23.13-1.22,32,5.57,10,7.74,13.32,21.57,13.11,34.26-3.16-1.61-4.85-5-7-7.9a26.44,26.44,0,0,0-12.3-9.15A46.23,46.23,0,0,0,181,483.4c-7-.68-14.56-.88-20.69,2.64a34,34,0,0,0-7.65,6.62c-1.54,1.66-5.52,9-8.16,8.85C144.54,501.51,142.22,487.61,145.36,479.92Z"/><path class="cls-1" d="M144.44,502.42s4.64-28.21,37.14-24.86,29.94,25.81,30.52,28.13-9.3-18.75-36.13-18.35C155.74,487.64,144.44,502.42,144.44,502.42Z"/><path class="cls-1" d="M366.33,426.13c3.16-2.38,10.31-3.07,13.84-2.45,4.32.76,18.93,6.24,12.89,14.33-2.15,2.88-6.82-2.32-9.94-3-12.79-2.71-13.12-.37-16.37-1.35C362.86,432.51,362.36,429.13,366.33,426.13Z"/><path class="cls-7" d="M397.85,479.12c-1.51-5.73-4.12-11.43-8.94-14.86a30.89,30.89,0,0,0-9-4.05c-10.19-3.11-21.81-4-31,1.32-10.51,6.1-15.33,18.83-16.71,30.91,3.2-1.14,5.24-4.19,7.59-6.64a25.32,25.32,0,0,1,12.82-7.16,44.26,44.26,0,0,1,10.91-.65c6.77.23,13.94,1,19.33,5.08a32.43,32.43,0,0,1,6.43,7.24c1.26,1.76,4.13,9.28,6.66,9.41C396,499.72,399.87,486.81,397.85,479.12Z"/><path class="cls-1" d="M395.93,500.6s-.9-27.37-32.19-28.23-31.63,20.8-32.47,22.93,11.15-16.65,36.59-12.94C387,485.16,395.93,500.6,395.93,500.6Z"/><path class="cls-1" d="M226.71,569.29s31.73,10.77,67,5.87c27.63-3.83,58.13-16.66,58.13-16.66s1.52,69-49.48,73.59C235.86,638.13,226.71,569.29,226.71,569.29Z"/><polygon class="cls-9" points="69.53 264.36 49.19 259.51 33.66 273.52 31.98 252.67 13.86 242.24 33.17 234.2 37.5 213.74 51.1 229.62 71.9 227.41 61 245.26 69.53 264.36"/><polygon class="cls-9" points="289.27 114.67 266.75 85.66 230.08 87.77 250.71 57.38 237.37 23.16 272.65 33.39 301.07 10.13 302.24 46.84 333.15 66.68 298.6 79.14 289.27 114.67"/><polygon class="cls-9" points="365.32 221.61 361.97 217.43 356.63 217.83 359.57 213.35 357.55 208.39 362.71 209.8 366.8 206.35 367.05 211.69 371.6 214.51 366.6 216.41 365.32 221.61"/><polygon class="cls-9" points="525.65 213.74 499.78 193.26 468.25 202.97 479.72 172.04 460.75 145.05 493.71 146.41 513.52 120.02 522.41 151.79 553.63 162.47 526.16 180.75 525.65 213.74"/><polygon class="cls-9" points="547.12 321.34 543.63 314.28 535.84 313.15 541.48 307.65 540.15 299.89 547.12 303.55 554.09 299.89 552.76 307.65 558.4 313.15 550.6 314.28 547.12 321.34"/><polygon class="cls-8" points="151.04 144.51 140.21 131.72 123.54 133.38 132.36 119.13 125.62 103.79 141.9 107.78 154.41 96.62 155.65 113.34 170.12 121.79 154.61 128.13 151.04 144.51"/><polygon class="cls-8" points="423.71 36.73 417.74 24.64 404.39 22.7 414.05 13.29 411.77 0 423.71 6.28 435.64 0 433.36 13.29 443.02 22.7 429.67 24.64 423.71 36.73"/><polygon class="cls-8" points="295.98 213.98 283.07 209.38 271.97 217.41 272.36 203.72 261.29 195.64 274.43 191.77 278.69 178.76 286.43 190.06 300.13 190.09 291.77 200.94 295.98 213.98"/></g></g></svg>