<svg xmlns="http://www.w3.org/2000/svg" viewBox="0 0 511.27 603.21"><defs><style>.cls-1{fill:#231f20;}.cls-2{fill:#326b9e;}.cls-3{fill:#4aa3e5;}.cls-4{fill:#6d4033;}.cls-5{fill:#99594a;}.cls-6{fill:#dd3a36;}.cls-7{fill:#c63232;}.cls-8{fill:#ff5252;}.cls-9{fill:#fff;}</style></defs><g id="图层_2" data-name="图层 2"><g id="Layer_2" data-name="Layer 2"><path class="cls-1" d="M354.42,590.82a5,5,0,0,1-4.31-7.51c16.84-29,17.7-110,17.7-110.81a5,5,0,0,1,5-5h.05a5,5,0,0,1,4.95,5c0,3.44-.9,84.48-19.06,115.75A5,5,0,0,1,354.42,590.82Z"/><path class="cls-1" d="M365.46,578.07s32.5,17.16,31.26,22.83-55.13.14-54.54-8,12.82-18,12.82-18Z"/><path class="cls-1" d="M242.79,586.2a5,5,0,0,1-4.45-2.7C221.71,551.39,224.71,470.4,224.85,467a5,5,0,1,1,10,.39c0,.82-3,81.78,12.38,111.53a5,5,0,0,1-2.14,6.74A4.85,4.85,0,0,1,242.79,586.2Z"/><path class="cls-1" d="M232.14,572.93s-33.28,15.57-32.33,21.3,55.07,2.78,54.87-5.43-11.94-18.59-11.94-18.59Z"/><path class="cls-1" d="M116.86,281.24c-10.3,0-26.81-2.68-46.51-15.62C41.09,246.41,22,213.42,21.2,212a3.5,3.5,0,1,1,6.08-3.48c.19.33,19.09,32.95,46.91,51.22,30,19.68,51.82,13.51,52,13.45a3.5,3.5,0,0,1,2,6.69A41.3,41.3,0,0,1,116.86,281.24Z"/><path class="cls-1" d="M2,202.38c-1-1-2-2.15-2-3.53s1.63-2.73,2.75-1.91c-1-1.8-1.85-3.9-1.16-5.82s3.77-2.81,4.75-1a6.89,6.89,0,0,1-.66-3,2.31,2.31,0,0,1,1.84-2.18,3.32,3.32,0,0,1,1.79.52A48.39,48.39,0,0,1,20.93,194a13.5,13.5,0,0,1-1.48-5.4,4.66,4.66,0,0,1,2.82-4.47c1.83-.59,3.87.52,5,2.1A13.2,13.2,0,0,1,29,191.64c1.18,7.3,2.08,14.71,4.46,21.72,2.48,7.26,7.26,14.8,13.4,21.68-7.12,5.86-16.51-7.1-21.58-11.21A251.29,251.29,0,0,1,2,202.38Z"/><path class="cls-2" d="M164.4,20.92C170.21,16.74,190,3.57,190,3.57a209.5,209.5,0,0,1,22.34,20.37C228.66,41.81,244.55,64.32,255,86.06c6.68,14,10.73,25.41,12.08,41,.64,7.43.22,25-6.77,29.16l-5.69,7.66c-5.68,13.42-31,6.88-39.88,1.32-12.41-7.77-18.21-15.11-24.93-28.27-5.54-10.85-10.42-21.77-12.35-33.89-2.63-16.54-5.87-36.27-15.18-50.57-4.38-6.74-9-12-15.22-18.62C151.59,29.19,159,24.82,164.4,20.92Z"/><path class="cls-3" d="M160.67,5.87c-12.44,7.69-18.78,20-14.15,27.47S165,40.66,177.42,33s18.77-20,14.15-27.47S173.11-1.81,160.67,5.87Z"/><path class="cls-2" d="M162,8.9c-9.58,5.92-14.58,15.2-11.17,20.73s13.95,5.2,23.54-.72,14.58-15.2,11.17-20.73S171.56,3,162,8.9Z"/><path class="cls-2" d="M495.18,139.25c1.78-6.94,6.87-30.13,6.87-30.13A209.14,209.14,0,0,0,475,95.72C452.36,87,425.62,80.36,401.58,78.57,386.13,77.42,374,77.81,359,82.21c-7.15,2.1-23.38,8.87-24.7,16.9l-5.07,8.08c-10.44,10.17,4.86,31.38,13.26,37.64,11.75,8.74,20.7,11.47,35.4,12.94C390,159,402,159.57,414,157c16.37-3.56,35.93-7.72,52.63-4.25,7.87,1.64,14.48,4,22.88,7.42C492.13,154.19,493.51,145.73,495.18,139.25Z"/><path class="cls-4" d="M224.88,6.76l46,26.31c-2.51,6.94-4.28,19.47-5.14,28.67-1.07,11.39.18,22.36,2.6,33.8,2.08,9.84,7.15,19.24,4.67,29.44-2.27,9.35-9.61,17.69-19.27,20.37-23.1,6.41-46-7-49.64-31-3.46-22.72,1.07-50.79,6.32-73.19C211.8,35.08,219.34,11.94,224.88,6.76Z"/><path class="cls-5" d="M223.51,8.77C219.65,16,227,27.51,240,34.42s26.62,6.62,30.48-.64S267,15,254,8.13,227.38,1.51,223.51,8.77Z"/><path class="cls-4" d="M228.71,10.35c-2.45,4.6,3.7,12.67,13.74,18s20.16,5.95,22.61,1.35-3.7-12.66-13.74-18S231.16,5.75,228.71,10.35Z"/><path class="cls-6" d="M407.58,367.58c6.78-34.94,16.75-68.53,25.3-102.57,10.48-41.79,20.35-90.73,1-131.28-17.1-35.79-54.63-52.44-91.64-53.36-14.65-.36-41.64,5.83-41.36,5.45C289.86,77.4,277.81,70,265,65.11c-34.59-13.26-66.34-11.88-97.41,7.14-43.56,26.66-72.3,86.63-74.79,138-3.66,75.62,29.6,151.7,75.58,210.4,46.12,58.88,165.27,144.25,217,41.2C400.12,432.45,401.41,399.4,407.58,367.58Z"/><path class="cls-7" d="M407.58,367.58c6.78-34.94,16.75-68.53,25.3-102.57,10.48-41.79,20.35-90.73,1-131.28a86,86,0,0,0-4.61-8.41c16,39.8,6.73,69.87-.84,100-8.54,34-28.65,63.42-35.43,98.36-6.17,31.81-7.46,64.87-22.21,94.27-51.71,103-162.4,43.16-219.12-28.69-21.16-26.81-37.3-69.92-50.69-102.38,12.31,48.72,37.1,95,67.43,133.73,46.12,58.88,165.27,144.25,217,41.2C400.12,432.45,401.41,399.4,407.58,367.58Z"/><path class="cls-7" d="M341.37,80.15c-12.48-.27-34.62,4.57-40.51,5.67-22.46,14.87-42.15,42.75-38.65,69.75,8.85-22.91,33.93-45.08,55.77-55.51,13-6.22,27.34-11.08,41.79-12.13a100.47,100.47,0,0,1,30.92,3.62A120.08,120.08,0,0,0,341.37,80.15Z"/><path class="cls-4" d="M450.33,60.07l-52.59-6.55c-.65,5-6.79,17.93-11.62,25.8-6,9.75-13.56,17.78-22.36,25.48-7.57,6.63-17.25,11.11-21.39,20.76-3.79,8.84-2.92,19.92,3.2,27.85,14.63,19,41,22,58.32,5,16.4-16.1,29.61-41.28,38.85-62.35C445.24,90.32,453.09,64.52,450.33,60.07Z"/><path class="cls-5" d="M450.31,61.68c-1.26,8.12-14.05,12.89-28.57,10.64s-25.26-10.67-24-18.8,14.05-12.88,28.57-10.63S451.57,53.55,450.31,61.68Z"/><path class="cls-4" d="M445.21,59.83c-.8,5.15-10.56,7.92-21.8,6.17S403.7,58.67,404.5,53.52s10.56-7.91,21.8-6.17S446,54.68,445.21,59.83Z"/><path class="cls-3" d="M510.55,137.26c-2.64,14.38-11.8,24.75-20.45,23.16s-13.53-14.53-10.89-28.91,11.8-24.76,20.45-23.17S513.19,122.88,510.55,137.26Z"/><path class="cls-2" d="M507.25,137.13c-2,11.08-8.86,19.11-15.25,17.94s-9.92-11.1-7.88-22.18S493,113.78,499.37,115,509.29,126.05,507.25,137.13Z"/><path class="cls-8" d="M244.66,88c.1-11-18.57-12.93-26.32-13a41.46,41.46,0,0,0-9.36,1c-9.35.85-19.51,6-25.86,10.34-17.05,11.61-31.39,27.27-37.84,47.27-3.94,12.21-4.62,32.88,11.82,35.67,15.38,2.6,28.13-15.82,34.4-27.31,7.69-14.11,16-30.06,30.16-38.76C227.94,99.45,244.56,97.64,244.66,88Z"/><path class="cls-7" d="M193.39,220.28a29.87,29.87,0,1,1-38.49-17.4A29.87,29.87,0,0,1,193.39,220.28Z"/><path class="cls-9" d="M191.51,225.85a26.14,26.14,0,1,1-33.69-15.23A26.15,26.15,0,0,1,191.51,225.85Z"/><path class="cls-1" d="M183.22,241.36a12.91,12.91,0,1,1-16.64-7.52A12.91,12.91,0,0,1,183.22,241.36Z"/><path class="cls-9" d="M160.92,242.36a4.07,4.07,0,1,1,2,5.38A4.06,4.06,0,0,1,160.92,242.36Z"/><path class="cls-7" d="M363.65,256.18a29.88,29.88,0,1,1-5.18-41.93A29.87,29.87,0,0,1,363.65,256.18Z"/><path class="cls-9" d="M357.91,257.46a26.14,26.14,0,1,1-4.53-36.69A26.13,26.13,0,0,1,357.91,257.46Z"/><path class="cls-1" d="M340.35,258.46a12.91,12.91,0,1,1-2.24-18.12A12.9,12.9,0,0,1,340.35,258.46Z"/><path class="cls-9" d="M321.69,242.79a4.06,4.06,0,1,1-2.3,5.26A4.07,4.07,0,0,1,321.69,242.79Z"/><path class="cls-1" d="M162.63,185.6c3.61,1.61,10.73.69,14-.71,4-1.7,17.05-10.31,9.35-16.85-2.73-2.32-6.12,3.79-9,5.13-11.86,5.51-12.7,3.3-15.65,5C157.81,180.16,158.08,183.57,162.63,185.6Z"/><path class="cls-1" d="M359.81,198.93c-3.95.2-10.26-3.24-12.83-5.74-3.15-3.05-12.16-15.78-2.62-19.09,3.38-1.17,4.33,5.75,6.55,8.05,9.06,9.42,10.65,7.67,12.79,10.3C366.27,195.6,364.78,198.68,359.81,198.93Z"/><path class="cls-1" d="M366.59,387.7a3.5,3.5,0,0,1-2.09-6.32c.3-.22,30.49-22.81,45.38-52.58,16-32.06,7.36-53.05,7.27-53.25a3.5,3.5,0,0,1,6.41-2.81c.42,1,10.2,24-7.42,59.19C400.49,363.23,370,386.05,368.67,387A3.53,3.53,0,0,1,366.59,387.7Z"/><path class="cls-1" d="M361.33,407.23c-.88,1.07-1.9,2.2-3.27,2.38s-2.9-1.3-2.22-2.5c-1.67,1.16-3.66,2.29-5.65,1.83s-3.23-3.42-1.57-4.6a6.66,6.66,0,0,1-2.9,1,2.31,2.31,0,0,1-2.38-1.57,3.29,3.29,0,0,1,.31-1.84,48.4,48.4,0,0,1,7.11-12.53,13.65,13.65,0,0,1-5.2,2.1,4.64,4.64,0,0,1-4.76-2.28c-.8-1.75.05-3.9,1.5-5.17a13.14,13.14,0,0,1,5.2-2.38c7.12-2,14.38-3.78,21.05-7,6.92-3.31,13.86-8.94,20-15.84,6.65,6.38-5.12,17.23-8.61,22.74A249.48,249.48,0,0,1,361.33,407.23Z"/><path class="cls-1" d="M283.92,372.57c3.5,15.26-.46,29.19-8.86,31.12s-18-8.89-21.53-24.15.47-29.19,8.86-31.11S280.43,357.31,283.92,372.57Z"/></g></g></svg>