<svg xmlns="http://www.w3.org/2000/svg" viewBox="0 0 395.71 583.56"><defs><style>.cls-1{fill:#231f20;}.cls-2{fill:#326b9e;}.cls-3{fill:#4aa3e5;}.cls-4{fill:#6d4033;}.cls-5{fill:#99594a;}.cls-6{fill:#dd3a36;}.cls-7{fill:#c63232;}.cls-8{fill:#ff5252;}.cls-9{fill:#fff;}</style></defs><g id="图层_2" data-name="图层 2"><g id="Layer_2" data-name="Layer 2"><path class="cls-1" d="M337.14,571.27a6.56,6.56,0,0,1-2.12-.36,6.47,6.47,0,0,1-4-8.23c17.15-49.3,18-185.66,18-187a6.46,6.46,0,0,1,6.46-6.43h0a6.46,6.46,0,0,1,6.43,6.49c0,5.69-.9,139.9-18.75,191.22A6.47,6.47,0,0,1,337.14,571.27Z"/><path class="cls-1" d="M141.55,558.43s32.49,17.15,31.26,22.82-55.13.14-54.54-8,12.81-18,12.81-18Z"/><path class="cls-1" d="M138.37,573.48a6.45,6.45,0,0,1-6.18-4.6c-15.92-53-11.84-187-11.66-192.72a6.46,6.46,0,0,1,12.92.41c0,1.37-4.2,137.59,11.11,188.59a6.46,6.46,0,0,1-4.33,8.05A6.64,6.64,0,0,1,138.37,573.48Z"/><path class="cls-1" d="M334.39,558.64s-33.49,15.12-32.61,20.85,55,3.54,54.94-4.67S345,556.07,345,556.07Z"/><path class="cls-1" d="M30.82,380.43a3.49,3.49,0,0,1-3.17-2c-.68-1.45-16.7-36-15.6-71,1.25-39.36,20.79-55,21.62-55.61A3.5,3.5,0,0,1,38,257.3c-.27.22-17.79,14.57-18.92,50.31C18,340.88,33.83,375.1,34,375.44a3.5,3.5,0,0,1-3.17,5Z"/><path class="cls-1" d="M24.49,399.69c.27,1.36.62,2.84,1.75,3.65s3.17.23,3.14-1.15c.91,1.82,2.13,3.76,4.1,4.29s4.46-1.46,3.57-3.3a6.74,6.74,0,0,0,2.07,2.27,2.31,2.31,0,0,0,2.84-.26,3.23,3.23,0,0,0,.6-1.76,48,48,0,0,0-.29-14.4,13.6,13.6,0,0,0,3.57,4.31,4.62,4.62,0,0,0,5.27.26c1.54-1.15,1.81-3.45,1.14-5.26a13.07,13.07,0,0,0-3.45-4.56c-5.29-5.17-10.84-10.16-15.2-16.14-4.52-6.2-7.94-14.45-10-23.43-8.88,2.45-3.68,17.6-3.24,24.1A251.23,251.23,0,0,0,24.49,399.69Z"/><path class="cls-2" d="M16.31,86.43C20,80.27,32.77,60.28,32.77,60.28A209,209,0,0,1,61.4,70c22.15,9.81,45.73,24.06,64,39.81,11.72,10.12,20,19,27.49,32.69,3.57,6.54,10.24,22.81,5.49,29.42l-2.13,9.29c.17,14.58-25.65,18.74-36,17.21-14.48-2.14-22.74-6.54-34.17-15.9-9.43-7.72-18.28-15.76-24.91-26.09-9-14.1-19.92-30.88-34.18-40.24-6.72-4.42-13.06-7.42-21.42-11C7.88,99.15,12.89,92.18,16.31,86.43Z"/><path class="cls-3" d="M6.85,74.15C-1.46,86.18-2.33,100,4.91,105s19.84-.69,28.15-12.72S42.25,66.42,35,61.42,15.17,62.12,6.85,74.15Z"/><path class="cls-2" d="M9.27,76.39C2.87,85.66,2,96.16,7.35,99.86S22.22,99,28.62,89.76,35.88,70,30.54,66.3,15.67,67.12,9.27,76.39Z"/><path class="cls-2" d="M366.77,62.18C365.62,55.12,361,31.83,361,31.83a210.24,210.24,0,0,0-30.2-1.41c-24.19,1-51.34,5.71-74.08,13.72-14.61,5.14-25.56,10.35-37.53,20.39-5.71,4.8-17.86,17.51-15.85,25.39l-1.41,9.44c-5.48,13.5,17,26.8,27.25,29.16,14.26,3.29,23.55,2.21,37.61-2.34,11.6-3.74,22.77-8,32.72-15.2,13.56-9.82,29.81-21.47,46.51-25,7.86-1.66,14.86-2.14,23.93-2.38C370,77.1,367.85,68.79,366.77,62.18Z"/><path class="cls-4" d="M66,49.21l52.65,5.67c.49,7.37,3.89,19.56,6.79,28.32,3.59,10.87,9.14,20.42,15.94,29.92,5.85,8.19,14.26,14.76,16.08,25.1,1.67,9.48-1.71,20.06-9.48,26.39-18.59,15.13-44.92,12-57.91-8.51-12.29-19.42-19.39-46.95-23.57-69.58C65.4,80.39,63,56.17,66,49.21Z"/><path class="cls-5" d="M65.58,51.6C65,59.8,76.32,67.36,91,68.48s27-4.6,27.66-12.8S107.9,39.92,93.25,38.79,66.21,43.4,65.58,51.6Z"/><path class="cls-4" d="M71,51c-.4,5.19,8.47,10.12,19.81,11s20.86-2.63,21.26-7.83-8.47-10.12-19.81-11S71.38,45.77,71,51Z"/><path class="cls-6" d="M378.09,306.49c-7.8-34.73-12.14-69.5-18-104.11C353,159.89,342.4,111.1,308.39,81.72c-30-25.93-71.08-26.13-105.35-12.13-13.56,5.54-35.8,22-35.71,21.58-13.45-3.31-27.45-5.24-41.14-4.6-37,1.72-65.53,15.72-86.37,45.6C10.61,174.07,8.33,240.52,26.65,288.58c27,70.74,87.95,127.1,153.61,162.43,65.85,35.45,209.24,65.88,215.28-49.26C397.27,368.9,385.19,338.11,378.09,306.49Z"/><path class="cls-7" d="M378.09,306.49c-7.8-34.73-12.14-69.5-18-104.11C353,159.89,342.4,111.1,308.39,81.72a87.85,87.85,0,0,0-7.59-5.85c30.59,30.05,34.18,61.3,39.34,92,5.82,34.61-.81,69.59,7,104.32,7.1,31.62,19.18,62.41,17.45,95.26-6,115.14-131.46,104.66-212.23,61.59-30.13-16.07-62.21-49.1-87.5-73.46,30.82,39.7,72.09,72.15,115.41,95.46,65.85,35.45,209.24,65.88,215.28-49.26C397.27,368.9,385.19,338.11,378.09,306.49Z"/><path class="cls-7" d="M202.17,69.73c-11.54,4.75-29.88,18.06-34.84,21.44-14.61,22.62-21.46,56.06-7.43,79.39-1.08-24.53,13-54.9,28.83-73.22,9.43-10.91,20.6-21.11,33.42-27.86,7.41-3.91,20.78-8.09,29.77-9.09A120.13,120.13,0,0,0,202.17,69.73Z"/><path class="cls-4" d="M293.94,7.64,243.13,22.73c1.42,4.84,1,19.14-.29,28.29-1.57,11.33-5.3,21.73-10.26,32.31-4.28,9.11-11.36,17.1-11.28,27.6.07,9.61,5.31,19.41,14.1,24.23,21,11.52,46.35,3.7,55.41-18.85C299.38,95,301.38,66.63,301.4,43.62,301.4,37.39,298.25,10.61,293.94,7.64Z"/><path class="cls-5" d="M294.57,9.12c2.1,8-7.71,17.44-21.91,21.2s-27.42.36-29.53-7.59S250.84,5.29,265,1.53,292.46,1.17,294.57,9.12Z"/><path class="cls-4" d="M289.15,9.48c1.33,5-6.5,11.48-17.5,14.39s-21,1.19-22.32-3.85,6.5-11.49,17.49-14.4S287.82,4.44,289.15,9.48Z"/><path class="cls-3" d="M380.06,54.2c3.34,14.23-.88,27.41-9.45,29.42S352.39,75.73,349,61.5s.88-27.41,9.44-29.42S376.71,40,380.06,54.2Z"/><path class="cls-2" d="M377,55.41c2.58,11-.46,21.06-6.78,22.54s-13.54-6.19-16.12-17.16.45-21,6.78-22.54S374.41,44.44,377,55.41Z"/><path class="cls-8" d="M116.74,115.74c-4.29-10.08-22.19-4.4-29.31-1.35a41.47,41.47,0,0,0-8.16,4.72c-8.22,4.52-15.46,13.33-19.54,19.84-11,17.47-17.83,37.57-15.72,58.47,1.29,12.77,9,32,25.14,27.94,15.13-3.79,19.43-25.77,20.56-38.81,1.39-16,2.62-34,12.09-47.6C106,132.9,120.51,124.57,116.74,115.74Z"/><circle class="cls-7" cx="80.5" cy="225.5" r="29.88"/><circle class="cls-9" cx="80.5" cy="230.04" r="26.14" transform="translate(-159.47 272.65) rotate(-80.78)"/><path class="cls-1" d="M93.41,241.63A12.92,12.92,0,1,1,80.5,228.72,12.91,12.91,0,0,1,93.41,241.63Z"/><path class="cls-9" d="M72.19,234.69a4.07,4.07,0,1,1,0,5.75A4.08,4.08,0,0,1,72.19,234.69Z"/><circle class="cls-7" cx="263.63" cy="216.02" r="29.88"/><path class="cls-9" d="M289.77,220.56a26.14,26.14,0,1,1-26.14-26.14A26.14,26.14,0,0,1,289.77,220.56Z"/><path class="cls-1" d="M276.54,232.15a12.91,12.91,0,1,1-12.91-12.92A12.91,12.91,0,0,1,276.54,232.15Z"/><path class="cls-9" d="M255.32,225.21a4.07,4.07,0,1,1,0,5.75A4.06,4.06,0,0,1,255.32,225.21Z"/><path class="cls-1" d="M74.57,172.26c3.57,1.7,10.71,1,14.05-.37,4.08-1.61,17.28-9.91,9.74-16.63-2.68-2.38-6.21,3.64-9.14,4.92-12,5.22-12.77,3-15.76,4.61C69.88,166.71,70.07,170.13,74.57,172.26Z"/><path class="cls-1" d="M277.14,171.78c-3.53,1.76-10.69,1.14-14.05-.11-4.11-1.53-17.47-9.58-10.06-16.44,2.63-2.44,6.28,3.52,9.23,4.74,12.08,5,12.83,2.76,15.85,4.31C281.73,166.14,281.6,169.56,277.14,171.78Z"/><path class="cls-1" d="M241,301.56c-18-9.07-47.67-10-47.67-10s-29.7.89-47.67,10c-19.82,10-31.85,37.11-26.07,37.34,8.54.34,5.32-24.22,33.75-35.67,13.64-5.5,40-6.25,40-6.25s26.35.75,40,6.25c28.42,11.45,25.21,36,33.75,35.67C272.87,338.67,260.84,311.56,241,301.56Z"/><path class="cls-1" d="M347.19,341.65a3.39,3.39,0,0,1-1.73-.47,3.5,3.5,0,0,1-1.3-4.78c.19-.32,18.79-33.12,20.49-66.36C366.5,234,350.13,218.5,350,218.35a3.5,3.5,0,0,1,4.73-5.16c.78.71,19,17.88,16.95,57.21-1.79,35-20.61,68.09-21.41,69.49A3.5,3.5,0,0,1,347.19,341.65Z"/><path class="cls-1" d="M351.62,361.35c-.38,1.33-.86,2.78-2,3.49s-3.18,0-3-1.4c-1.06,1.74-2.43,3.57-4.44,3.94s-4.33-1.83-3.28-3.58a6.77,6.77,0,0,1-2.25,2.08,2.32,2.32,0,0,1-2.82-.49,3.26,3.26,0,0,1-.45-1.8,48.38,48.38,0,0,1,1.48-14.33,13.56,13.56,0,0,1-3.91,4,4.65,4.65,0,0,1-5.28-.17c-1.44-1.28-1.51-3.6-.7-5.34a13.06,13.06,0,0,1,3.82-4.26c5.7-4.72,11.64-9.23,16.48-14.83,5-5.81,9.11-13.75,11.95-22.52,8.64,3.18,2.21,17.84,1.22,24.28A249.21,249.21,0,0,1,351.62,361.35Z"/></g></g></svg>