<svg xmlns="http://www.w3.org/2000/svg" xmlns:xlink="http://www.w3.org/1999/xlink" viewBox="0 0 800 800"><defs><style>.cls-1{mask:url(#mask);}.cls-2,.cls-3,.cls-31,.cls-33,.cls-5,.cls-6{mix-blend-mode:multiply;}.cls-2{fill:url(#radial-gradient);}.cls-3{fill:url(#radial-gradient-2);}.cls-4{mask:url(#mask-3);}.cls-5{fill:url(#radial-gradient-3);}.cls-6{fill:url(#radial-gradient-4);}.cls-7{isolation:isolate;}.cls-8{fill:#fff;}.cls-9{fill:#ed6969;}.cls-10{fill:#f78989;}.cls-11{fill:#f5fbfb;}.cls-12{fill:#fff47c;}.cls-13{fill:red;}.cls-14{fill:#e5bc21;}.cls-15{fill:#584332;}.cls-16{fill:#0c1607;}.cls-17{fill:#2d681c;}.cls-18{opacity:0.6;}.cls-19{fill:#3a8e25;}.cls-20{fill:#eeebae;}.cls-21{fill:#eae498;}.cls-22{fill:#633c19;}.cls-23{fill:#543117;}.cls-24{fill:#5b3618;}.cls-25{fill:#7a4b25;}.cls-26{fill:#f23366;}.cls-27{fill:#f4789e;}.cls-28{fill:#ccecf4;}.cls-29{fill:#f79fd5;}.cls-30{mask:url(#mask-5);}.cls-31,.cls-33{opacity:0.9;}.cls-31{fill:url(#radial-gradient-5);}.cls-32{mask:url(#mask-7);}.cls-33{fill:url(#radial-gradient-6);}.cls-34{fill:#26130d;}.cls-35{fill:#ecd615;}.cls-36{filter:url(#luminosity-noclip-3);}.cls-37{filter:url(#luminosity-noclip);}</style><filter id="luminosity-noclip" x="331.89" y="-8592" width="50.03" height="32766" filterUnits="userSpaceOnUse" color-interpolation-filters="sRGB"><feFlood flood-color="#fff" result="bg"/><feBlend in="SourceGraphic" in2="bg"/></filter><mask id="mask" x="331.89" y="-8592" width="50.03" height="32766" maskUnits="userSpaceOnUse"><g class="cls-37"/></mask><radialGradient id="radial-gradient" cx="-55419.39" cy="-77939.12" r="283.58" gradientTransform="matrix(0, -0.07, 0.09, 0.01, 7411.77, -2897.67)" gradientUnits="userSpaceOnUse"><stop offset="0" stop-color="#fff"/><stop offset="1"/></radialGradient><radialGradient id="radial-gradient-2" cx="-26530.05" cy="-30212.5" r="118.79" gradientTransform="matrix(0.03, -0.16, 0.21, 0.04, 7402.6, -2929.62)" gradientUnits="userSpaceOnUse"><stop offset="0" stop-color="#fff"/><stop offset="0.24" stop-color="#fdfdfd"/><stop offset="0.38" stop-color="#f4f4f4"/><stop offset="0.49" stop-color="#e6e6e6"/><stop offset="0.58" stop-color="#d2d2d2"/><stop offset="0.67" stop-color="#b9b9b9"/><stop offset="0.75" stop-color="#999"/><stop offset="0.83" stop-color="#737373"/><stop offset="0.9" stop-color="#484848"/><stop offset="0.97" stop-color="#181818"/><stop offset="1"/></radialGradient><filter id="luminosity-noclip-3" x="413.88" y="-8592" width="50.03" height="32766" filterUnits="userSpaceOnUse" color-interpolation-filters="sRGB"><feFlood flood-color="#fff" result="bg"/><feBlend in="SourceGraphic" in2="bg"/></filter><mask id="mask-3" x="413.88" y="-8592" width="50.03" height="32766" maskUnits="userSpaceOnUse"><g class="cls-36"/></mask><radialGradient id="radial-gradient-3" cx="-55306.27" cy="-77012.84" r="283.58" xlink:href="#radial-gradient"/><radialGradient id="radial-gradient-4" cx="-26442.96" cy="-29829.38" r="118.79" xlink:href="#radial-gradient-2"/><mask id="mask-5" x="331.89" y="277.16" width="50.03" height="39.76" maskUnits="userSpaceOnUse"><g class="cls-1"><path class="cls-2" d="M357.88,277.31c13.8,1.34,24.56,11.26,24,22.16s-12.16,18.64-26,17.3-24.56-11.27-24-22.16S344.07,276,357.88,277.31Z"/></g></mask><filter id="luminosity-noclip-5" x="331.89" y="277.16" width="50.03" height="39.76" filterUnits="userSpaceOnUse" color-interpolation-filters="sRGB"><feFlood flood-color="#fff" result="bg"/><feBlend in="SourceGraphic" in2="bg"/></filter><radialGradient id="radial-gradient-5" cx="-26530.05" cy="-30212.5" r="118.79" gradientTransform="matrix(0.03, -0.16, 0.21, 0.04, 7402.6, -2929.62)" gradientUnits="userSpaceOnUse"><stop offset="0" stop-color="#f5535e"/><stop offset="0.8" stop-color="#f5535c"/><stop offset="1" stop-color="#f55359"/></radialGradient><mask id="mask-7" x="413.88" y="277.16" width="50.03" height="39.76" maskUnits="userSpaceOnUse"><g class="cls-4"><path class="cls-5" d="M439.87,277.31c13.8,1.34,24.56,11.26,24,22.16s-12.16,18.64-26,17.3-24.56-11.27-24-22.16S426.06,276,439.87,277.31Z"/></g></mask><filter id="luminosity-noclip-6" x="413.88" y="277.16" width="50.03" height="39.76" filterUnits="userSpaceOnUse" color-interpolation-filters="sRGB"><feFlood flood-color="#fff" result="bg"/><feBlend in="SourceGraphic" in2="bg"/></filter><radialGradient id="radial-gradient-6" cx="-26442.96" cy="-29829.38" r="118.79" xlink:href="#radial-gradient-5"/></defs><g class="cls-7"><g id="Layer_1" data-name="Layer 1"><rect class="cls-8" width="800" height="800"/><path class="cls-9" d="M523.35,607.09l-4.89,2.84c-4.48-11.42-11.93-24.1-21.56-37.64-21.74-30.52-75.18-29.16-79.71-29-4.53-.17-58-1.53-79.7,29-9.63,13.53-17.07,26.2-21.56,37.62l-4.85-2.82s-1.28,16.92.28,28.6c.1.87.24,1.73.4,2.57a19.87,19.87,0,0,0,2,6.09,26,26,0,0,0,2.34,4.13c11.76,16.86,83.17,19.87,100.78,19.95h.68c17.62-.08,89-3.09,100.79-19.95a27.26,27.26,0,0,0,2.19-3.8C525.59,636.81,523.35,607.09,523.35,607.09Z"/><path class="cls-10" d="M496.9,546.21c-21.74-30.53-75.18-29.18-79.71-29-4.53-.18-58-1.53-79.7,29-22.71,31.89-33.34,59.1-21.42,76.18,11.76,16.85,83.17,19.86,100.78,20h.68c17.62-.09,89-3.1,100.79-20C530.23,605.31,519.61,578.1,496.9,546.21Z"/><path class="cls-11" d="M460.06,615.94c-6-6-38.7-5-43-4.87-4.3-.16-37-1.14-43,4.87-6.45,6.45,2.57,15.47,12.24,16.76,8.82,1.18,27.57.72,30.76.63,3.21.09,21.95.55,30.77-.63C457.49,631.41,466.51,622.39,460.06,615.94Z"/><circle class="cls-12" cx="220.91" cy="178.21" r="46.64" transform="translate(-61.31 208.4) rotate(-45)"/><path class="cls-13" d="M192.74,173.23c-.17-7.82,6.73-14.32,15.41-14.51a16.35,16.35,0,0,1,12.65,5.33,16.36,16.36,0,0,1,12.4-5.88c8.68-.19,15.86,6,16,13.82a12.64,12.64,0,0,1-.17,2.39c-.38,14.55-23.39,30.39-27.37,30.47S194,190.14,193,175.61A13.35,13.35,0,0,1,192.74,173.23Z"/><polyline class="cls-12" points="228.8 218.75 252.98 240.99 246.57 209.65"/><path class="cls-14" d="M612.38,395.47s-14.07-22.81-67.67-38.82-92.14-32-180.56,31.63c-86.53,62.23-169.54,127-169.54,127l23.27,29.09s173.49-144.47,217.57-164,76.59-.28,99.55,7.08,74.51,40.37,74.51,40.37Z"/><path class="cls-15" d="M300.75,434.56a1.43,1.43,0,0,0-.66,1.93L305.7,448a1.46,1.46,0,0,0,1.94.66,1.44,1.44,0,0,0,.66-1.93l-5.62-11.47A1.45,1.45,0,0,0,300.75,434.56Z"/><path class="cls-15" d="M252.31,471.18a1.46,1.46,0,0,0-.66,1.94l5.62,11.46a1.47,1.47,0,0,0,1.94.66,1.45,1.45,0,0,0,.66-1.95l-5.62-11.45A1.45,1.45,0,0,0,252.31,471.18Z"/><path class="cls-15" d="M411.8,358.33a1.45,1.45,0,0,0-1,1.78l3.37,12.32a1.43,1.43,0,0,0,1.77,1,1.45,1.45,0,0,0,1-1.78l-3.36-12.31A1.46,1.46,0,0,0,411.8,358.33Z"/><path class="cls-15" d="M322.64,418.4a1.73,1.73,0,0,0-.93,2.29L329,437.82a1.75,1.75,0,0,0,3.23-1.37l-7.26-17.13A1.74,1.74,0,0,0,322.64,418.4Z"/><path class="cls-15" d="M223.13,493.33a1.75,1.75,0,0,0-.36,2.45l11.09,14.94a1.76,1.76,0,0,0,2.82-2.1l-11.09-14.93A1.76,1.76,0,0,0,223.13,493.33Z"/><path class="cls-15" d="M273.32,454.09a1.76,1.76,0,0,0-.6,2.41l9.56,15.95a1.76,1.76,0,0,0,3-1.81l-9.57-15.95A1.78,1.78,0,0,0,273.32,454.09Z"/><path class="cls-16" d="M252.29,363.93a3,3,0,0,0,1.8-1.89,3,3,0,0,0-1.93-3.79c-.4-.13-31-10.92-48.19-67.06a3,3,0,1,0-5.76,1.77c18.22,59.51,50.72,70.58,52.09,71A3,3,0,0,0,252.29,363.93Z"/><path class="cls-16" d="M193.69,293.81c2.07,5.44,7,8.62,11,7.1s5.58-7.16,3.51-12.6-7-8.63-11-7.11S191.63,288.36,193.69,293.81Z"/><path class="cls-16" d="M205.65,292.5c-1.26,2-1.09,4.35.37,5.28s3.67.06,4.93-1.93,1.1-4.36-.37-5.28S206.91,290.5,205.65,292.5Z"/><circle class="cls-16" cx="201.8" cy="291.06" r="10.75"/><path class="cls-16" d="M202.73,276.43c0,5.93,1.63,10.74,3.64,10.74s3.64-4.81,3.64-10.74-1.63-10.75-3.64-10.75S202.73,270.49,202.73,276.43Z"/><path class="cls-16" d="M204.8,287.17a5.21,5.21,0,1,0,5.21-5A5.1,5.1,0,0,0,204.8,287.17Z"/><path class="cls-16" d="M190,285.29a5.21,5.21,0,1,0,5.2-5A5.1,5.1,0,0,0,190,285.29Z"/><path class="cls-16" d="M187.58,290.28a5.21,5.21,0,1,0,5.21-5A5.1,5.1,0,0,0,187.58,290.28Z"/><path class="cls-16" d="M196.57,277c1.14,5.82,3.65,10.24,5.6,9.85s2.61-5.41,1.47-11.23-3.65-10.24-5.6-9.86S195.43,271.14,196.57,277Z"/><path class="cls-16" d="M438.38,583.3a3.34,3.34,0,0,0,3.34-3.34V522.79a3.34,3.34,0,0,0-6.68,0V580A3.33,3.33,0,0,0,438.38,583.3Z"/><path class="cls-16" d="M435,580.52c0,2.76,5.72,5,12.77,5s12.77-2.25,12.77-5-5.71-5-12.77-5S435,577.75,435,580.52Z"/><path class="cls-16" d="M395.23,583.3a3.33,3.33,0,0,1-3.34-3.34V522.79a3.34,3.34,0,0,1,6.68,0V580A3.34,3.34,0,0,1,395.23,583.3Z"/><path class="cls-16" d="M398.57,580.52c0,2.76-5.72,5-12.78,5s-12.77-2.25-12.77-5,5.72-5,12.77-5S398.57,577.75,398.57,580.52Z"/><path class="cls-17" d="M589,372.22c-7.58-14.61-28-71.05-47.52-131.55S459,164.22,459,164.22a275.58,275.58,0,0,0-37-4.67v0h-.67v0a276.17,276.17,0,0,0-37.05,4.28s-63.19,15.34-83.59,75.6-41.59,116.52-49.39,131c-3.42,6.39-13.37,35.91-8,67.48,8.3,63.81,83.59,114,175.63,114.51s168-49,177.22-112.64C601.89,408.29,592.36,378.64,589,372.22Z"/><g class="cls-18"><path class="cls-19" d="M568.49,488.93c-1.44,1.32-3.92,2.71-5.12,1.69s.19-4.57,1.09-5.52c1.24-1.3,3.7-2.54,5.27-1.07.73.69.23,2.78-.23,3.7A4.7,4.7,0,0,1,568.49,488.93Z"/><path class="cls-19" d="M582.18,466.49c-1.15,2-3,3.66-4.46,2.69-.82-.54-.65-3.71-.47-4.63a4.64,4.64,0,0,1,3.6-3.5C583.9,460.76,583.6,464,582.18,466.49Z"/><path class="cls-19" d="M582.83,443.77a2.29,2.29,0,0,1,0,.37c-.17,2.5-4.73,4.3-5.31,1a4.68,4.68,0,0,1,1.2-3.74C580.55,440,582.71,441.74,582.83,443.77Z"/><path class="cls-19" d="M593.38,413.19c-.85,1.95-2.73,3.88-4.17,3.11-3-1.57,2.13-10.07,4.42-5.81A3.36,3.36,0,0,1,593.38,413.19Z"/><path class="cls-19" d="M554.26,500.43a6.13,6.13,0,0,1-2.2,1.8c-3,1.06-2.63-6.18,1.82-5.75C556.33,496.72,555.58,498.83,554.26,500.43Z"/><path class="cls-19" d="M591,436.1c0,1.59-.25,3.38-1.69,4.06-2.47,1.15-2.19-3.4-2-4.67s.25-2.86,1.72-3.29c1.65-.48,2.1.84,2,2.26C591,434.93,591,435.5,591,436.1Z"/><path class="cls-19" d="M568.53,471.77c-1.08,1-2.41,1.28-3.18-.25-.86-1.73-.36-4.46,1.71-5,1.64-.46,3.29.31,3.21,2.18A5.1,5.1,0,0,1,568.53,471.77Z"/><path class="cls-19" d="M540.65,512.82c-.89,1-2.54,1.92-3.54,1.4-1.54-.82.42-4,1.33-4.65,1.74-1.34,3.47.65,2.74,2.47A2.76,2.76,0,0,1,540.65,512.82Z"/><path class="cls-19" d="M590.76,452.33a2,2,0,0,1-.37.61c-1.71,2-3.65-1.45-2.64-3.08C589.06,447.73,591.57,450.33,590.76,452.33Z"/><path class="cls-19" d="M580.21,423a2.35,2.35,0,0,1-.71.06c-2.62-.21-1-3.81.94-3.95C582.94,418.91,582.31,422.46,580.21,423Z"/><path class="cls-19" d="M582,399.35a2.21,2.21,0,0,1-.38.61c-1.7,2-3.64-1.45-2.64-3.08C580.27,394.75,582.77,397.35,582,399.35Z"/></g><path class="cls-19" d="M564.55,372.18c-7.17-14.6-26.45-71-44.95-131.53s-78.11-76.43-78.11-76.43a247.67,247.67,0,0,0-35.05-4.65v0h-.62v0a246.87,246.87,0,0,0-35.09,4.29s-59.84,15.36-79.18,75.63S252.13,356,244.74,370.55c-3.24,6.39-12.67,35.91-7.6,67.48,7.84,63.8,79.12,114,166.27,114.45s159.07-49,167.86-112.69C576.75,408.25,567.73,378.61,564.55,372.18Z"/><path class="cls-20" d="M551.11,370.77c-6.58-13.28-24.24-65-41.2-120.39s-71.53-70-71.53-70a214,214,0,0,0-32.06-4.24v-.07a.89.89,0,0,1-.21,0,.84.84,0,0,1-.37,0v.07A214.2,214.2,0,0,0,373.57,180s-54.76,14.05-72.49,69.27-36.08,106.75-42.83,120c-3,5.88-11.63,33-7,61.85,7.2,58.42,72.48,104.38,152.3,104.78s145.68-44.84,153.71-103.19C562.27,403.84,554,376.68,551.11,370.77Z"/><path class="cls-21" d="M403.53,535.9c79.78.41,145.68-44.84,153.71-103.19,5-28.87-3.2-56-6.13-61.94-4.53-9.16-14.34-36.59-25.55-70.9.53,7.74,1.09,14.17,1.7,18.31,3.47,23.78,37.4,73.25,12.39,113.29-6,9.65-15.92,21.72-28.8,19.23-4.59-.88-7.92-3.31-11.2-6.42-3.52-3.34-6.41-7.22-6.8-12.22-.34-4.44,1.51-8.6,1.28-13.2a105.62,105.62,0,0,0-5.4-28.55,95.46,95.46,0,0,0-30.21-43.93c-30.78-24.69-71.72-22-103,.3-1.5,1.07-3,2.18-4.44,3.32l-.78.62c-28,22.31-37,55-24.35,88.35a139.25,139.25,0,0,0,20,35c2.83,3.69,9,8.49,2.4,11.56-5.32,2.47-13.63,1.17-19.14-.1-17.77-4.08-33.11-16.65-46-29A268.68,268.68,0,0,1,264,435.9q-4-4.77-7.85-9.67c-1.25-1.6-6.09-6.13-6.16-8.12a105,105,0,0,0,1.22,13C258.43,489.54,323.71,535.5,403.53,535.9Z"/><path class="cls-22" d="M399.11,331a76.59,76.59,0,0,1,53.51,21.54,80.52,80.52,0,0,1,7.79,8.5,83.52,83.52,0,0,1,17.8,51.34c.27,45.19-34.71,82.07-78.13,82.33-30.87.18-57.62-18.24-70.64-45.12a83.58,83.58,0,0,1-4.15-10.21A84.54,84.54,0,0,1,321,413.35C320.71,368.11,355.69,331.29,399.11,331Z"/><path class="cls-23" d="M390.73,479.68c43.42-.26,78.4-37.13,78.13-82.33a84,84,0,0,0-8.45-36.27,83.52,83.52,0,0,1,17.8,51.34c.27,45.19-34.71,82.07-78.13,82.33-30.87.18-57.62-18.24-70.64-45.12C344,468.08,366,479.83,390.73,479.68Z"/><path class="cls-22" d="M460.41,361.08a80.52,80.52,0,0,0-7.79-8.5"/><path class="cls-22" d="M325.29,439.42a83.58,83.58,0,0,0,4.15,10.21"/><path class="cls-24" d="M390.73,479.68c-24.69.15-46.77-11.6-61.29-30.05a83.58,83.58,0,0,1-4.15-10.21A76.56,76.56,0,0,0,378.78,461c43.42-.26,78.41-37.13,78.14-82.33a85.19,85.19,0,0,0-4.3-26.07,80.52,80.52,0,0,1,7.79,8.5,84,84,0,0,1,8.45,36.27C469.13,442.55,434.15,479.42,390.73,479.68Z"/><path class="cls-22" d="M399.11,331a76.59,76.59,0,0,1,53.51,21.54,85.19,85.19,0,0,1,4.3,26.07c.27,45.2-34.72,82.07-78.14,82.33a76.56,76.56,0,0,1-53.49-21.56A84.54,84.54,0,0,1,321,413.35C320.71,368.11,355.69,331.29,399.11,331Z"/><circle class="cls-25" cx="379.93" cy="377.1" r="28.05" transform="translate(-155.37 379.1) rotate(-45)"/><path class="cls-26" d="M410.41,302a62.55,62.55,0,0,0,4-22.85l-33-.1a62.41,62.41,0,0,0,4,22.95,17.29,17.29,0,0,1,25,0Z"/><path class="cls-27" d="M397.88,314.25c5,0,9.5-4.74,12.53-12.24a17.29,17.29,0,0,0-25,0C388.42,309.49,392.89,314.24,397.88,314.25Z"/><path class="cls-28" d="M414.4,279.14c0,7-7.4,12.65-16.51,12.63s-16.49-5.68-16.49-12.71Z"/><path class="cls-29" d="M434.87,294.06a1.84,1.84,0,0,0-2.37-1.66,7.43,7.43,0,0,0-3.79,3.66c-.76,1.31-1.75,3-1.56,4.54.14,1.09,1.26,2.25,2.46,1.72,1.54-.68,2.33-2,3.28-3.28A8.22,8.22,0,0,0,434.87,294.06Z"/><path class="cls-29" d="M442.68,291.8c-2-1-3.45,1.13-4.21,2.59s-1.59,3.32-1.4,4.89a1.76,1.76,0,0,0,2.65,1.38c1.32-.69,2.3-2.34,3-3.58C443.64,295.6,444.75,292.88,442.68,291.8Z"/><path class="cls-29" d="M449.05,293.74c-2.1-1.11-3.25,1.27-4,2.77a2.26,2.26,0,0,0,4,2.09C449.85,297.14,451.15,294.84,449.05,293.74Z"/><path class="cls-29" d="M360.93,294.17a1.84,1.84,0,0,1,2.36-1.67,7.43,7.43,0,0,1,3.81,3.66c.76,1.3,1.76,3,1.57,4.52-.13,1.1-1.26,2.26-2.46,1.74-1.53-.68-2.33-2-3.29-3.28A8.18,8.18,0,0,1,360.93,294.17Z"/><path class="cls-29" d="M354,292.35c2-1,3.45,1.13,4.22,2.59s1.6,3.31,1.41,4.88a1.75,1.75,0,0,1-2.64,1.39c-1.32-.68-2.31-2.33-3-3.57C353.1,296.16,352,293.44,354,292.35Z"/><path class="cls-29" d="M346.75,293.89c2.1-1.11,3.25,1.27,4,2.76a2.25,2.25,0,1,1-4,2.1C346,297.29,344.65,295,346.75,293.89Z"/><g class="cls-18"><g class="cls-30"><g class="cls-30"><path class="cls-31" d="M357.88,277.31c13.8,1.34,24.56,11.26,24,22.16s-12.16,18.64-26,17.3-24.56-11.27-24-22.16S344.07,276,357.88,277.31Z"/></g></g></g><g class="cls-18"><g class="cls-32"><g class="cls-32"><path class="cls-33" d="M439.87,277.31c13.8,1.34,24.56,11.26,24,22.16s-12.16,18.64-26,17.3-24.56-11.27-24-22.16S426.06,276,439.87,277.31Z"/></g></g></g><path class="cls-34" d="M452.66,284.73a3.82,3.82,0,0,1-3.39-2.05c-.7-1.31-3.17-4.76-6.22-5.06-3.24-.33-6.64,2.91-8.92,5.68a3.83,3.83,0,0,1-5.91-4.87c5.07-6.15,10.33-9,15.66-8.42,7.65.81,11.73,8.27,12.17,9.12a3.81,3.81,0,0,1-1.63,5.16A3.73,3.73,0,0,1,452.66,284.73Z"/><path class="cls-34" d="M343.14,284.73a3.85,3.85,0,0,0,3.4-2.05c.69-1.31,3.17-4.76,6.22-5.06,3.23-.33,6.63,2.91,8.91,5.68a3.83,3.83,0,1,0,5.91-4.87c-5.06-6.15-10.32-9-15.65-8.42-7.65.81-11.74,8.27-12.18,9.12a3.83,3.83,0,0,0,1.63,5.16A3.76,3.76,0,0,0,343.14,284.73Z"/><path class="cls-21" d="M410.41,311.22s-10.82,14.19-25,0C385.4,311.22,398.83,331.32,410.41,311.22Z"/><path class="cls-19" d="M525.48,221.79c-3.47.58-4.05,12.16,4.63,30.69,1.82,3.88,3.64,7.78,5.67,11.55.65,1.22,2.29,5.4,3.82,5.84,3.64,1.05,1-10.52.66-12.39-.87-4.85-3.1-9.75-4.75-14.38C534.66,240.7,529,221.22,525.48,221.79Z"/><path class="cls-19" d="M517.56,211.43a2.68,2.68,0,0,0-.59.8c-1.05,2.11.11,4.47,1.27,6.24.83,1.28,2.45,5.07,4.42,3.6C527,218.85,521.54,207.84,517.56,211.43Z"/><path class="cls-34" d="M453.49,284.73s5.87.27,6.54-7.57c0,0-1.73,3.51-6.54,1.2"/><path class="cls-34" d="M343.3,284.73s-5.87.27-6.55-7.57c0,0,1.74,3.51,6.55,1.2"/><path class="cls-19" d="M566.16,303.82a26,26,0,0,0,1.19,2.93Z"/><path class="cls-16" d="M569.77,363.93a3,3,0,0,1,.14-5.68c.4-.13,31-10.92,48.18-67.06a3,3,0,1,1,5.76,1.77c-18.22,59.51-50.71,70.58-52.09,71A3,3,0,0,1,569.77,363.93Z"/><path class="cls-16" d="M628.37,293.81c-2.07,5.44-7,8.62-11,7.1s-5.58-7.16-3.51-12.6,7-8.63,11-7.11S630.43,288.36,628.37,293.81Z"/><path class="cls-16" d="M616.41,292.5c1.26,2,1.1,4.35-.37,5.28s-3.67.06-4.93-1.93-1.09-4.36.37-5.28S615.15,290.5,616.41,292.5Z"/><circle class="cls-16" cx="620.26" cy="291.06" r="10.75"/><ellipse class="cls-16" cx="615.69" cy="276.43" rx="3.64" ry="10.75"/><path class="cls-16" d="M617.26,287.17a5.21,5.21,0,1,1-5.21-5A5.1,5.1,0,0,1,617.26,287.17Z"/><path class="cls-16" d="M632.08,285.29a5.2,5.2,0,1,1-5.2-5A5.1,5.1,0,0,1,632.08,285.29Z"/><path class="cls-16" d="M634.48,290.28a5.21,5.21,0,1,1-5.2-5A5.1,5.1,0,0,1,634.48,290.28Z"/><ellipse class="cls-16" cx="621.96" cy="276.27" rx="10.75" ry="3.6" transform="translate(231.36 833.57) rotate(-78.92)"/><path class="cls-35" d="M165.52,413l11.19,32s128.14-33.45,198.19-25.36S553.84,455,609.51,427.84l2.87-32.37s-77.07,16.25-146.92,2.43c0,0-92.36-16-177.38-7.68S165.52,413,165.52,413Z"/><path class="cls-15" d="M285.64,390.5a1.43,1.43,0,0,0-1.29,1.58l1.28,12.7a1.44,1.44,0,0,0,1.58,1.3,1.46,1.46,0,0,0,1.3-1.59l-1.29-12.7A1.44,1.44,0,0,0,285.64,390.5Z"/><path class="cls-15" d="M349.69,388.06a1.43,1.43,0,0,0-1.6,1.26L346.63,402a1.45,1.45,0,0,0,2.88.33L351,389.66A1.44,1.44,0,0,0,349.69,388.06Z"/><path class="cls-15" d="M224.35,399.37a1.45,1.45,0,0,0-1.29,1.58l1.29,12.7a1.44,1.44,0,1,0,2.87-.28l-1.28-12.71A1.46,1.46,0,0,0,224.35,399.37Z"/><path class="cls-15" d="M472.64,399.11a1.45,1.45,0,0,0-1.59,1.3l-1.27,12.7a1.45,1.45,0,0,0,2.88.29l1.28-12.71A1.47,1.47,0,0,0,472.64,399.11Z"/><path class="cls-15" d="M530.33,403.12a1.44,1.44,0,0,0-1.46,1.43l-.12,12.76a1.45,1.45,0,1,0,2.89,0l.12-12.77A1.45,1.45,0,0,0,530.33,403.12Z"/><path class="cls-15" d="M444.07,393.83a1.76,1.76,0,0,0-2,1.45l-3,18.37a1.75,1.75,0,1,0,3.46.55l3-18.35A1.76,1.76,0,0,0,444.07,393.83Z"/><path class="cls-15" d="M319.32,387.81a1.75,1.75,0,0,0-1.75,1.76l0,18.6a1.74,1.74,0,0,0,1.75,1.76,1.77,1.77,0,0,0,1.76-1.76l0-18.6A1.77,1.77,0,0,0,319.32,387.81Z"/><path class="cls-15" d="M377.75,389.39a1.75,1.75,0,0,0-1.75,1.76l0,18.61a1.76,1.76,0,0,0,3.51,0l0-18.6A1.76,1.76,0,0,0,377.75,389.39Z"/><path class="cls-15" d="M410,390.9a1.44,1.44,0,0,0-1.59,1.27l-1.46,12.69a1.44,1.44,0,0,0,2.87.33l1.46-12.68A1.45,1.45,0,0,0,410,390.9Z"/><path class="cls-15" d="M255,393.2a1.74,1.74,0,0,0-1.55,1.92l2,18.49a1.75,1.75,0,1,0,3.49-.37l-2-18.49A1.75,1.75,0,0,0,255,393.2Z"/><path class="cls-15" d="M195,404a1.75,1.75,0,0,0-1.15,2.19L199.36,424a1.75,1.75,0,1,0,3.35-1l-5.52-17.76A1.76,1.76,0,0,0,195,404Z"/><path class="cls-15" d="M501.71,401.74a1.76,1.76,0,0,0-1.87,1.63l-1.27,18.56a1.75,1.75,0,1,0,3.5.24l1.27-18.56A1.74,1.74,0,0,0,501.71,401.74Z"/><path class="cls-15" d="M558.72,402.35a1.73,1.73,0,0,0-1.59,1.89l1.63,18.54a1.75,1.75,0,0,0,1.9,1.59,1.77,1.77,0,0,0,1.6-1.9l-1.64-18.53A1.75,1.75,0,0,0,558.72,402.35Z"/></g></g></svg>