<svg xmlns="http://www.w3.org/2000/svg" viewBox="0 0 1400 980">
	<path fill="#151D38"
		d="M1031.8 347.2c-.5.5-.4 1.1-.5 1.7-.5 10.9-3.1 21.4-6.7 31.7-15.4 43.6-51.8 75.6-97 85.3-3.5.7-7 1.3-10.5 1.8-4.6.7-7.3 3.6-7.4 8.3v222.7c0 4-.5 3.5 3.6 3.5H989.2c2.9 0 3.1.2 3.1 3v8.8c0 2.4 0 2.4 2.3 2.4h6.4c2 .1 2.3.4 2.4 2.4V772.6c0 1.4-.1 2.6-1 3.7H520.6c-.1-.3-.2-.6-.4-1-.6-1.8-.1-2.5 1.7-2.7.6-.1 1.2 0 1.9 0H539c1.9 0 1.9-.1 1.9-2 0-2.1-.1-4.3 0-6.4.2-6.3 3-11.2 8.7-13.9 5.7-2.7 11.2-2 16.2 1.9 1.1.9 2 1.1 3.4.8 3.1-.6 6-1.5 8.9-2.8 4.3-2.1 7.5-5.3 9.8-9.5 1.2-2.2 1.1-2.3-1.3-2.3h-11.2c-2.7 0-3-.3-3-3.1V710c0-2.8.3-3 3.1-3.1h5.1c1.8 0 1.8-.1 1.5-1.8-1-4.8-2-9.6-3-14.3-6.5-30.9-13-61.8-19.6-92.7-5.3-25.4-10.7-50.7-16-76.1-.5-2.2-.5-2.2-2.6-2.6-3.1-.5-5.2-2.4-6.8-5.1-7-11.8-14.1-23.6-21.1-35.5-3.4-5.7-6.4-11.7-8.9-17.8-3.8-9.2-6.5-18.6-7.1-28.6-1.1-20 5-36.9 21.5-49.2 7.6-5.7 16.4-8.7 25.8-10 14.4-1.9 28.3.2 41.8 5.6.6.2 1.4 1 1.9.4.4-.5-.3-1.3-.6-1.9-2-3.8-4.5-7.3-7.2-10.5-4.8-5.7-10.2-10.9-15.7-16-6.8-6.3-13.9-12.5-20.4-19.1-5-5.1-9.7-10.4-13.6-16.4-3.2-5-5.7-10.2-6.7-16.1-1.4-8.5-.1-16.8 2.9-24.8.3-.8.7-1.6 1-2.5.6-1.6.6-1.7-1.3-1.6-1 .1-1.9.3-2.9.3-1.6 0-2.4-1.3-1.5-2.7.3-.5.8-.9 1.3-1.4 2.9-2.9 5.7-5.8 8.6-8.8 1.1-1.2 1.1-1.3-.5-1.9-3.3-1.3-6.7-2.5-10-3.7-.6-.2-1.2-.4-1.7-.7-1.4-.7-1.5-1.9-.4-3 .4-.4.9-.6 1.3-.9 2.7-2 5.5-3.9 8.2-5.9 1.8-1.3 1.8-1.3-.2-2.5-3.4-2-6.7-4-10.1-5.9-.5-.3-.9-.5-1.4-.8-.7-.4-1.3-1-1.1-1.9.2-.9.9-1.2 1.8-1.4 3.3-.5 6.5-1 9.7-1.4 13.8-1.9 27.6-3.8 41.4-5.8 14.2-2 28.3-4 42.5-5.9 5.8-.8 11.5-.2 17 1.9 6.7 2.6 11.6 7.1 14.4 13.8.7 1.7 1.6 2.4 3.4 2.8 12.3 2.3 20.4 11.3 21.6 23.8.8 7.7-.4 15.2-2.5 22.6-.2.8-.4 1.5-.7 2.3-.2.8-.2 1.4.8 1.6.3.1.7.3 1 .4 7.4 3.3 11.4 10.4 10.4 18.6-.9 7.3-6.6 13.2-14.2 14.7-2.1.4-4.2.4-6.4 0-1-.2-1.3.1-1.3 1v59.4c0 3.1-.1 2.9 2.6 1.6 13.2-6.2 27.1-9 41.6-7.9 14.1 1.1 26.6 5.8 36.8 16 8 8.1 12.6 18 14.3 29.1 2.1 13.5-.3 26.5-5 39.2-2.9 7.8-6.6 15.1-10.8 22.3-6.9 11.5-13.8 23-20.6 34.6-1.8 3.1-4.2 5.3-7.9 5.5-1.1.1-1.4.7-1.6 1.7l-4.2 19.8c-6.3 30-12.6 59.9-18.9 89.9-5.2 24.6-10.4 49.1-15.5 73.7-.5 2.2-.4 2.3 1.8 2.3h6.4c2.1 0 2.4.4 2.5 2.5V735c0 2.8-.3 3.1-3 3.1h-11.7c-1.1 0-1.4.4-.9 1.4 2.2 4.5 5.5 8.1 10 10.3 2.8 1.4 5.8 2.2 8.8 2.9 1.5.3 2.6 0 3.9-.9 4.8-3.6 10.1-4.3 15.6-1.9 5.8 2.6 8.8 7.3 9.1 13.6.1 2.3 0 4.6 0 6.9 0 1.8.1 1.8 2 1.9h82.3c3.5 0 3.2.4 3.2-3.1V721v-1.9c0-2.7.3-3 3.1-3h5.6c2.4 0 2.4 0 2.4-2.3v-8.5c0-3.2.2-3.3 3.3-3.3h77.3c2.2 0 2.2 0 2.3-2.1v-1.6-220.4-2.1c-.2-4.7-2.8-7.6-7.4-8.2-12.6-1.6-24.8-4.8-36.3-10.2-41.2-19.2-66.6-51-76.3-95.4-7.8-45.9 3.8-86 36.3-119.4 20.3-20.8 45.3-33 74-37.4 3.3-.5 6.5-.9 9.8-1 .8 0 1.6.1 2.3-.5h14.4c.8.4 1.7.4 2.6.4 5.1.1 10.1.8 15 1.8 37.9 7.7 67.4 27.8 88 60.5 11.1 17.5 17.7 36.7 19.1 57.5 0 .6.2 1.2.5 1.8.1 7.3.1 14.4.1 21.5z" />
	<path fill="#ACDCF6"
		d="M635.4 627.8V704c0 2.9 0 2.9 2.9 2.9h21.3c2.3 0 2.3 0 2.8-2.2 3-14.4 6.1-28.8 9.1-43.2 6-28.3 11.9-56.6 17.9-84.9l7.5-35.4c.4-1.8.4-1.8-1.5-2.2-3.1-.6-6-1.6-8.7-3.3-5.7-3.7-9.3-8.9-10.6-15.6-.4-2.4-.5-2.2-2.5-1.8-5.1.8-10.2 1.5-15.3 2.1-13.2 1.6-26.4 2.1-39.6 1.9-9-.1-17.9-.6-26.8-1.6-5.6-.6-11.1-1.3-16.6-2.2-2.1-.3-2.2-.3-2.6 1.8-2.2 11.1-11.2 18.1-20.7 18.9-1.2.1-1.5.4-1.2 1.6.9 4.2 1.8 8.3 2.7 12.5 6.5 30.6 12.9 61.3 19.4 91.9 4.2 19.7 8.3 39.4 12.4 59.1.6 2.6.6 2.6 3.2 2.6h20.2c3.6 0 3.4.5 3.4-3.5V553.9c0-1.2 0-2.3.1-3.5.4-4.2 3.4-7.5 7.5-8.3 2.7-.5 5.5-.5 8.2 0 3.8.7 6.8 3.8 7.3 7.5.2 1.1.1 2.3.1 3.5.1 24.9.1 49.8.1 74.7z" />
	<path fill="#CCD6DA"
		d="M893.1 587.6V699.8c0 2.2 0 2.2 2.1 2.3h9.1c2.1 0 2.1 0 2.1-2v-1.9-50.9-170.5c0-7.4 3.4-11.4 10.7-12.4 15.3-2.2 29.9-6.8 43.6-14.1 48.7-26.1 75.2-79.8 66.3-134.8-4.4-27.5-16.5-51.4-36.5-70.7-31.6-30.6-69.4-42.5-112.8-35.6-28.1 4.5-52.1 17.4-71.5 38.1-26.3 28-37.8 61.4-35.1 99.7 1.2 16.7 5.5 32.6 13.2 47.4 21 40 54 63.3 98.6 70.1 5.7.9 9.6 4.7 10.1 10.3.1 1 .1 2 .1 2.9v109.9z" />
	<path fill="#FAE0D6"
		d="M651.7 347.8v-29.6-2.1c.2-1.3.8-1.8 2.2-1.6.7.1 1.4.4 2 .6 7.7 1.9 15.2-2.6 17.2-10.3 1.9-7.5-2.7-15.1-10.3-17-2.8-.7-5.6-.6-8.4.4-.9.3-1.7.6-2.4-.3-.7-.8-.6-1.7.2-2.4.7-.6.3-.8-.2-1l-1.5-.6c-12.1-5-21.3-12.9-26.1-25.4-.4-1.1-1-1.5-2.2-1.3-5.3.8-10.5 1.5-15.8 2.2l-37.2 5.1c-11.7 1.6-23.4 3.2-35.1 4.7-1.2.2-1.9.6-2.4 1.7-1.2 2.4-2.3 4.8-3 7.4-2.7 8.9-3.5 17.7 0 26.6 2.2 5.6 5.5 10.5 9.2 15.2 6.6 8.1 14.2 15.1 21.9 22.1 6.3 5.8 12.8 11.6 18.7 17.9 5.2 5.6 10 11.5 13 18.7.4 1.1 1.3 1.6 2.2 2.2 16.6 11.3 38.9 11.4 55.8.4 1.5-1 2.1-2 2.1-3.8.1-9.9.1-19.8.1-29.8z" />
	<path fill="#7DA4EC"
		d="M592.4 459.1v47.1c0 2.4 0 2.5 2.4 2.7 3.9.4 7.8.7 11.7.9 15.3.9 30.5.7 45.8-.8 4-.4 3.2-.1 3.2-3.6 0-30.8.1-61.6-.1-92.4 0-2.7.8-4.2 2.9-5.7 7.3-5 15.2-8.3 23.8-10.1 2.6-.5 2.6-.5 2.6-3.2v-13.6c0-4.1 0-4.1-4.1-3.4-8.5 1.4-16.5 4.1-24.1 8-.9.5-1.8 1-1.5 2.2.6 2.6-1 3.9-3 5-1.2.6-2.3 1.4-3.5 2-18.7 9.2-37.1 8.3-55.4-1.3-3-1.5-4.9-3.4-4.2-7v-.3c.2-1.2-.3-1.9-1.5-2.4-7.3-3.2-14.8-5.4-22.7-6.5-1.2-.2-1.8.1-1.8 1.5.1 3.5 0 6.9 0 10.4v6.9c0 1 .3 1.5 1.3 1.6.5.1 1 .2 1.6.3 8.7 1.9 16.7 5.3 24 10.4 1.9 1.3 2.6 2.8 2.6 5.1v46.2z" />
	<path fill="#ACDCF6"
		d="M899.6 719.6h-97.8c-2.6 0-2.7 0-2.7 2.6v18.9c0 4.2-.2 3.6 3.6 3.6H997.5c2.7 0 2.7 0 2.7-2.6v-19.2c0-3.6.3-3.3-3.3-3.3h-97.3zM899.6 772.5h98c2.5 0 2.5 0 2.5-2.5v-18.7c0-3.9.4-3.4-3.4-3.4H801.2c-2 0-2.1 0-2.1 2v19.2c0 3.8-.3 3.3 3.2 3.3 32.5.1 64.9.1 97.3.1z" />
	<path fill="#FFF"
		d="M658.8 448.2v31.2c0 1.4.1 2.8 0 4.3-.1 1.4.5 1.9 1.8 2 1 .1 1.9.2 2.9.4 5.4.8 10.7 1.6 16 2.8 1.1.3 1.8.1 2.2-1.2.5-2 2-3 3.8-3.8 5.8-2.7 11.5-5.5 17.3-8.2.9-.5 1.9-.8 2.6-1.8 6.6-10.2 12.8-20.7 16.6-32.4 1.7-5.4 2.7-11 2.4-16.8-.5-10.7-6.7-19.4-16.8-23.1-3.2-1.2-6.5-1.9-9.9-2.1-13.5-.7-25.8 2.9-37 10.4-1.4 1-1.9 2-1.9 3.7v34.6zM589 448.2c0-11.4-.1-22.7.1-34.1 0-2.2-.7-3.5-2.6-4.7-5.5-3.5-11.3-6.2-17.6-7.9-8.3-2.2-16.6-3-25-1-8.3 2-14.6 6.6-18.1 14.7-1.9 4.4-2.5 9-2.2 13.8.4 5.6 1.8 11 3.8 16.3 3.8 10.1 9.3 19.3 15.1 28.4.6 1 1.5 1.4 2.5 1.9 5.9 2.8 11.8 5.7 17.8 8.5 1.5.7 2.7 1.7 3.4 3.2.9 1.9.9 1.9 3.1 1.5 5.7-1.2 11.5-2.2 17.3-2.9 2.5-.3 2.5-.3 2.5-3-.1-11.7-.1-23.2-.1-34.7z" />
	<path fill="#FAE0D6"
		d="M553.1 385.9v-7.5c0-2.6 0-2.6-2.7-2.4-3.7.2-7.4.7-11.1 1.6-16.4 4-28.5 13.2-35.1 28.9-5 11.8-5.1 24-2.4 36.3 2.8 12.8 8.2 24.5 14.9 35.7 6.6 11.1 13.3 22.3 19.9 33.4.4.7.8 1.4 1.3 2 1.5 1.8 3.4 2.5 5.7 2.2.6-.1 1.4-.2 1.6-.8.2-.6-.5-.8-.9-1.2-2.1-2.4-3.5-5.3-5.1-8.1-.5-.8-.3-1.6.5-2.1.9-.6 1.7-.4 2.3.5.4.5.7 1 1 1.6 1 1.6 1.8 3.3 2.9 4.8 1.8 2.6 4.9 3.4 7.5 2.1 1.2-.6 1.3-1 .1-1.8-3.2-2.4-4.4-6.1-6.5-9.3-.4-.7-.1-1.4.5-1.9.7-.5 1.5-.5 2.2.2.4.4.7 1 1 1.5 1.1 1.7 2 3.6 3.2 5.2 2 2.8 5.7 3.3 8.2 1.4.7-.6 1-1.2-.2-1.4-1.5-.3-2.2-1.3-2.9-2.5l-6.3-9.9c-.6-.9-1.1-1.8-1.7-2.7-.4-.7-.4-1.4.1-2 .5-.6 1.2-.8 1.9-.6.9.3 1.9.6 2.7 1.1 2.3 1.4 4.4.6 6.6-.1 1-.3.9-.9.6-1.7-.5-.9-1.4-1.3-2.3-1.7-6-2.9-12-5.7-18-8.6-1.1-.5-2.1-1.2-2.8-2.3-3.9-6.1-7.7-12.2-10.9-18.6-4.3-8.5-7.7-17.3-8.6-27-1.2-12.4 3.6-27.9 21.8-32.8 2.8-.8 5.7-1.2 8.7-1.4 2.3-.1 2.3-.1 2.3-2.5v-7.6zM747.8 428.3c-.1-3.3-.2-5.9-.5-8.6-3.6-25.7-23-42.6-50.6-43.8-1.2-.1-1.8.2-1.8 1.6.1 5.6 0 11.2 0 16.8 0 1.2.3 1.8 1.7 1.8 2 0 4.1.3 6.1.6 15.1 2.6 24.8 14 25 29.3.1 7.3-1.6 14.2-4.2 21-3.8 9.9-9.2 19-14.9 27.9-1 1.6-2.2 2.7-3.9 3.4-5.8 2.7-11.5 5.5-17.3 8.2-.8.4-1.7.7-2.2 1.4-.8 1-.5 1.8.7 2.2 2.3.8 4.6 1.3 6.9-.2.6-.4 1.4-.7 2.2-.9 1.6-.4 2.6.9 2.1 2.4-.2.6-.6 1.1-1 1.6-2.4 3.7-4.8 7.5-7.2 11.2-.7 1.2-1.5 2.1-3 2.4-1 .2-1 .7-.1 1.4 2.8 2 6.4 1.4 8.4-1.5 1.3-2 2.5-4.1 3.7-6.2.5-.9 1.4-1.2 2.3-.7 1 .5 1.1 1.5.6 2.3-2 3.2-3.3 7-6.6 9.2-.9.6-.7 1 .1 1.5 2.7 1.6 6 .7 7.9-2.1 1.3-1.9 2.4-4 3.6-5.9.6-1 1.5-1.4 2.5-.7.9.6.9 1.5.4 2.4-1.6 2.6-2.9 5.5-5 7.8-.3.4-1.1.7-.8 1.2.2.6 1 .7 1.6.8 1.2.1 2.3.1 3.4-.4 1.6-.7 2.5-1.9 3.3-3.3 6.8-11.4 13.5-22.7 20.3-34.1 3.5-5.8 6.6-11.8 9.2-18 4.2-10.4 7.1-21.2 7.1-32z" />
	<path fill="#FFF"
		d="M632.1 628.3v-74.8-2.4c-.2-3.1-2.5-5.5-5.6-5.7-1.8-.1-3.6-.1-5.3 0-3 .2-5.3 2.5-5.6 5.5-.1.8-.1 1.6-.1 2.4v152.4c0 .9.4 1.3 1.3 1.3h2.9c2.4.1 2.7.3 2.7 2.8V736.2c-.1 1.8-.5 2.2-2.2 2.3-1.2.1-2.3 0-3.5 0-1.9 0-2.2-.2-2 2.2.9 10.2 2.6 20.2 2.8 30.5 0 1.1.4 1.6 1.6 1.5 3.6 0 7.3-.1 10.9 0 1.5 0 1.8-.6 1.8-1.9-.1-6.7 1-13.3 1.7-19.9.3-3.6.7-7.2 1.2-10.9.1-1.2-.2-1.6-1.4-1.6-1.2.1-2.5 0-3.7 0-2.6 0-2.8-.3-2.8-3V729v-19.4c0-2.4.3-2.6 2.6-2.7h.8c2-.1 2-.1 2.1-2.1v-1.9c-.2-24.9-.2-49.7-.2-74.6z" />
	<path fill="#ACDCF6"
		d="M597.4 710.1H578c-2.1 0-2.1 0-2.1 2v20.8c0 2.1.1 2.1 2.1 2.1h39.1c2.1 0 2.1-.1 2.1-2v-20.8c0-2 0-2.1-2.1-2.1h-19.7zM651.8 710.1h-19.4c-2.4 0-2.4 0-2.4 2.5v20.2c0 2.1 0 2.2 2.3 2.2h38.8c2.1 0 2.1 0 2.1-2v-21c0-1.8-.1-1.9-2-1.9h-19.4z" />
	<path fill="#E5384A"
		d="M656.2 764.9h19.5c1.3 0 2-.2 2-1.7 0-2 .5-3.9 1.4-5.6.5-1.1.1-1.4-.9-1.6-.3 0-.5-.1-.8-.1-9.4-2.1-16.6-7-20.2-16.3-.4-1-1-1.3-2-1.3H640c-1.9 0-1.9.1-2.1 1.9-.8 7.5-1.6 15-2.3 22.5-.2 2.1-.2 2.2 2.1 2.2h18.5zM592.7 764.9h19.2c2 0 2.1-.1 1.9-1.9l-2.4-22.5c-.2-2.1-.2-2.1-2.4-2.1-4.5 0-9.1.1-13.6 0-1.9-.1-3 .4-3.8 2.3-2.6 6.1-7 10.4-13.1 13-2.4 1-4.8 1.8-7.4 2.3-1.2.2-1.5.6-1 1.8.8 1.6 1.2 3.3 1.4 5.1.2 2.3.5 2.1 2.5 2.1 6.3-.1 12.5-.1 18.7-.1z" />
	<path fill="#ACDCF6"
		d="M623.6 518.8c20.3.2 40.2-2 59.8-5.9.8-.2 2 0 2.2-.7.2-.8-1.1-.8-1.6-1.3s-1.3-.8-1.6-1.4c-1-1.9-2.4-1.6-4.1-1.2-8.3 1.8-16.8 3-25.2 3.9-11.5 1.2-23 1.4-34.6 1.3-8.9-.1-17.7-.6-26.6-1.7-7.8-.9-15.5-2.1-23.1-3.8-1.3-.3-2.4-.2-3.2 1.1-.6.9-1.5 1.5-2.4 2.1-.4.3-1.2.3-1.1.9.1.4.7.4 1.1.5 3.3.6 6.6 1.2 10 1.8 16.9 3 33.7 4.6 50.4 4.4z" />
	<path fill="#151D38"
		d="M658.8 498.4v8.3c0 1.1.4 1.7 1.5 1.5.3-.1.7-.1 1.1-.1 6-.9 11.9-2.2 17.8-3.1 4.5-.7 7.8-2.5 9.6-6.8.2-.4.5-.7.7-1.1 1.3-2.1 1.3-2.1-.9-2.7-4.9-1.2-9.8-2.4-14.8-3.3-4-.7-8-1.3-12.1-2-2.8-.4-2.9-.4-2.9 2.4v6.9zM589 498.6v-8.2c0-1.2-.4-1.6-1.6-1.4-.3.1-.7.1-1.1.1-5.1.9-10.3 1.6-15.4 2.6-4.2.8-8.3 1.9-12.4 2.9-1 .2-1.3.6-.7 1.6 1.4 2.1 2.7 4.2 4 6.3.5.8 1.2 1.1 1.9 1.3 7.8 1.8 15.6 3.3 23.5 4.4 1.2.2 1.8-.2 1.7-1.5.1-2.8.1-5.4.1-8.1z" />
	<path fill="#ACDCF6"
		d="M551 535.8h.3c9.5-.9 16.7-8 18.2-17.1.2-1-.3-1.4-1.2-1.6-3.5-.6-7-1.4-10.4-2.1-.9-.2-1.7 0-2.5.5-1.3.8-2.8 1.4-4.3 1.1-1.9-.3-2.9 1.1-4.2 1.8-.6.3-.5.9-.4 1.4 1 4.9 2.1 9.7 3.1 14.6.1 1 .5 1.5 1.4 1.4zM691.2 514.9c-3.6.7-6.9 1.3-10.1 1.9-2 .4-2 .4-1.7 2.4 1.1 7.6 7.5 14.4 15.2 16 4 .8 3.2.8 3.9-2.5.9-3.8 1.6-7.6 2.4-11.5.5-2.5.2-3.7-2.1-4.3-2.6-.5-5.5-.5-7.6-2z" />
	<path fill="#FEFEFE"
		d="M579.3 772.5h33.8c.5 0 .9-.1 1-.6.1-1.1.3-2.2-.1-3.1-.5-1-1.6-.4-2.4-.5H545.9c-1.3-.1-1.8.5-1.6 1.7v1.3c0 .9.4 1.3 1.3 1.3h1.9c10.5-.1 21.2-.1 31.8-.1z" />
	<path fill="#FFF"
		d="M670.1 772.5h33.8c.4 0 1-.1 1-.7 0-1.1.3-2.2-.1-3.2-.4-.9-1.6-.4-2.4-.5H636c-.4 0-.8.1-.8.5-.2 1.1-.4 2.4.1 3.4.4.8 1.5.3 2.2.4h1.6c10.4.1 20.7.1 31 .1zM692.9 764.9h10.4c1.7 0 1.9-.3 1.7-1.9-.4-3.4-1.9-6.3-4.6-8.4-3.7-2.8-7.8-3.3-12-1.6-4.2 1.7-6.5 5-7.2 9.5-.3 2.1-.1 2.3 2 2.3 3.1.1 6.4.1 9.7.1zM556.2 764.9h10.1c2 0 2.1-.2 1.9-2.2-.5-5.9-5.6-10.5-11.7-10.6-6.2-.1-11.2 4.3-12.1 10.5-.3 2.2-.3 2.3 1.9 2.3h9.9z" />
	<path fill="#ACDCF6"
		d="M623.1 397.1c1.3-.1 3.5-.2 5.7-.4 7.7-.9 14.9-3.3 21.4-7.4.6-.4 1.4-.6 1.4-1.4.1-1 .5-2.4-.2-3-.6-.6-1.5.5-2.3.9-18 9.8-36 9.8-54.1.1-.5-.3-1.1-.6-1.6-.9-.6-.4-1-.2-1.1.5-.4 2.2 0 3.1 2.1 4.3 8.6 4.7 17.9 7.1 28.7 7.3zM691.6 386.1v-8.5c0-1-.1-1.7-1.4-1.7-1.7 0-2 .2-2.1 1.6-.1 1.9 0 3.9 0 5.8v11.1c0 .6-.2 1.3.6 1.6 1.4.6 2.9-.2 2.9-1.8v-8.1zM559.7 386.1c-.1 0-.1 0 0 0v-8.7c0-1.3-.8-1.3-1.8-1.4-.9 0-1.5.1-1.5 1.3v17.5c0 1.5 1 1.4 1.9 1.5 1.4.1 1.4-.7 1.4-1.7-.1-2.9 0-5.7 0-8.5z" />
	<path fill="#151D38"
		d="M368.2 773.5c1.2-.9 2.6-1 4-1h29.3c.2 0 .6 0 .6-.3 0-.2-.3-.4-.5-.5l-2.4-1.2c-14.9-8-23.4-20.3-25.3-37.1 0-.4-.1-.7-.1-1.1 0-.8.3-1.4 1-1.8.8-.4 1.4-.1 1.9.4l.6.6c9.4 10.2 21.2 16.5 34.1 21.1 5.3 1.9 10.7 3.2 16.2 4.1.2 0 .3.1.5.1 3 .4 3 .4 2.5-2.5-.9-5.4-1.1-10.8.5-16.1 2.5-8.2 8.6-12.8 17.2-12.9 2.6 0 5.2.2 7.7.8 1.6.4 1.5-.7 1.8-1.6.4-1.1-.3-1.4-1.1-1.6-1.4-.4-2.9-.8-4.3-1.4-5.4-2.3-8.6-6.4-9.9-12-.4-2.1-.8-4.2-.6-6.3.1-1.8.7-2.3 2.5-2.3 8 .3 14.5 5.3 16.8 12.9.1.3.2.5.2.8.2 1.1.6 1.2 1.3.3 1.7-2.1 3.7-3.9 6.1-5.1.6-.3 1.3-.6 1.9-.8.8-.2 1.4.1 1.8.8.4.8.2 1.6-.5 2.1-.3.3-.8.4-1.2.6-5 2.6-7.8 7.1-9.6 12.3-.4 1 0 1.4 1 1.1 2.3-.5 4.6-.6 6.9-.6 8.3.1 14.4 4.6 16.9 12.5 1.9 6 1.7 12.1.4 18.2-1.2 5.6-3.4 10.8-7.3 15.2-.2.2-.6.5-.5.9.2.6.7.4 1.1.4h13.9c1.7.2 2.2 1.1 1.6 2.7-.1.3-.3.6-.5.9H370c-.4-.5-.8-1.1-1.6-1.1-.2-.4-.2-.9-.2-1.5z" />
	<path fill="#EBBE62"
		d="M379.9 743.7c0-.2 0-.4-.1-.4-.1-.1-.3 0-.2.2 0 .2.2.3.3.2.2 2.6 1.7 4.8 3 7 9.2 16.1 28.8 24.8 46.9 21.1 5.5-1.1 10.7-3.2 15.4-6.4.2-.2.7-.3.4-.7-.1-.1-.5-.1-.7 0-3.8 1.2-7.7 2.1-11.7 2.4-20.8 1.5-38.1-5.7-51.6-21.7-.5-.7-.8-1.5-1.7-1.7z" />
	<path fill="#E5384A"
		d="M484 745.7c.1-1.9-.5-5.5-2.1-8.8-1.9-4.1-5-6.8-9.5-7.7-2.6-.5-5.1-.5-7.7-.1-1.3.2-2.6.5-3.9.8-.8.2-1.3 1.9-.9 2.7.5 1 1 0 1.5-.1.9-.3 1.6-.2 2.1.6.5.9.2 1.7-.5 2.4-2.6 2.4-7.9 2.1-10.2-.6l-.2-.2c-.6-.7-.8-1.4-.2-2.2.6-.7 1.4-.7 2.2-.4.3.1.6.4.9.6.2.1.4.4.7.1.7-.7.4-2.8-.6-3-2-.5-4-.9-6-.9-8.6-.2-14.1 4.2-15.8 12.7-.9 4.6-.7 9.2.4 13.7.6 2.5.6 2.5 3.1 2.7 5.6.4 11.2-.1 16.7-1.1.7-.1 1.4-.3 2.1-.3 1.4.1 2 1.2 1.3 2.4-.3.6-.9 1.1-1.3 1.7-3.4 3.8-7.4 6.9-11.8 9.4-.4.2-.9.3-.9.8s.5.7.9.8c2.7 1.2 5.3 1.3 7.9-.3 1-.7 2.1-1.4 3.1-2.1 2.4-1.7 4.8-1.7 7.2 0 .8.6 1.6 1.1 2.4 1.7 3.5 2.3 7 2.1 10.3-.5 2-1.6 3.4-3.6 4.6-5.8 2.7-5.5 4.1-11.2 4.2-19z" />
	<path fill="#FFF3A2"
		d="M427.5 764c3.9.1 7.8-.5 11.6-1.3 1-.2 2.1-.5 3.1-.8.3-.1.5-.2.4-.5 0-.1-.3-.1-.5-.1h-.8c-20.4-.4-39.1-6.3-55.9-17.9-.2-.2-.4-.3-.6-.5-.2-.2-.5-.3-.7 0-.1.1.1.3.2.5.4.5.8 1 1.2 1.4 11.2 12.6 25.3 18.7 42 19.2z" />
	<path fill="#FFF"
		d="M457.1 772.2c0 .3.3.3.5.3h1.6c.4 0 1.1.1 1.1-.3 0-.6-.6-.7-1.2-.8-.6-.1-1.2 0-1.7.4-.1 0-.2.2-.3.4z" />
	<path fill="#151D38"
		d="M899.7 455.8c-66 0-119.5-53.5-119.5-119.5 0-65.9 53.3-119.2 119.3-119.4 65.9-.2 119.5 53.4 119.5 119.4s-53.5 119.4-119.3 119.5zm116-119.5c0-64.1-52.2-116.1-116.2-116.1-62.9 0-115.9 50.7-116 116-.1 65.5 53.2 116.2 116 116.2 64.2-.1 116.2-52 116.2-116.1zM583.6 286.2H607.5c1.8.2 2.4 1.1 1.6 2.7-.7 1.4-1.5 2.8-2.4 4.1-5.9 8.1-13.7 12.8-23.9 12.6-9.6-.2-16.9-4.7-22.3-12.5-.8-1.2-1.5-2.4-2.2-3.7-1.1-2.2-.6-3.2 1.9-3.2 2-.1 4.1 0 6.1 0 5.8.1 11.6.1 17.3 0z" />
	<path fill="#FFF"
		d="M583.6 289.5s0 .1 0 0H563.3c-.8 0-.9.4-.5 1l.6.9c9.8 14.5 30.8 14.4 40.5-.3.3-.4.8-.8.6-1.4-.3-.6-.9-.3-1.4-.3-6.5.1-13 .1-19.5.1z" />
	<path fill="#E5384A"
		d="M630.1 306.6c-5.7 0-10.3-4.7-10.3-10.4.1-5.6 4.6-10.1 10.2-10.2 5.7-.1 10.4 4.6 10.4 10.2.1 5.8-4.6 10.4-10.3 10.4zM540.1 306.7c-5.8 0-10.4-4.5-10.4-10.2 0-5.7 4.6-10.4 10.3-10.3 5.6 0 10.2 4.5 10.3 10.1.1 5.6-4.5 10.3-10.2 10.4z" />
	<path fill="#151D38"
		d="M659.6 311c-1 0-2.3-.1-3.4-.7-.7-.4-1.2-1.1-.9-2 .3-.9 1-1.2 1.9-1.1.5.1 1 .3 1.5.4 3.4.6 6.7-1.7 7.3-5 .6-3.2-1.5-6.4-4.8-7.2l-1.8-.3c-.8-.2-1.2-.8-1.1-1.6 0-.8.6-1.3 1.3-1.5.5-.1 1.1-.1 1.6 0 5.1.7 8.6 5 8.3 10.3-.4 4.9-4.6 8.7-9.9 8.7zM615.1 286c-3 0-5.4-2.3-5.4-5.3s2.5-5.5 5.6-5.5c3 .1 5.3 2.5 5.3 5.5-.1 3-2.4 5.3-5.5 5.3zM557.5 280.6c0 3.1-2.3 5.4-5.3 5.4s-5.4-2.2-5.5-5.2c-.1-3.1 2.3-5.6 5.4-5.6 3.1.1 5.4 2.4 5.4 5.4zM583.6 273.6c.7 0 1.3.3 1.5.9.2.7.2 1.4-.5 1.9-.8.5-1.7 1-2.5 1.4-.6.3-.7.7-.1 1.2s1.3.9 1.9 1.4c.9.7 1.2 1.6.6 2.5-.6.9-1.5.8-2.3.3-1.8-1.2-3.5-2.3-5.2-3.6-1.1-.8-1.2-2-.1-2.6 2-1.2 4.2-2.2 6.3-3.3.1-.1.3-.1.4-.1zM627.6 277.6c0 .2 0 .6-.2 1.1-.2.7-.7 1-1.4 1.1-.8.1-1.4-.3-1.6-1-.2-.5-.2-1-.3-1.6-.4-2.8-1.9-4.5-4.6-5.2-2-.5-2.6-1.1-2.4-2.2.3-1.2 1.4-1.5 3.4-1 4.1.9 7.1 4.5 7.1 8.8zM539.7 277.2c.1-4.3 3.7-8.2 8-8.6 1.1-.1 2 0 2.3 1.2.3 1-.2 1.8-1.8 2.1-3.2.6-5 2.5-5.2 5.8-.1 1.2-.4 2.1-1.8 2.2-1-.1-1.5-1-1.5-2.7zM624 476.4c-13.6 0-24.5-10.9-24.5-24.5s11-24.6 24.5-24.6c13.6 0 24.5 11 24.6 24.5-.1 13.6-11 24.6-24.6 24.6zm9.9-16.7h-2.4c-1.1 0-1.9.4-2.1 1.6-.1 1 .7 1.7 2.1 1.9.5.1 1.1 0 1.6.1.3 0 .7 0 .9.4.1.4-.2.7-.5.9-1.5 1.3-3.6 1.2-5.1-.2-1.4-1.3-1.7-3.5-.6-5.1 1.1-1.6 3.1-2.3 4.9-1.4.6.3 1 .7 1.6 1 .8.5 1.6.3 2.1-.4.6-.7.5-1.5-.1-2.2-.2-.3-.5-.5-.8-.7-2.5-2-6.3-2-8.9 0-2.6 2-3.6 5.5-2.5 8.6 1.2 3.2 4.3 5 7.9 4.7 3.1-.3 5.8-2.8 6.4-5.9.4-2.3-.3-3.1-2.6-3.2-.6-.1-1.3-.1-1.9-.1zm-5.2-25.8h-2.9c-1.8.1-2.3.5-2.3 2.2-.1 1.9-.1 3.7 0 5.6.1 1.9 1 2.4 2.8 1.7.3-.1.6-.4.9-.5 1.6-.6 3 0 3.8 1.5.7 1.3.4 2.8-.8 3.8-1.3 1-2.9.9-4.1-.3-.4-.4-.7-1-1.1-1.5-.6-.5-1.3-.6-2-.2-.7.4-1 1-.8 1.8.1.5.4 1 .7 1.4 1.6 2.4 4.7 3.4 7.5 2.5 2.9-1 4.6-3.8 4.4-6.8-.3-2.9-2.5-5.4-5.4-5.8-.5-.1-1.1-.1-1.6-.1-.6 0-1-.2-1-.9 0-.8.4-1.1 1.1-1.1h3.7c1.1 0 1.9-.3 2.1-1.5.1-1.1-.6-1.7-2.1-1.8h-2.9zm-16.8 27.5v5.6c0 1 .5 1.7 1.6 1.7s1.6-.6 1.8-1.6c.1-.6 0-1.2.1-1.9 0-.5 0-1.1.2-1.6.2-.4.6-.7.9-.9.6-.2.7.4.9.8.6 1.4 1.2 2.8 1.9 4.1.5.9 1.3 1.2 2.2.9 1-.4 1.2-1.3.8-2.2-.3-.9-.6-1.9-1.2-2.7-1.7-2.6-1.9-5 .9-7 .8-.6 1.1-1.6.3-2.6-.7-.8-1.8-.7-2.8.2-1 .9-1.8 1.9-2.8 2.9-.4.4-.7 1-1.2.8-.2-.1-.2-.8-.2-1.2 0-.4 0-.7-.1-1.1-.2-1-.7-1.6-1.8-1.6s-1.6.7-1.7 1.7c.2 2 .2 3.8.2 5.7zm8.1-18.3v-6.9c0-.8-.1-1.7-1-2-.9-.4-1.7 0-2.4.7-.7.8-1.6 1.4-2.2 2.3-1.1 1.3-.7 2.6 1 2.9 1.2.2 1.2.7 1.2 1.6v8.2c0 1.4.7 2.2 1.7 2.2s1.6-.8 1.6-2.3c.1-2.3.1-4.5.1-6.7zm-9.8 1.7h1.6c1 0 1.7-.6 1.7-1.6 0-1.1-.6-1.6-1.6-1.7-1-.1-1.9 0-2.9 0s-1.7.6-1.7 1.6.6 1.6 1.7 1.7h1.2zM655.2 751c0 3.8-3.1 7-6.8 7-3.8 0-6.9-3.1-7-6.9 0-3.9 3-6.9 6.9-6.9 3.8 0 6.9 3 6.9 6.8zm-3.4 0c0-2-1.7-3.6-3.6-3.5-1.9 0-3.5 1.7-3.5 3.6 0 1.9 1.7 3.6 3.6 3.5 2 0 3.6-1.6 3.5-3.6zM600.9 758c-3.8 0-6.9-3.1-6.8-7 0-3.9 3-6.8 6.9-6.8 3.8 0 6.9 3.1 6.9 6.9 0 3.8-3.2 7-7 6.9zm3.6-6.9c0-2-1.5-3.6-3.5-3.6-1.9 0-3.6 1.6-3.6 3.5s1.6 3.6 3.5 3.6c1.9.1 3.5-1.5 3.6-3.5zM901.2 306.9c0 5.7.1 11.4 0 17 0 1.7.5 2.4 2.1 3 4.1 1.5 6.5 5.3 6.4 9.5-.1 4.1-2.6 7.7-6.4 9.2-5.1 2-10.7-.4-12.9-5.4-2.2-5-.1-10.7 4.8-13.1.5-.2 1-.5 1.5-.6 1.1-.2 1.3-.9 1.3-1.9V315v-25.3c0-.7 0-1.4.1-2.1.1-.9.7-1.4 1.6-1.4.9 0 1.5.5 1.6 1.5v1.9c-.1 5.8-.1 11.6-.1 17.3zM953.9 333.3c1.3 0 2.7-.1 4 0 1.8.1 2.3.8 2.2 2.6-.4 5.4-4.8 9.7-10.3 10-5.3.3-10.2-3.5-11.1-8.8-.8-4.3 1-8.8 4.6-11.1 3.9-2.5 7.9-2.5 11.8-.2.7.4 1.3.9 1.8 1.5.6.7.6 1.5.1 2.2-.6.7-1.4.8-2.1.3-.7-.4-1.3-1-2-1.4-3.7-2.1-8.3-.7-10.3 3.1-1.9 3.6-.5 8.1 3.1 10.1 3.6 1.9 8.2.6 10.1-3 .9-1.6.7-2-1.1-2h-5.1c-1.1 0-2-.3-2-1.6 0-1.2.9-1.7 2-1.7h4.3zM919.5 335.1v-7.7c0-.6 0-1.3.1-1.9.2-.7.6-1.3 1.5-1.3 1 0 1.6.5 1.7 1.3.2 1.3 0 2.7.2 4 .1 1.1-.6 2.7.5 3.1.8.3 1.5-1.2 2.2-2 1.9-1.9 3.7-3.8 5.5-5.8.4-.4.7-.8 1.1-1.1.7-.6 1.5-.7 2.2 0 .7.6.8 1.5.2 2.2-.7.9-1.5 1.7-2.3 2.6-3.2 3.3-3.2 3.3-1.3 7.6.9 2 1.8 4 2.7 6.1.2.4.4.8.5 1.2.3.9.3 1.8-.8 2.3-1.1.5-1.9-.1-2.3-1.1-.3-.6-.5-1.1-.8-1.7-1-2.3-2.1-4.7-3.1-7-.4-.8-.7-1.1-1.5-.3-1.9 1.7-3.4 3.6-2.9 6.4.1.8.1 1.6 0 2.4-.1.9-.6 1.5-1.6 1.5-1.1 0-1.7-.6-1.7-1.6-.1-1.5 0-3 0-4.5-.1-1.7-.1-3.2-.1-4.7zM831.2 406.5c-1.5-.1-2.2-1.3-1.6-2.3.3-.5.8-1 1.2-1.4 2.2-2.3 4.5-4.5 6.8-6.8.4-.4.9-.9 1.4-1.2.6-.4 1.2-.2 1.7.3s.7 1 .5 1.7c-.2.6-.7 1-1.1 1.5l-7.1 7.1c-.7.6-1.2 1.2-1.8 1.1zM861.4 427.1c-1 .1-1.8-.8-1.7-1.9.1-.6.4-1.2.6-1.7l3.9-9c.7-1.6 1.6-2.1 2.5-1.6 1.2.7 1 1.7.6 2.8-1.4 3.3-2.9 6.7-4.3 10-.3.6-.7 1.3-1.6 1.4zM868.1 258.2c0 .7-.4 1.2-1 1.4-.7.3-1.5.2-1.9-.5-1.9-3.9-3.6-7.9-5.1-12-.3-.7.2-1.4.9-1.7.7-.3 1.4-.2 1.9.5.3.5.6 1.1.8 1.7 1.2 2.8 2.4 5.7 3.6 8.6.5.6.8 1.3.8 2zM977.8 368.5c.3.1.8.3 1.3.5 3.1 1.3 6.2 2.7 9.3 4l1.2.6c.8.5.9 1.3.5 2.1-.3.7-1 1-1.8.8-.4-.1-.8-.3-1.2-.4-3.1-1.3-6.2-2.7-9.3-4-.5-.2-1-.5-1.4-.8-.5-.4-.7-1-.5-1.7.3-.8.9-1.2 1.9-1.1zM969.9 267.6c.1.7-.3 1.2-.8 1.6l-7.9 7.9c-.8.8-1.6 1.2-2.6.5-.8-.6-.8-1.7.2-2.8l8.1-8.1c.6-.6 1.4-.8 2.2-.4.5.2.7.7.8 1.3zM810.2 375c-1-.1-1.6-.4-1.7-1.2-.2-.8 0-1.4.7-1.8.7-.4 1.4-.7 2.2-1 2.5-1.1 5.1-2.1 7.6-3.1l1.5-.6c1-.3 1.8-.2 2.2.8.4 1 0 1.7-.9 2.2-.2.1-.3.2-.5.2-3.3 1.4-6.7 2.8-10 4.2-.4.2-.9.2-1.1.3zM932.7 412.8c.7 0 1.3.4 1.6 1.1 1.6 3.7 3.2 7.3 4.7 11 .4.9.2 1.8-.8 2.2-1 .4-1.8 0-2.2-.9-1.6-3.7-3.2-7.3-4.6-11-.6-1.2.1-2.3 1.3-2.4zM990.8 299.3c0 .7-.4 1.2-1 1.4-3.7 1.5-7.4 3-11 4.6-1 .4-1.8.1-2.2-.8-.5-1 0-1.8.9-2.2 3.7-1.6 7.5-3.2 11.3-4.6 1.1-.5 2.1.4 2 1.6zM937.9 245.5c1-.1 2 .9 1.7 1.9-1.5 4.1-3.2 8-5.1 11.9-.3.7-1.2.7-1.9.5-.8-.3-1-.9-.9-1.7.1-.3.2-.7.3-1 1.4-3.3 2.9-6.7 4.3-10 .2-.8.7-1.4 1.6-1.6zM810.8 296.1l.9.3c3.3 1.4 6.7 2.9 10 4.3.3.1.6.3.9.5.7.5.9 1.1.6 1.9-.3.8-.9 1.1-1.7 1-.4 0-.9-.2-1.3-.3-3.3-1.4-6.5-2.8-9.7-4.2-.4-.2-.8-.4-1.1-.7-.5-.5-.6-1.1-.4-1.7.4-.8 1-1.1 1.8-1.1zM901.2 427.4v5.6c0 1.1-.4 2-1.6 2-1.2 0-1.7-.8-1.7-1.9v-11.7c0-1 .5-1.7 1.6-1.7 1.3 0 1.7.8 1.7 1.9v5.8zM990.7 338h-5c-.5 0-1.1 0-1.6-.2-.8-.3-1.4-.9-1.2-1.8.1-.8.7-1.2 1.5-1.3.6-.1 1.2-.1 1.9-.1h10.1c1.1 0 2 .3 2 1.6 0 1.2-.9 1.6-2 1.7h-1.3c-1.6.1-3 .1-4.4.1zM808.6 338h-4.8c-.5 0-1.1 0-1.6-.1-.8-.2-1.4-.8-1.3-1.8.1-.8.6-1.3 1.4-1.4.5-.1 1.1-.1 1.6-.1h10c1.1 0 2.2.1 2.3 1.6.1 1.1-.8 1.7-2.5 1.8-1.6.1-3.3 0-5.1 0zM901.2 245.4v5.3c0 1.1-.1 2.2-1.5 2.3-1.1.1-1.7-.6-1.7-2.2v-11.1c0-1.1.4-1.9 1.6-2.1 1.1-.1 1.7.6 1.7 2.1 0 2-.1 3.8-.1 5.7zM830.9 266.1c.7-.1 1.2.3 1.6.7 2.6 2.6 5.3 5.2 7.9 7.9 1 1.1 1.1 2.1.3 2.8-1 .8-1.8.4-2.6-.4L830 269c-.5-.5-.9-1.1-.6-1.9.3-.6.8-1 1.5-1zM959.5 394.7c.7 0 1.2.4 1.6.8 2.6 2.6 5.3 5.2 7.9 7.9 1.1 1.1 1.1 2.1.3 2.7-.9.8-1.8.4-2.6-.3l-8.1-8.1c-.6-.6-.8-1.4-.4-2.2.3-.5.8-.7 1.3-.8z" />
	</svg>