<svg id="Layer_5" data-name="Layer 5" xmlns="http://www.w3.org/2000/svg" viewBox="0 0 4000 4000"><defs><style>.cls-1{fill:#fff;}.cls-2{fill:#b3e8f4;}.cls-3{fill:#91d1e5;}.cls-4{fill:#db1d1d;}.cls-5{fill:#ea3232;}.cls-6{fill:#d8600e;}.cls-7{fill:#fcb924;}.cls-8{fill:#632978;opacity:0.22;}.cls-9{opacity:0.12;}.cls-10{fill:#ffc19f;}.cls-11{fill:#ed3a3a;}.cls-12{fill:#992020;}.cls-13{fill:#d3dae5;}.cls-14{fill:#68445d;}.cls-15{fill:#442d3e;}.cls-16{fill:#966b8b;}.cls-17,.cls-38{opacity:0.37;}.cls-18{fill:#13bcb8;}.cls-19,.cls-47,.cls-49{opacity:0.19;}.cls-20{fill:#008c93;}.cls-21{fill:#ff6d00;}.cls-22{fill:#e03f19;}.cls-23{fill:#6d0f03;opacity:0.16;}.cls-24{fill:#f4b18c;}.cls-25{fill:#e0956c;}.cls-26{fill:#822a08;}.cls-27{fill:#461d14;}.cls-28{fill:#f9feff;}.cls-29{fill:#9b4734;}.cls-30{fill:#772508;}.cls-31{fill:#fefffe;}.cls-32{fill:#701608;}.cls-33{fill:#dd6b5b;}.cls-34{fill:#c4735b;}.cls-35{fill:#ff9797;}.cls-36{fill:#ef3d06;}.cls-37{fill:#032d2d;}.cls-38{fill:#020000;}.cls-39{fill:#ff5b00;}.cls-40{fill:#2d8f91;}.cls-41{fill:#19555b;}.cls-42{fill:#205a60;}.cls-43{fill:#001d26;}.cls-44{fill:#ffba0d;}.cls-45{fill:#912406;opacity:0.18;}.cls-46{fill:#ff9d00;}.cls-47{fill:#7a1704;}.cls-48{fill:#5b0505;opacity:0.29;}.cls-49{fill:#601805;}.cls-50{fill:#934341;}.cls-51{fill:#aa3900;}.cls-52{fill:#a03518;}.cls-53{fill:#6d1e06;}.cls-54{fill:#992805;}.cls-55{fill:#994e37;}.cls-56{fill:#f4f2f2;}.cls-57{fill:#f29d77;}</style></defs><rect class="cls-1" width="4000" height="4000"/><rect class="cls-2" x="1923.63" y="184.84" width="417.99" height="3477.75" transform="translate(4265.25 3847.43) rotate(180)"/><path class="cls-1" d="M2265.9,2853.37h-104c-4.21,0-7.61-4.46-7.61-10s3.4-9.95,7.61-9.95h104c4.2,0,7.6,4.45,7.6,9.95S2270.1,2853.37,2265.9,2853.37Z"/><path class="cls-1" d="M2265.9,2773.72h-104c-4.21,0-7.61-4.45-7.61-10s3.4-10,7.61-10h104c4.2,0,7.6,4.45,7.6,10S2270.1,2773.72,2265.9,2773.72Z"/><path class="cls-1" d="M2265.9,2694.07h-104c-4.21,0-7.61-4.45-7.61-10s3.4-10,7.61-10h104c4.2,0,7.6,4.45,7.6,10S2270.1,2694.07,2265.9,2694.07Z"/><path class="cls-1" d="M2265.9,3092.31h-104c-4.21,0-7.61-4.45-7.61-10s3.4-9.95,7.61-9.95h104c4.2,0,7.6,4.45,7.6,9.95S2270.1,3092.31,2265.9,3092.31Z"/><path class="cls-1" d="M2265.9,3012.66H2101.06c-4.2,0-7.6-4.45-7.6-9.95s3.4-10,7.6-10H2265.9c4.2,0,7.6,4.46,7.6,10S2270.1,3012.66,2265.9,3012.66Z"/><path class="cls-1" d="M2265.9,2933h-104c-4.21,0-7.61-4.46-7.61-10s3.4-10,7.61-10h104c4.2,0,7.6,4.46,7.6,10S2270.1,2933,2265.9,2933Z"/><path class="cls-1" d="M2265.9,3251.61h-104c-4.21,0-7.61-4.46-7.61-10s3.4-10,7.61-10h104c4.2,0,7.6,4.46,7.6,10S2270.1,3251.61,2265.9,3251.61Z"/><path class="cls-1" d="M2265.9,3172h-104c-4.21,0-7.61-4.45-7.61-10s3.4-9.95,7.61-9.95h104c4.2,0,7.6,4.45,7.6,9.95S2270.1,3172,2265.9,3172Z"/><path class="cls-1" d="M2265.9,3490.55h-104c-4.21,0-7.61-4.45-7.61-10s3.4-10,7.61-10h104c4.2,0,7.6,4.45,7.6,10S2270.1,3490.55,2265.9,3490.55Z"/><path class="cls-1" d="M2268,3410.91H2148.22c-3.06,0-5.53-4.46-5.53-10s2.47-10,5.53-10H2268c3.06,0,5.53,4.45,5.53,10S2271,3410.91,2268,3410.91Z"/><path class="cls-1" d="M2265.9,3331.26h-104c-4.21,0-7.61-4.46-7.61-10s3.4-10,7.61-10h104c4.2,0,7.6,4.45,7.6,10S2270.1,3331.26,2265.9,3331.26Z"/><path class="cls-1" d="M2265.9,2056.89h-104c-4.21,0-7.61-4.46-7.61-10s3.4-10,7.61-10h104c4.2,0,7.6,4.45,7.6,10S2270.1,2056.89,2265.9,2056.89Z"/><path class="cls-1" d="M2265.9,1977.24h-104c-4.21,0-7.61-4.45-7.61-10s3.4-10,7.61-10h104c4.2,0,7.6,4.45,7.6,10S2270.1,1977.24,2265.9,1977.24Z"/><path class="cls-1" d="M2265.9,1897.6h-104c-4.21,0-7.61-4.46-7.61-10s3.4-10,7.61-10h104c4.2,0,7.6,4.45,7.6,10S2270.1,1897.6,2265.9,1897.6Z"/><path class="cls-1" d="M2265.9,2295.83h-104c-4.21,0-7.61-4.45-7.61-9.95s3.4-10,7.61-10h104c4.2,0,7.6,4.45,7.6,10S2270.1,2295.83,2265.9,2295.83Z"/><path class="cls-1" d="M2265.9,2216.19H2101.06c-4.2,0-7.6-4.46-7.6-10s3.4-10,7.6-10H2265.9c4.2,0,7.6,4.46,7.6,10S2270.1,2216.19,2265.9,2216.19Z"/><path class="cls-1" d="M2265.9,2136.54h-104c-4.21,0-7.61-4.46-7.61-10s3.4-9.95,7.61-9.95h104c4.2,0,7.6,4.45,7.6,9.95S2270.1,2136.54,2265.9,2136.54Z"/><path class="cls-1" d="M2265.9,2455.13h-104c-4.21,0-7.61-4.45-7.61-10s3.4-10,7.61-10h104c4.2,0,7.6,4.45,7.6,10S2270.1,2455.13,2265.9,2455.13Z"/><path class="cls-1" d="M2265.9,2375.48h-104c-4.21,0-7.61-4.45-7.61-9.95s3.4-10,7.61-10h104c4.2,0,7.6,4.45,7.6,10S2270.1,2375.48,2265.9,2375.48Z"/><path class="cls-1" d="M2265.9,2614.42H2101.06c-4.2,0-7.6-4.45-7.6-10s3.4-10,7.6-10H2265.9c4.2,0,7.6,4.45,7.6,10S2270.1,2614.42,2265.9,2614.42Z"/><path class="cls-1" d="M2265.9,2534.77h-104c-4.21,0-7.61-4.44-7.61-9.95s3.4-10,7.61-10h104c4.2,0,7.6,4.46,7.6,10S2270.1,2534.77,2265.9,2534.77Z"/><path class="cls-1" d="M2265.9,1260.41h-104c-4.21,0-7.61-4.45-7.61-10s3.4-10,7.61-10h104c4.2,0,7.6,4.45,7.6,10S2270.1,1260.41,2265.9,1260.41Z"/><path class="cls-1" d="M2265.9,1180.76h-104c-4.21,0-7.61-4.45-7.61-10s3.4-10,7.61-10h104c4.2,0,7.6,4.45,7.6,10S2270.1,1180.76,2265.9,1180.76Z"/><path class="cls-1" d="M2265.9,1101.11h-104c-4.21,0-7.61-4.45-7.61-9.95s3.4-10,7.61-10h104c4.2,0,7.6,4.45,7.6,10S2270.1,1101.11,2265.9,1101.11Z"/><path class="cls-1" d="M2265.9,1499.35h-104c-4.21,0-7.61-4.45-7.61-9.95s3.4-10,7.61-10h104c4.2,0,7.6,4.46,7.6,10S2270.1,1499.35,2265.9,1499.35Z"/><path class="cls-1" d="M2265.9,1419.71H2101.06c-4.2,0-7.6-4.46-7.6-10s3.4-10,7.6-10H2265.9c4.2,0,7.6,4.45,7.6,10S2270.1,1419.71,2265.9,1419.71Z"/><path class="cls-1" d="M2265.9,1340.06h-104c-4.21,0-7.61-4.45-7.61-10s3.4-9.95,7.61-9.95h104c4.2,0,7.6,4.45,7.6,9.95S2270.1,1340.06,2265.9,1340.06Z"/><path class="cls-1" d="M2265.9,1658.65h-104c-4.21,0-7.61-4.45-7.61-10s3.4-10,7.61-10h104c4.2,0,7.6,4.45,7.6,10S2270.1,1658.65,2265.9,1658.65Z"/><path class="cls-1" d="M2265.9,1579h-104c-4.21,0-7.61-4.45-7.61-10s3.4-10,7.61-10h104c4.2,0,7.6,4.46,7.6,10S2270.1,1579,2265.9,1579Z"/><path class="cls-1" d="M2265.9,1818H2101.06c-4.2,0-7.6-4.46-7.6-10s3.4-10,7.6-10H2265.9c4.2,0,7.6,4.46,7.6,10S2270.1,1818,2265.9,1818Z"/><path class="cls-1" d="M2265.9,1738.3h-104c-4.21,0-7.61-4.46-7.61-10s3.4-10,7.61-10h104c4.2,0,7.6,4.46,7.6,10S2270.1,1738.3,2265.9,1738.3Z"/><path class="cls-1" d="M2265.9,463.93h-104c-4.21,0-7.61-4.45-7.61-9.95s3.4-10,7.61-10h104c4.2,0,7.6,4.45,7.6,10S2270.1,463.93,2265.9,463.93Z"/><path class="cls-1" d="M2265.9,384.29h-104c-4.21,0-7.61-4.46-7.61-10s3.4-10,7.61-10h104c4.2,0,7.6,4.46,7.6,10S2270.1,384.29,2265.9,384.29Z"/><path class="cls-1" d="M2265.9,304.64h-104c-4.21,0-7.61-4.46-7.61-10s3.4-10,7.61-10h104c4.2,0,7.6,4.46,7.6,10S2270.1,304.64,2265.9,304.64Z"/><path class="cls-1" d="M2265.9,702.88h-104c-4.21,0-7.61-4.46-7.61-10s3.4-10,7.61-10h104c4.2,0,7.6,4.46,7.6,10S2270.1,702.88,2265.9,702.88Z"/><path class="cls-1" d="M2265.9,623.23H2101.06c-4.2,0-7.6-4.46-7.6-10s3.4-9.95,7.6-9.95H2265.9c4.2,0,7.6,4.45,7.6,9.95S2270.1,623.23,2265.9,623.23Z"/><path class="cls-1" d="M2265.9,543.58h-104c-4.21,0-7.61-4.45-7.61-10s3.4-10,7.61-10h104c4.2,0,7.6,4.45,7.6,10S2270.1,543.58,2265.9,543.58Z"/><path class="cls-1" d="M2265.9,862.17h-104c-4.21,0-7.61-4.45-7.61-9.95s3.4-10,7.61-10h104c4.2,0,7.6,4.45,7.6,10S2270.1,862.17,2265.9,862.17Z"/><path class="cls-1" d="M2265.9,782.53h-104c-4.21,0-7.61-4.46-7.61-10s3.4-10,7.61-10h104c4.2,0,7.6,4.46,7.6,10S2270.1,782.53,2265.9,782.53Z"/><path class="cls-1" d="M2265.9,1021.47H2101.06c-4.2,0-7.6-4.45-7.6-10s3.4-10,7.6-10H2265.9c4.2,0,7.6,4.45,7.6,10S2270.1,1021.47,2265.9,1021.47Z"/><path class="cls-1" d="M2265.9,941.82h-104c-4.21,0-7.61-4.45-7.61-10s3.4-10,7.61-10h104c4.2,0,7.6,4.45,7.6,10S2270.1,941.82,2265.9,941.82Z"/><rect class="cls-3" x="2259.3" y="184.84" width="82.33" height="3477.75" transform="translate(4600.92 3847.43) rotate(180)"/><path class="cls-4" d="M768,2686.47c294.37,147.07,595.83-19.41,635.92-56-52.66-326.9,34.14-428.95-36.27-610.7-51-1.17-405.63,10-505.47,29-51,3.25-95.41,40.19-101.07,105C752.6,2251.73,764,2496.11,768,2686.47Z"/><path class="cls-5" d="M761.87,2155.42a146.4,146.4,0,0,1,7.5-37.34c12.44-35.78,57.29-39.13,75.31-6.44,8.65,15.69,14.68,34.37,17.23,55.92C874.62,2275,873,2510,875.41,2722.89a559.4,559.4,0,0,1-105.35-44.74C765.14,2482,754.36,2256.24,761.87,2155.42Z"/><polygon class="cls-6" points="808.66 2354.41 768.3 2355.07 768.3 2323.76 808.66 2323.11 808.66 2354.41"/><path class="cls-6" d="M832.86,2386.71l-88.19,1.43v-11.4c-.08-9.41,7.76-17.16,17.58-17.32l52.67-.86c9.81-.15,17.87,7.34,17.94,16.76Z"/><path class="cls-7" d="M841.87,2443c-.07-9.15,5.21-16.92,12.92-21.27v-25.36c-.08-10.9-9.48-19.6-20.85-19.41l-89.86,1.45c-11.37.19-20.42,9.18-20.33,20.09v25.36c7.77,4.1,13.38,11.68,13.46,20.83A23.84,23.84,0,0,1,724.78,2466v150c.09,10.91,10,19.61,21.35,19.42L836,2634a19.87,19.87,0,0,0,19.84-20.09v-150C848.05,2459.78,841.94,2452.19,841.87,2443Z"/><path class="cls-7" d="M815.53,2326.39l-54,.88v-.69c-.09-11.45,9.51-20.89,21.44-21.08l10.81-.18c11.93-.19,21.69,8.94,21.78,20.38Z"/><path class="cls-7" d="M839.89,2366.76,738,2368.41v-16.48c-.08-9.41,7.75-17.16,17.56-17.32l66.4-1.08c9.81-.16,17.89,7.34,18,16.75Z"/><path class="cls-8" d="M852.09,2694.32c-37.5-9.64-88.58-29.89-126.37-47.43-1.48-58.55-2.45-154.83-2.45-154.83s90.88,15.48,149.08-16.51C872.82,2546.33,859.05,2646.94,852.09,2694.32Z"/><path class="cls-5" d="M869.21,2724.32a1056.11,1056.11,0,0,1-152.75-39c-.65-60.5-2.11-123.89-3.32-185.25-.1-4.71,8.42-10.8,11.81-6.31,9,12,60,23.43,147.72,5.27C871.67,2572.2,870,2649.69,869.21,2724.32Z"/><ellipse class="cls-9" cx="1217.73" cy="3667.91" rx="567.66" ry="37.33"/><path class="cls-10" d="M1064.89,3564.15c-.73,4.53-171.05-14.82-170.89-20.38,1.35-48.32,12.27-145.12,13.57-173.1l182,20.52C1080.66,3438.52,1070.11,3531.43,1064.89,3564.15Z"/><path class="cls-1" d="M1080.11,3582.64c-.49,2.77-197.88-10.19-198.13-13.6-2.19-29.65,2.89-89,2.22-106.17l210.87,13.75C1089.65,3508.26,1083.59,3562.59,1080.11,3582.64Z"/><path class="cls-11" d="M859.57,3525.14c2.74-10,8.41-22.72,12.8-34.33,3.26-8.61,87.54-7.23,87.77,13.47a126.27,126.27,0,0,1-.59,14.22c14.42.14,30.05,0,46.57-.63,35.9-1.31,68.09-4.23,90.67-7.83,1.47,32.75-1.4,89.44-.07,125.83,0,0-376,70.39-435.22,15.86C644.8,3636.36,739.2,3568.09,859.57,3525.14Z"/><path class="cls-12" d="M1096.39,3613.05c0,8.1.08,15.89.33,22.82,0,0-376,70.39-435.22,15.86-2.35-2.17-2.46-5.4-.64-9.45C764.6,3664.79,1002.91,3628.79,1096.39,3613.05Z"/><path class="cls-13" d="M884.45,3556.5a5.26,5.26,0,0,0,4.4,2.09,5.2,5.2,0,0,0,3-1.06,5.27,5.27,0,0,0,1-7.37c-14.6-19.35-40-29.46-61.89-24.72a5.27,5.27,0,0,0,2.27,10.29C851.19,3531.69,872.25,3540.31,884.45,3556.5Zm-26.57,12.84a5.23,5.23,0,0,0,4,1.65,5.32,5.32,0,0,0,3.43-1.43,5.26,5.26,0,0,0,.2-7.44c-16.64-17.61-39.37-26.25-62.39-23.54a5.25,5.25,0,0,0-4.62,5.83,5.13,5.13,0,0,0,5.82,4.62C815.92,3547.69,838.24,3548.58,857.88,3569.34Zm-89.58-10a5.17,5.17,0,0,0,6.07,4.29c17.51-3.26,40.56,5.32,55.86,20.27a5.23,5.23,0,0,0,3.87,1.5,5.26,5.26,0,0,0,3.49-9c-17.58-17.17-44.26-26.71-65-23.11A5.25,5.25,0,0,0,768.3,3559.3Z"/><path class="cls-10" d="M1365.1,3564.15c.72,4.53,171-14.82,170.89-20.38-1.35-48.32-12.27-145.12-13.58-173.1l-182,20.52C1349.33,3438.52,1359.87,3531.43,1365.1,3564.15Z"/><path class="cls-1" d="M1349.88,3582.64c.48,2.77,197.88-10.19,198.13-13.6,2.18-29.65-2.89-89-2.23-106.17l-210.87,13.75C1340.34,3508.26,1346.4,3562.59,1349.88,3582.64Z"/><path class="cls-11" d="M1570.41,3525.14c-2.74-10-8.41-22.72-12.8-34.33-3.26-8.61-87.53-7.23-87.77,13.47a123.8,123.8,0,0,0,.6,14.22c-14.43.14-30.06,0-46.58-.63-35.9-1.31-68.09-4.23-90.66-7.83-1.47,32.75,1.39,89.44.06,125.83,0,0,376,70.39,435.22,15.86C1785.18,3636.36,1690.79,3568.09,1570.41,3525.14Z"/><path class="cls-12" d="M1333.6,3613.05c0,8.1-.08,15.89-.34,22.82,0,0,376,70.39,435.22,15.86,2.35-2.17,2.47-5.4.65-9.45C1665.39,3664.79,1427.07,3628.79,1333.6,3613.05Z"/><path class="cls-13" d="M1596.75,3535.73a5.27,5.27,0,0,0,2.26-10.29c-21.84-4.74-47.28,5.37-61.88,24.72a5.26,5.26,0,1,0,8.4,6.34C1557.74,3540.31,1578.8,3531.69,1596.75,3535.73Zm28.9,13.3a5.13,5.13,0,0,0,5.83-4.62,5.26,5.26,0,0,0-4.63-5.83c-23-2.71-45.74,5.93-62.39,23.54a5.26,5.26,0,1,0,7.65,7.22C1591.75,3548.58,1614.06,3547.69,1625.65,3549Zm31.75,4.2c-20.75-3.6-47.43,5.94-65,23.11a5.26,5.26,0,0,0,3.49,9,5.2,5.2,0,0,0,3.87-1.5c15.31-15,38.36-23.53,55.86-20.27a5.17,5.17,0,0,0,6.08-4.29A5.26,5.26,0,0,0,1657.4,3553.23Z"/><path class="cls-14" d="M891.53,3386.2c28.52,7.54,163.56,15.62,201.07,16.14,5.82-76.29,49.89-418.42,72.84-533.18,5.69-28.44,72.06-30.34,79.65-.63,4.69,18.35,71.51,429.14,92,538.48,60.53,3.29,146.38-9.08,198.81-22.09,0,0-46.77-745.19-52.66-859.09-102-11.52-447.36-11.41-557,1.33C907.38,2644.83,905.08,3217.86,891.53,3386.2Z"/><path class="cls-15" d="M1487.06,2595a95.42,95.42,0,0,0,3.19,190.8c2.74,0,5.31-.58,8-.8C1493.82,2710.63,1489.88,2643.91,1487.06,2595Z"/><path class="cls-15" d="M919.68,2595c-3.24,49.23-5.87,116-8.19,190.3,1.82.1,3.54.54,5.39.54a95.44,95.44,0,0,0,2.8-190.84Z"/><rect class="cls-16" x="1315.83" y="3353.82" width="237.23" height="77.24" transform="translate(3116.07 6669.4) rotate(175.76)"/><rect class="cls-16" x="873.14" y="3353.13" width="237.24" height="77.24" transform="translate(253.78 -64.11) rotate(4.24)"/><path class="cls-17" d="M1494.88,2728.39c-5.06-85.54-10.25-174.69-11.69-202.56-102-11.52-447.36-11.42-557,1.33-6,37.63-9.59,121.39-13.13,228.53C1086.37,2812.69,1308.25,2815.65,1494.88,2728.39Z"/><path class="cls-10" d="M1317.58,2263.09l101.28-113.56c9.08,6.42,234.93,347.12,259.34,368.8,5.45,4.85-82,80-88,75.71C1544.74,2561.25,1333.88,2295.64,1317.58,2263.09Z"/><path class="cls-18" d="M1558.75,2249.12c-43.26,35.11-117.87,83.2-163.62,98-63.35-77.66-116.6-314.8-118.07-322.85,41.66,1.54,95,6.17,112.59,15.24C1422.74,2076.36,1499.92,2175.46,1558.75,2249.12Z"/><path class="cls-10" d="M1832.23,2642.27c-19.07-10.53-43-49.44-64.9-58.49a12.86,12.86,0,0,0-2.56-.21c30.25,33.91,47,64.13,60.34,98.7,12.67,32.74-18.51,27.28-39.22-2.78-13.37-19.4-25.1-43.51-51.81-71,20.17,37.29,34.48,64.64,42.55,92.51,8.29,28.63-16.57,36.49-32.12,12.15-12.25-19.18-32.28-58.32-55.75-91.22-3.18-1.81,32.07,83.84,24.28,103.11-8.94,5.18-26-2.52-36.82-28.72-5.86-14.17-9.54-31.32-26.21-60.62-22-17.5-50.36-23.09-61.35-27.85-37.47-21.81-12.14-77.39-3.83-86.22,21.57-22.95,103.7-26.74,136.49-10.85,55,26.65,83.32,38.55,134.32,119.55C1860.13,2649.09,1841.52,2647.39,1832.23,2642.27Z"/><path class="cls-19" d="M1657.6,2528.92c-8.85,16.25,2.57,39.55,25.51,52s48.71,9.43,57.56-6.82-2.58-39.55-25.52-52S1666.44,2512.67,1657.6,2528.92Z"/><path class="cls-10" d="M1643.1,2515.58c-6.31,11.57,10.51,32.89,37.56,47.62s54.09,17.28,60.39,5.7-10.52-32.9-37.57-47.63S1649.4,2504,1643.1,2515.58Z"/><path class="cls-18" d="M891.84,2735.35c158.53,78,494.8,33,631.65-73.7,0,0-105.55-504.51-138.15-620.39-137.23-18.54-240.7-28.58-491,24C888.83,2216.68,894.78,2512.08,891.84,2735.35Z"/><path class="cls-18" d="M691.62,2199.21c23.33,44.08,98.56,141.63,142.93,165.45,41.24-30.28,142-92.18,144.59-97.65,45.7-97.89,62.51-223.9,62.61-229-99,15.57-159.25,28.13-178.3,37.79C827.83,2097.34,774.66,2137.89,691.62,2199.21Z"/><path class="cls-20" d="M1317,2043.81c-.07-7.63-1.71-12.45-3.93-19.57-78.44-1.07-196,1.11-279.33,12.29-.46,3.31-1.69,6.46-1.66,9.88.54,59,64.75,106.27,143.43,105.55S1317.56,2102.83,1317,2043.81Z"/><path class="cls-10" d="M1272.76,1888.42l4.29,167.07c.92,35.93-44,66.23-100.31,67.68s-102.73-26.52-103.66-62.44l-4.28-167.07Z"/><path class="cls-5" d="M906.51,2565.41c0-8.14,3.82-55.34,3.82-55.34,93.85-158.83,65.28-363.33,19.75-454.83l49.07-10C1024.05,2166.13,1058.62,2432.5,906.51,2565.41Z"/><path class="cls-21" d="M838.75,2270.92c-77.59,154.44-15.29,342.55,139.15,420.14s342.55,15.3,420.15-139.14,15.3-342.56-139.15-420.16S916.35,2116.47,838.75,2270.92Z"/><path class="cls-22" d="M851.22,2257.54c71.73,79.92,156,146.67,247.37,202.88,57.26,35.25,117.35,71.53,181.61,92.19,11.51-19.05,22.19-38.86,32.29-59,.47-.95.92-1.92,1.39-2.88-23.49-14.68-44.46-37.3-59.19-54.92-37.75-45.16-50-101.79-80.91-150.78-40.29-63.84-89.54-128.68-157.85-163.66a13.93,13.93,0,0,1-4.75-3.93q8.9-3.25,18-5.95c74.09,41.3,132,117,172.44,189.95,24.87,44.86,36.43,93.61,71.25,133.08,13.9,15.76,29.91,31.66,48.2,40.9,48.38-109.2,51.57-243.86-39.57-331.09a311.71,311.71,0,0,1,35.8,25.41c61.5,80.87,71.11,189.45,35.66,287.25q-4.67,12.86-9.91,25.72a64.38,64.38,0,0,0,31-2.86c29.31-10,48.51-47.12,56.16-74.1a5.2,5.2,0,0,1,1.12-2.06,311,311,0,0,1-4.51,61.27c-16.14,22.37-38.77,40-66,40.78a69.79,69.79,0,0,1-25.63-4.52,607.3,607.3,0,0,1-29.73,58.56c26.76,6.67,54.38,10.45,82.7,10-4,6.78-8,13.37-12.41,19.75a345.18,345.18,0,0,1-80.33-13.06,457,457,0,0,1-49.15,65c15,7.41,28.45,18.19,40,34.07-3,1.91-6.1,3.73-9.18,5.54-9.71-16.52-23.37-25.69-38.93-31.06-31.22,32.11-67.6,58.11-109.5,74.21a311.22,311.22,0,0,1-61-4c58.12-11,104.3-38.77,142.46-76.34-13.29-1.66-27-2.24-40.25-3.34-39.18-3.27-78.59-4.78-117.91-4.8-74.35,0-139.75-15.33-197.94-57-4.41-7-8.49-14.17-12.33-21.46,50,41.34,110.12,61.24,175.46,61.63,41.95.25,83.69.48,125.59,3.43,28.57,2,55.07,3.56,78.72,9.88,17.95-19.36,34-40.89,48.79-63.74-62.74-21.79-121.72-57.29-177.79-91.81-93.45-57.54-179.16-125.84-253-207.17,2.59-5.09,5.32-10.08,8.14-15A14.76,14.76,0,0,1,851.22,2257.54Z"/><path class="cls-10" d="M913,2575.77c7,4.49,65.2-74.56,58.73-79.81C874.89,2417.44,741.15,2267,717.5,2240.45c0,0-83.18,78.1-55.58,142.43C687.85,2443.3,735,2462,913,2575.77Z"/><path class="cls-23" d="M1306.49,1976a73.36,73.36,0,0,0,.36-21.58c-74-15.66-186-33.23-267-38.22-1.06,3-2.81,5.8-3.42,9-10.51,55.94,41.41,112.64,116,126.66S1296,2032,1306.49,1976Z"/><path class="cls-10" d="M1041.88,2643c-31.94-11.85-66.82-28.77-128.35-64.87-44.53-26.12-37-66.42-20.07-87.84,9.75-12.31,88.55-58.26,114.86-58.76,17.36-.33,52.56.43,54.83,3.81,11,16.33-12.8,29.55-41.65,31.27-8.43,1.28-15.92,4-25.5,13.76-.87,6.55,55.48.77,79.75,3,19.38,1.75,65.59,28.63,65.81,35,.54,15.65-43.08,4.05-61.19.91-6.29-1.1-25.74,1-37.68,4,13,7,38.91,14.13,48,18.13,17.54,7.71,58.13,19.38,58.67,32.59.42,10.3-27.16,8.63-59.71,1-7.9-1.85-37.42-7.87-56.79-11.23-.29.77,41.15,20.14,47.51,21.46,18.87,3.91,45,6.88,49.13,25.78,1.12,5.17-43.22,7.55-62.3,1.84-8.52-2.55-27.55-7.43-49.59-15.66,11.47,7.74,34.29,19.35,39.14,21.73,29.39,1.58,41.08,3.23,44.42,17.35C1102.22,2640.59,1057.1,2648.64,1041.88,2643Z"/><path class="cls-5" d="M1479.71,2436.26c-15.22-110.7-120.59-353.77-148.11-412l39.63,2.49c24.24,48,135.25,252.11,114.16,371C1482.45,2414.34,1479.71,2436.26,1479.71,2436.26Z"/><path class="cls-24" d="M1596.23,1656.17c-4.54,93-51.88,162.11-93,163.06s-56.88-70.65-59.21-158.62,29.15-160.28,70.32-161C1570.57,1498.6,1600.49,1568.76,1596.23,1656.17Z"/><path class="cls-25" d="M1544.58,1704.48c-10.54,36.6-36,58.21-57,48.24s-29.37-47.74-18.82-84.35,36-58.21,57-48.25S1555.1,1667.85,1544.58,1704.48Z"/><path class="cls-26" d="M1475,1445.33c40.75,285.46-119.25,439.32-369,475S654.77,1853.67,614,1568.2,747,1190.3,996.7,1154.66,1434.21,1159.86,1475,1445.33Z"/><path class="cls-10" d="M1424.27,1298.69c10.56,7.61,16.85,19.75,18.22,48.85,10.38,220.71,61.29,237,80.52,371.71,18.92,132.57-53,226-157.75,265.27C1263,2022.87,988,2075.83,804.58,1827.29c-77.82-105.48-109.26-344.4-98-393.16,38.09-164.67,123.4-160.81,326.56-189.81C1223.18,1217.2,1304.39,1212.43,1424.27,1298.69Z"/><path class="cls-26" d="M820.12,1586.65c27.11,83.25,42.77,153.09-10.07,209.56-61.63,65.88-154.66-118-174-253.74s62.41-250,236.89-262.84C962.86,1273,747.36,1363.23,820.12,1586.65Z"/><path class="cls-27" d="M1445.6,1472a10.25,10.25,0,0,0,5.55-18.44c-32.93-24.74-88.51-27.66-132.22-7a10.26,10.26,0,0,0,8.77,18.55c36.58-17.34,84.37-15.3,111.11,4.81A10.2,10.2,0,0,0,1445.6,1472Z"/><path class="cls-27" d="M924.8,1556a12.16,12.16,0,0,0,7.32-5.34c21.39-33.93,74-56.69,122.35-52.92a12.29,12.29,0,1,0,1.93-24.5c-57.7-4.56-118.75,22.54-145.07,64.3A12.28,12.28,0,0,0,924.8,1556Z"/><path class="cls-10" d="M622.69,1838.44c44.95,86,147,122.75,211.56,98.27s60-102.53,27.78-187.94-110.78-135-175.29-110.32C598.55,1672.21,580.44,1757.64,622.69,1838.44Z"/><path class="cls-25" d="M735.8,1844c24.05,37.44,72.31,45.33,89.55,30.76,19.38-16.38,14.67-40.29-1.43-78.44-18.83-44.54-44.56-66.23-74.34-49.9C718.61,1763.39,707.48,1799.93,735.8,1844Z"/><path class="cls-28" d="M1332.54,1715s99.83,25.09,129.3-38.89c35.91-78-38.74-127.56-81.49-111.2C1340.79,1580.06,1308.65,1626.31,1332.54,1715Z"/><path class="cls-29" d="M1458.21,1582.37c-20.8-24.38-45.58-29.93-71.06-23.86-26.05,6.21-50.21,31.56-55.09,55.37,11.19-27.49,34.57-39.79,49.36-45.44,23.55-9,56.89.18,74.24,24.54,15.42,21.68,18.39,56.55,5.21,85.16C1478,1657.74,1479.87,1607.77,1458.21,1582.37Z"/><path class="cls-30" d="M1366.29,1619.91c-7.4,26.78,5,56,27.76,65.27s47.16-4.92,54.56-31.7-5-56-27.76-65.27S1373.69,1593.13,1366.29,1619.91Z"/><path class="cls-31" d="M1369.35,1611.57c-2.06,7.43,1.39,15.54,7.7,18.11s13.08-1.36,15.14-8.8-1.4-15.54-7.7-18.1S1371.4,1604.14,1369.35,1611.57Z"/><path class="cls-28" d="M1156.49,1736.3s-112.41,50.87-164-5.43c-62.92-68.62,13.17-137.44,68.32-132.15C1111.79,1603.62,1162,1641.51,1156.49,1736.3Z"/><path class="cls-29" d="M972.54,1636.27c18.46-29.73,46.56-41.68,78.47-42.2,32.63-.53,68,18.55,79.93,41.07-20.44-24.57-51.47-30.81-70.55-32.64-30.38-3-67.7,14.89-82.07,43.71-12.77,25.65-7.29,61.25,15.8,86.43C968.45,1716.68,953.3,1667.25,972.54,1636.27Z"/><path class="cls-30" d="M1029.22,1664.18a52.83,52.83,0,1,0,64.74-37.29A52.82,52.82,0,0,0,1029.22,1664.18Z"/><path class="cls-31" d="M1032.49,1655.34a14.66,14.66,0,1,0,18-10.34A14.66,14.66,0,0,0,1032.49,1655.34Z"/><path class="cls-32" d="M1382.26,1782.41c-9.88-28.56-53.92-14.42-127.72-4.25-3.86.54-18.86,2.7-22.72,3.29-73.65,11.16-119.89,10.08-121.27,40.26-2.67,58.14,77.45,109.64,152.36,99l1.3-.18C1339.05,1909.5,1401.29,1837.41,1382.26,1782.41Z"/><path class="cls-33" d="M1264.36,1921.74l-1.29.19c-24.3,3.42-50.48.17-75.77-9.32l-1.54-.55,1-1.25c16.93-20.26,41.75-33.66,69.87-37.73s55.69,1.76,77.71,16.38l1.37.9-1.32,1C1312.82,1907.6,1288.59,1918.14,1264.36,1921.74Z"/><path class="cls-1" d="M1248.65,1817.53c-51.52,7.46-96.72-2.3-105.15-22.73l-.5-1.25,200.18-29-.13,1.34C1340.71,1787.91,1300.13,1810.08,1248.65,1817.53Z"/><path class="cls-34" d="M1280,1744.56a3.62,3.62,0,0,1-3.89-2.59c-3.53-12.27-14.36-19.2-27.58-17.66s-22.45,11-22.78,23.44a3.62,3.62,0,0,1-7.24-.19c.42-16,12.42-28.49,29.18-30.44s30.88,7.24,35.38,22.84a3.62,3.62,0,0,1-2.48,4.48Z"/><path class="cls-26" d="M1223.85,1068.68c-193.68-35.6-257-44.35-443.58,123.82-11.93,10.76,24.82,66.33-25.89,56.77-36.56-2.11-98.81,52.28-111,125.33-12.44,74.5-1.23,171,33.23,185.61S763.2,1525,793,1449c15.07-38.42,21.54-76.14,19.83-106C840.41,1373.14,880,1404,927,1430c106.86,59.06,212,71,234.83,26.59,5.3-10.3,5.64-22.77,1.79-36.52,5.8.91,11.64,1.78,17.53,2.57,195,26.2,362.69-31.79,374.47-129.5S1374.1,1096.32,1223.85,1068.68Z"/><path class="cls-35" d="M929.67,1810.83c.36,18.26,27.56,32.54,60.78,31.89s59.84-16,59.49-34.23-27.58-32.54-60.78-31.9S929.32,1792.57,929.67,1810.83Z"/><path class="cls-35" d="M1419.4,1767c2.5,15.59,26,24.78,52.47,20.53s45.9-20.35,43.4-36-26-24.78-52.47-20.52S1416.89,1751.41,1419.4,1767Z"/><polygon class="cls-24" points="2585.51 2631.05 2520.81 2631.05 2495.86 2611.15 2610.39 2480.51 2585.51 2631.05"/><rect class="cls-36" x="2808.12" y="2280.47" width="219.19" height="80.49"/><ellipse class="cls-9" cx="2937.87" cy="3667.91" rx="516.6" ry="37.33"/><path class="cls-37" d="M3110.8,2936.35c0,35.42,24.16,65.23,57.64,76.32,8.42-61,15.27-115.81,19-156.44C3144.44,2860.67,3110.8,2894.54,3110.8,2936.35Z"/><path class="cls-37" d="M2683.65,2855.4c-2.91,41.82-5.28,98.52-7.36,161.68,1.63.09,3.18.47,4.84.47,47.46,0,85.93-36.36,85.93-81.2C2767.06,2892.33,2729.91,2856.69,2683.65,2855.4Z"/><path class="cls-38" d="M3175.21,2962.33c9.5-77.31,15.37-138,16.35-164.2-91.72-9.78-402.29-9.7-500.92,1.13-5.4,32-8.11,74.75-11.29,165.79C2845.26,3019,3007.38,3036.47,3175.21,2962.33Z"/><path class="cls-39" d="M2517.53,2556c35.3,28.57,130.15,103.8,161,110,47.62-77.87,169.51-328.57,170.61-333.06-75.93,7.68-145,15.73-163.6,20.45C2658.39,2381.31,2590.33,2470.78,2517.53,2556Z"/><path class="cls-10" d="M2801.67,3576c-.66,4.07-153.82-13.33-153.68-18.33,1.21-43.45,11-130.5,12.21-155.66l163.63,18.45C2815.84,3463,2806.37,3546.55,2801.67,3576Z"/><path class="cls-1" d="M2815.35,3592.59c-.43,2.5-177.94-9.16-178.17-12.22-2-26.67,2.61-80,2-95.48l189.62,12.37C2823.93,3525.71,2818.48,3574.56,2815.35,3592.59Z"/><path class="cls-40" d="M2617,3540.89c2.46-9,7.56-20.43,11.51-30.87,2.93-7.74,78.71-6.51,78.92,12.11a111.37,111.37,0,0,1-.53,12.79c13,.13,27,0,41.88-.57,32.29-1.18,61.23-3.8,81.54-7,1.31,29.45-1.26,80.43-.07,113.15,0,0-338.09,63.3-391.37,14.26C2423.9,3640.91,2508.79,3579.5,2617,3540.89Z"/><path class="cls-41" d="M2830,3619.94c0,7.28.07,14.3.29,20.52,0,0-338.09,63.3-391.37,14.26-2.12-1.95-2.21-4.85-.57-8.5C2531.63,3666.47,2745.94,3634.09,2830,3619.94Z"/><path class="cls-13" d="M2639.41,3569.09a4.73,4.73,0,1,0,7.56-5.7c-13.14-17.41-36-26.49-55.65-22.23a4.74,4.74,0,0,0,2,9.25C2609.5,3546.78,2628.43,3554.53,2639.41,3569.09Zm-23.9,11.55a4.73,4.73,0,1,0,6.88-6.5c-15-15.83-35.41-23.6-56.11-21.16a4.73,4.73,0,0,0-4.16,5.24,4.62,4.62,0,0,0,5.24,4.15C2577.78,3561.17,2597.85,3562,2615.51,3580.64Zm-80.55-9a4.66,4.66,0,0,0,5.46,3.86c15.74-2.94,36.47,4.78,50.23,18.23a4.74,4.74,0,0,0,6.62-6.78c-15.81-15.42-39.8-24-58.45-20.77A4.71,4.71,0,0,0,2535,3571.61Z"/><path class="cls-10" d="M3060.08,3576c.65,4.07,153.81-13.33,153.68-18.33-1.22-43.45-11-130.5-12.22-155.66l-163.62,18.45C3045.9,3463,3055.38,3546.55,3060.08,3576Z"/><path class="cls-1" d="M3046.39,3592.59c.44,2.5,177.94-9.16,178.17-12.22,2-26.67-2.6-80-2-95.48l-189.62,12.37C3037.81,3525.71,3043.26,3574.56,3046.39,3592.59Z"/><path class="cls-40" d="M3244.71,3540.89c-2.46-9-7.56-20.43-11.51-30.87-2.93-7.74-78.72-6.51-78.93,12.11a111.21,111.21,0,0,0,.54,12.79c-13,.13-27,0-41.89-.57-32.28-1.18-61.23-3.8-81.53-7-1.32,29.45,1.26,80.43.06,113.15,0,0,338.09,63.3,391.37,14.26C3437.84,3640.91,3353,3579.5,3244.71,3540.89Z"/><path class="cls-41" d="M3031.75,3619.94c0,7.28-.07,14.3-.3,20.52,0,0,338.09,63.3,391.37,14.26,2.12-1.95,2.22-4.85.58-8.5C3330.12,3666.47,3115.81,3634.09,3031.75,3619.94Z"/><path class="cls-13" d="M3268.39,3550.41a4.74,4.74,0,0,0,2-9.25c-19.63-4.26-42.51,4.82-55.64,22.23a4.73,4.73,0,1,0,7.55,5.7C3233.31,3554.53,3252.25,3546.78,3268.39,3550.41Zm26,12a4.63,4.63,0,0,0,5.25-4.15,4.74,4.74,0,0,0-4.17-5.24c-20.69-2.44-41.14,5.33-56.1,21.16a4.73,4.73,0,1,0,6.87,6.5C3263.89,3562,3284,3561.17,3294.38,3562.37Zm28.55,3.78c-18.65-3.24-42.65,5.35-58.45,20.77a4.73,4.73,0,0,0,6.61,6.78c13.77-13.45,34.5-21.17,50.23-18.23a4.67,4.67,0,0,0,5.47-3.86A4.72,4.72,0,0,0,3322.93,3566.15Z"/><path class="cls-42" d="M2642.05,3452.15c24.62,6.41,151.9,14.88,184.28,15.32,5-64.81,40-341.2,59.81-438.69,4.91-24.17,62.21-25.78,68.76-.54,4,15.58,60.31,351.93,77.95,444.83,50.91-2.24,132.21-10.24,177.48-21.29,0,0-44.8-600.48-49.88-697.25-88-9.79-386.21-9.7-480.89,1.13C2663.35,2855.63,2657.11,3297.54,2642.05,3452.15Z"/><path class="cls-43" d="M3181.31,2813.32c-46.1,1.45-83.07,37-83.07,80.92,0,44.83,38.47,81.19,85.94,81.19,2.46,0,4.77-.49,7.18-.69C3187.38,2911.54,3183.85,2854.85,3181.31,2813.32Z"/><path class="cls-43" d="M2674,2813.28c-2.8,41.82-5.07,98.52-7.07,161.69,1.57.08,3.06.46,4.65.46,45.56,0,82.5-36.36,82.5-81.19C2754.05,2850.21,2718.38,2814.57,2674,2813.28Z"/><path class="cls-38" d="M3169.48,2905.58c-4.36-72.68-7.73-129.85-9-153.54-88.06-9.79-386.21-9.69-480.9,1.14-5.18,32-8.9,106.51-12,197.54C2796.83,2998.71,3008.36,2979.72,3169.48,2905.58Z"/><path class="cls-39" d="M2647,2901.05c136.89,77.39,386.52,77.65,552.14.39,0,0-34.62-443.9-56-546-115-30.3-329.41-21.44-434.72-4C2693.24,2481.78,2664.73,2708.64,2647,2901.05Z"/><path class="cls-10" d="M3014.09,2208.85l1.37,155.84c.3,33.51-60.6,48.38-121.55,60.49-19.16-10-68.4-25.31-68.7-58.81l-1.37-155.84Z"/><path class="cls-44" d="M3253.25,2974.43c4.61,47.57-131.12,118-305.79,93.53-4.57-.65-27.57-7.56-29.89-10.5-15-72.79-47.28-209.11-62.12-290.24,6.7-1.31,24.93-15.47,30.66-15.8,189.83-11,279-30.49,299.58-40.21C3208.86,2824.72,3249.53,2936.09,3253.25,2974.43Z"/><path class="cls-45" d="M3185.69,2711.21c-17.84,9.77-107,56.93-290.16,71.11,0,0,24.45,147.22,72.34,187.44,145.2,57,268.69,16.3,275.17-43.79C3225.41,2863.71,3205.6,2775.72,3185.69,2711.21Z"/><path class="cls-44" d="M3191.25,2702.47c-17.84,9.78-120.37,34.45-303.51,48.63,0,0,35.43,165.72,83.32,205.94,191.81,63.88,282.34-34.56,288.82-94.65C3230.15,2805.73,3212.63,2761.4,3191.25,2702.47Z"/><path class="cls-46" d="M2952.1,3067.66c-10.12,1.86-51.13-.53-61.37-13.12l-39.23-290.88c12.83-3,29.46-12.56,36.24-12.56,0,0,25.24,138.35,33.06,184.6C2935.76,3024.14,2952.1,3067.66,2952.1,3067.66Z"/><path class="cls-47" d="M3068,2888.86c24.44-15.55,113.72-72.55,156.24-101.34-9.57-22.58-21.5-50-26.51-59.21-10.3-8.5-121-27.52-143-23.24-14.48,2.82-45.64,13.63-45.76,17.1-.58,16.92,31.26,19.46,31.23,22.7,0,2.47-7.51,2.49-31.2,10.68-15.64,5.41-53.33,41.37-52.37,46.7,2.34,13.11,48.14-6.55,48.33,1.35.11,4.56-49.75,35.63-45.49,46,4.66,11.36,27.77,4.53,37.79,1.16.38.59-16.75,17.91-12.71,26,3.71,7.43,33.82-2.78,28.69,6.74C3000.88,2906.43,3056.34,2896.27,3068,2888.86Z"/><path class="cls-10" d="M3118.23,2830.08c-5.5,3.52-51.06-58.39-46-62.5,75.82-61.48,190.37-196,208.88-216.78,0,0,49.41,69.58,28.65,120.31C3294.94,2707.33,3257.57,2741,3118.23,2830.08Z"/><path class="cls-39" d="M3334.43,2561.4c-35.29,28.57-143.41,99.15-174.23,105.32-47.62-77.87-146.78-326.24-147.88-330.73,76.1,6.94,122.78,11.17,140.87,18.12C3191.88,2385,3259.92,2456.64,3334.43,2561.4Z"/><path class="cls-46" d="M2768.55,2341.33c-6.84-.16-36.83,4.08-43,4.32,22.46,227.37,131.26,427.54,141.57,443.19l29.2-26.59C2885.54,2745.86,2788.36,2557.67,2768.55,2341.33Z"/><path class="cls-48" d="M2777.89,2341.71,2770,2460.27l71.7-42.46s31.75,4,52.23,7.37c-50.46-29-73.71-76.39-90.86-144.7Zm116,83.47c20.64,1,68.48,8.94,68.48,8.94l74.62,47.12,15.1-138.24-24.8-62.53C3009,2348.49,2955.14,2407.92,2893.91,2425.18Z"/><path class="cls-39" d="M2893.91,2425.18c-16.15-3.75-52.66-25-52.66-25L2788,2448.28l-10.1-106.57,25.16-61.23C2820.2,2348.79,2843.45,2396.16,2893.91,2425.18Z"/><path class="cls-39" d="M2893.91,2425.18c20.64,1,70.28-10.4,70.28-10.4l52.73,51L3052.11,2343l-24.8-62.53C3009,2348.49,2955.14,2407.92,2893.91,2425.18Z"/><path class="cls-49" d="M3053,2211.74c-1.7-7.68-4.94-14.64-8.7-21.33-79.23,15.69-196.58,45.47-278.15,74.56.25,3.44-.32,6.87.44,10.31,13.16,59.32,87.94,93.19,167,75.64S3066.16,2271.06,3053,2211.74Z"/><path class="cls-50" d="M2888,2179.79a6.8,6.8,0,0,0,5.1-2.17,5.31,5.31,0,0,0-1-8.11c-31.1-21.88-107.15-26-139.3-.06a5.29,5.29,0,0,0-.4,8.14,7.22,7.22,0,0,0,9.21.36c26.79-21.61,95.84-18.07,122.39.59A7.09,7.09,0,0,0,2888,2179.79Z"/><path class="cls-24" d="M2470.82,1981c.69,80.35,59,145.58,113,151.5s78.78-53.58,86.82-128.8-29.22-141.19-83.28-146.93C2513.49,1848.91,2470.18,1905.41,2470.82,1981Z"/><path class="cls-51" d="M2544,1745.49c-31.25,270.83,132.95,413.21,382.57,442s446.75-71.89,478-342.72S3260,1489.93,3010.4,1461.14,2575.27,1474.67,2544,1745.49Z"/><path class="cls-10" d="M2593.06,1579.28c-11.38,15.64-8.27,86.13-13.47,131.18-17.32,150.13-32.75,236-47.39,305.07-40.09,189.22,129.75,267.3,239.94,287,14.73,2.63,354,69.37,434.67-174.86,42.94-130,105.32-301.29,92.81-352.24-42.29-172-91-253.81-297.38-277.62C2809.19,1475.5,2682.72,1456,2593.06,1579.28Z"/><path class="cls-10" d="M3381.92,2136.32c-41.67,74.26-143.64,106.36-210.43,85.48s-65.78-88.18-37-161.93,107.62-122.54,176.74-112.25C3416.86,1963.36,3421.09,2066.51,3381.92,2136.32Z"/><path class="cls-25" d="M3294.68,2127.89c-23,40.12-67.19,52.43-82.49,39.19-17.18-14.89-12.21-39.57,3.57-79.71,18.44-46.87,42.51-71.17,69.18-57.25C3312.66,2044.59,3321.75,2080.68,3294.68,2127.89Z"/><path class="cls-35" d="M2983.47,2122.56c-1.88,16.27,20.28,32.2,49.5,35.56s54.41-7.09,56.29-23.35-20.29-32.2-49.49-35.57S2985.34,2106.29,2983.47,2122.56Z"/><path class="cls-35" d="M2542.53,2067.38c-1.57,13.63,15,26.75,37.11,29.3s41.23-6.45,42.8-20.09-15-26.75-37.1-29.3S2544.1,2053.74,2542.53,2067.38Z"/><path class="cls-28" d="M3085.54,2000.58c-.16,41.54-43.5,75.05-96.8,74.85s-96.4-34-96.24-75.58,43.49-75,96.8-74.85S3085.69,1959,3085.54,2000.58Z"/><path class="cls-52" d="M3044,2062.14c24.07-13.41,38.06-38.73,38.15-61.58.15-39.58-39.24-73.7-90.57-73.87-25-.09-54.07,4.88-86.73,36.59,22.72-36.26,70.64-49,107.53-44,36.55,5,74.41,28.23,77.88,67.31C3093.25,2020.52,3070.68,2053.76,3044,2062.14Z"/><path class="cls-53" d="M3016.08,1977a53.59,53.59,0,1,1-65.71-37.74A53.58,53.58,0,0,1,3016.08,1977Z"/><path class="cls-31" d="M3012.75,1968a14.87,14.87,0,1,1-18.23-10.47A14.88,14.88,0,0,1,3012.75,1968Z"/><path class="cls-28" d="M2573.63,1941.52c-8.58,40.57,19.83,82.36,63.46,93.34s86-13,94.54-53.56-19.82-82.36-63.46-93.35S2582.22,1901,2573.63,1941.52Z"/><path class="cls-52" d="M2594.71,2010.31c-16.87-18.14-23-45.77-18.28-68.09,8.18-38.65,47.54-63.69,89.55-53.09,20.48,5.16,43.19,16.11,63.25,53.9-11-40.15-47.5-62.58-78.71-65.45-30.93-2.83-66.77,11.93-77.81,49.35C2563.15,1959.36,2574.63,1996.53,2594.71,2010.31Z"/><path class="cls-53" d="M2680.14,1935.63c6,28.38-8.79,58-33,66.26s-48.78-8.12-54.78-36.49,8.79-58,33-66.26S2674.14,1907.26,2680.14,1935.63Z"/><path class="cls-31" d="M2677.49,1926.75c1.66,7.87-2.44,16.1-9.17,18.38s-13.53-2.25-15.2-10.12,2.44-16.11,9.17-18.39S2675.82,1918.88,2677.49,1926.75Z"/><path class="cls-54" d="M2568.62,1787.58a10.7,10.7,0,0,0,7.5-1.44c29.73-18.39,79.62-16.06,116,5.39a10.72,10.72,0,0,0,10.87-18.47c-43.43-25.57-101.54-27.8-138.11-5.13a10.71,10.71,0,0,0,3.77,19.65Z"/><path class="cls-54" d="M3090.35,1838.64a12.44,12.44,0,0,0,9.05-3.07,10,10,0,0,0-.1-15.14c-34-30.57-97.45-42.14-150.89-27.41-6.28,1.73-9.74,7.71-7.75,13.37s8.65,8.87,14.94,7.13c44.77-12.32,99.36-2.88,127,22A12.58,12.58,0,0,0,3090.35,1838.64Z"/><path class="cls-55" d="M2762.3,2174.89c-19.54-5.07-33.66-17.31-38.74-34.1a5.71,5.71,0,0,1,10.94-3.3c4.67,15.42,19.92,25.85,40.6,28.13,22.65,2.4,51.55-6.09,65-30.47a5.71,5.71,0,1,1,10,5.53c-16,29-49.81,39.09-76.23,36.3A79.29,79.29,0,0,1,2762.3,2174.89Z"/><path class="cls-34" d="M2753.72,2071.86a3.79,3.79,0,0,0,4.07-2.71c3.67-12.81,15-20.05,28.76-18.46s23.46,11.42,23.81,24.44a3.78,3.78,0,0,0,7.56-.21c-.46-16.67-13-29.72-30.5-31.74s-32.23,7.59-36.91,23.88a3.79,3.79,0,0,0,2.6,4.68Z"/><path class="cls-51" d="M3377.33,1719.69c-40.8-80-82.21-128.27-130.35-121.76,2.61-8.58,4.39-17.27,4.38-26.12-.14-95.31-158.1-167-352.85-160.09s-352.56,89.7-352.44,185,158.12,167,352.85,160.11c120.63-4.27,227-37.71,290.51-85.17-5.32,42.82-8.49,267,9.85,324.65,85.72-91.73,149.91-34,161-32.75C3399.93,1968.16,3424.49,1812.16,3377.33,1719.69Z"/><path class="cls-51" d="M3206.87,1559.43c42.64-39.82,82-66.37,184.9-31.38C3332.35,1399.19,3255,1448.77,3206.87,1559.43Zm-52.4-193.3c52.23,22.18,73.16,65.27,83.28,115.1C3306.49,1390,3250.14,1315.73,3154.47,1366.13Z"/><path class="cls-10" d="M3064.46,2886.9c24.43-15.55,50.42-35.85,95.15-76.84,32.37-29.66,19-61.83,1-76.62-10.3-8.49-84-32.65-105.93-28.37-14.48,2.82-43.69,9.73-45,12.95-6.22,15.53,15.92,22.29,40.22,18.57,7.23-.43,13.94.46,23.65,6.89,1.9,5.29-46,10.54-65.78,16.69-15.8,4.91-49.44,35.51-48.49,40.83,2.34,13.12,36.56-4.31,51-10.16,5-2,21.58-3.75,32.05-3.39-9.56,8.14-29.84,18.69-36.7,23.64-13.21,9.54-44.89,26.49-43,37.56,1.5,8.65,24.13,2.34,49.84-9.8,6.24-3,29.71-13.22,45.22-19.47.38.59-30.63,24.09-35.68,26.32-15,6.62-36.22,13.75-36.25,30.2,0,4.5,37.27-1.43,52.13-9.58,6.63-3.64,21.58-11.09,38.44-21.87-8.16,8.48-25.07,22.2-28.67,25.05-24.16,6.55-33.59,10-33.84,22.35C3013.85,2895.67,3052.8,2894.31,3064.46,2886.9Z"/><path class="cls-56" d="M2909.83,2485.08a14.3,14.3,0,1,1-14.3-14.3A14.3,14.3,0,0,1,2909.83,2485.08Z"/><path class="cls-56" d="M2909.83,2558.06a14.3,14.3,0,1,1-14.3-14.3A14.3,14.3,0,0,1,2909.83,2558.06Z"/><path class="cls-10" d="M2749.56,2560.89c4.83-4.39-41.33-72.3-46.89-68.87-83.49,51.48-171,90-197.55,112.45-38.13,32.16,7.13,90.93,61,82.63C2604.69,2681.16,2627.33,2672.22,2749.56,2560.89Z"/><path class="cls-57" d="M2808.77,2496.83c-.8,10.32-13.83,17.73-29.12,16.55s-27-10.49-26.24-20.81,13.83-17.73,29.12-16.56S2809.56,2486.51,2808.77,2496.83Z"/><path class="cls-10" d="M2795.35,2436.15c-6.28-2.32-28.46-2.76-45.41-.83,41.41-18.06,57.34,10.45,60.3,2.42,3.1-8.42-3.72-27.56-15-31.71-7.94-2.93-38.64-4.05-57.16-1.52,30.64-17.15,56.38,1,56.89-7.31.54-8.95-9.55-20.69-21.2-23.55-16.12-4-69.54,9.88-75.95,19.93-7.32,11.5-16.32,59.89-17.8,100.92-1.72,47.71-7.78,84.55,21.15,91.59,54.75,13.31,53.89-43.54,49.35-80.88,42.92-24.81,52.34-5.29,56.66-2.67,4.63-7.67,1.11-29.42-17.4-36.13-4.84-1.75-19.11-2.42-33.15-1.77,35.69-15.44,48.68,10.19,51.54,2.43C2811.29,2458.66,2805.58,2439.92,2795.35,2436.15Z"/></svg>