<svg id="Layer_5" data-name="Layer 5" xmlns="http://www.w3.org/2000/svg" viewBox="0 0 4000 4000"><defs><style>.cls-1{fill:#fff;}.cls-2{fill:#c3c1e8;}.cls-3{fill:#deeaf9;}.cls-4{fill:#c9c9c9;}.cls-5{fill:#26abed;}.cls-6{fill:#a3a3a3;}.cls-7{fill:#2099ce;}.cls-8{opacity:0.22;}.cls-9{fill:#63cdf7;}.cls-10{fill:#eae4df;}.cls-11{fill:#752912;}.cls-12{fill:#ffc19f;}.cls-13{fill:#e0956c;}.cls-14{fill:#28afc6;}.cls-15{fill:#2a535e;}.cls-16{fill:#601805;opacity:0.19;}.cls-17{fill:#ff9797;}.cls-18{fill:#c4735b;}.cls-19{fill:#8c2f22;}.cls-20{fill:#f9feff;}.cls-21{fill:#773220;}.cls-22{fill:#63190d;}.cls-23{fill:#fefffe;}.cls-24{fill:#701608;}.cls-25{fill:#dd6b5b;}.cls-26{fill:#f9951e;}.cls-27{fill:#ffb8b6;}.cls-28{fill:#e08686;}.cls-29{fill:#773733;}.cls-30{fill:#8e4d4c;}.cls-31{fill:#fff0f0;}</style></defs><rect class="cls-1" width="4000" height="4000"/><path class="cls-2" d="M1861.3,294.36c-152.12-174.45-783.22-167.27-933-19.85C776.41,423.91,724.34,800.56,880.8,971.94c87.45,95.78,333.44,138.32,555.44,129.92,54.78,105.54,118.09,255.58,118.09,255.58s-3.66-149-10.2-264.08c131.59-16,248.72-52.18,314.26-109.17C2008.3,853.81,2041,500.39,1861.3,294.36Z"/><path class="cls-3" d="M1844.7,292.13c-148.45-171.34-756.85-153.27-903.07-8.48-148.18,146.73-194.89,503.53-42.2,671.86,85.34,94.07,313.8,138,530.45,129.73,53.46,103.67,121.81,241.72,121.81,241.72s-10.13-137-16.52-250.06c128.43-15.69,242.73-51.25,306.69-107.23C1988.17,841.62,2020,494.49,1844.7,292.13Z"/><path class="cls-1" d="M1393.94,390.73c-204.25,0-369.83,165.58-369.83,369.83v47.57h739.66V760.56C1763.77,556.31,1598.2,390.73,1393.94,390.73Z"/><path class="cls-4" d="M1515.09,454.22,1491.57,511c2.92,1.16,5.74,2.54,8.62,3.8L1523.72,458C1520.83,456.77,1518,455.39,1515.09,454.22Zm-56.73,46.33c3.05.76,6.11,1.48,9.11,2.35l15.92-59.38c-3-.85-6.07-1.58-9.12-2.35Zm95.11-28-30.75,53.25c2.75,1.53,5.36,3.26,8,4.9l30.75-53.25C1558.83,475.81,1556.21,474.08,1553.47,472.54ZM1352.11,433.7c-1.64.22-3.19.65-4.82.89l8,61c1.63-.24,3.18-.66,4.83-.88s3-.19,4.5-.36l-8-61C1355.11,433.51,1353.62,433.5,1352.11,433.7Zm37.55-2.53V492.7c1.65,0,3.24-.25,4.9-.25s3,.21,4.52.23V431.15c-1.53,0-3-.23-4.52-.23S1391.31,431.15,1389.66,431.17ZM1589.4,496l-37.46,48.82c2.52,1.88,5,3.84,7.41,5.8l37.46-48.82C1594.36,499.8,1591.92,497.84,1589.4,496Zm-164.94-1.54c3.12.36,6.25.67,9.34,1.13l8-60.94c-3.1-.46-6.22-.78-9.34-1.14Zm283.06,174.31-59.38,15.91c.84,3,1.6,6.07,2.34,9.13l59.38-15.91C1709.11,674.79,1708.36,671.74,1707.52,668.72Zm9.44,44.94c-.15-1.17-.46-2.27-.63-3.43l-61,8c.17,1.16.48,2.27.63,3.43.26,2,.26,3.94.48,5.92l61-8C1717.21,717.6,1717.22,715.65,1717,713.66Zm2.61,39H1658c0,1.17.18,2.3.18,3.48,0,2-.25,3.94-.3,5.93h61.53c0-2,.3-3.93.3-5.93C1719.74,754.93,1719.58,753.8,1719.57,752.63Zm-26.14-124-56.79,23.52c1.23,2.88,2.38,5.81,3.51,8.75l56.8-23.53C1695.8,634.43,1694.66,631.5,1693.43,628.62ZM1650.1,555.5l-48.78,37.43c1.94,2.46,4,4.81,5.9,7.34L1656,562.84C1654.12,560.31,1652,558,1650.1,555.5Zm-28.41-31.89-43.52,43.51c2.26,2.2,4.43,4.45,6.6,6.72l43.51-43.51C1626.1,528.07,1623.94,525.81,1621.69,523.61Zm52.41,67-53.25,30.75c1.61,2.69,3.37,5.28,4.88,8L1679,598.62C1677.46,595.86,1675.7,593.27,1674.1,590.57ZM1265.36,457.91l23.53,56.8c2.87-1.25,5.81-2.36,8.73-3.51l-23.53-56.8C1271.18,455.56,1268.23,456.67,1265.36,457.91Zm-186,219.6,59.39,15.91c.74-3.06,1.49-6.11,2.34-9.12l-59.38-15.91C1080.84,671.4,1080.09,674.46,1079.33,677.51Zm-7.56,41.81,61,8c.35-3.13.69-6.25,1.14-9.35l-61-8C1072.46,713.08,1072.12,716.2,1071.77,719.32Zm59.31,33.31h-61.53c0,1.17-.19,2.3-.19,3.48,0,2,.27,3.94.31,5.93h61.53c0-2-.29-3.93-.29-5.93C1130.91,754.93,1131.06,753.8,1131.08,752.63Zm96.25-275,30.74,53.25c2.69-1.63,5.31-3.35,8.06-4.89l-30.75-53.25C1232.64,474.25,1230,476,1227.33,477.59Zm-66.64,52.89L1204.21,574c2.17-2.27,4.33-4.54,6.58-6.74l-43.51-43.5C1165,525.94,1162.87,528.22,1160.69,530.48Zm-68.76,106.77,56.81,23.53c1.14-2.93,2.56-5.73,3.8-8.61l-56.82-23.53C1094.49,631.52,1093.09,634.33,1091.93,637.25ZM1305.39,443.6,1321.31,503c3-.86,6.06-1.58,9.11-2.34l-15.92-59.38C1311.46,442,1308.4,442.74,1305.39,443.6Zm-113,58.2,37.44,48.78c2.45-2,4.82-4,7.34-5.9l-37.43-48.78C1197.23,497.79,1194.87,499.85,1192.4,501.8Zm-82.36,97,53.25,30.74c1.51-2.76,3.28-5.34,4.89-8l-53.26-30.75C1113.33,593.43,1111.56,596,1110,598.77Zm23.2-35.83,48.82,37.45c1.86-2.53,3.7-5.06,5.65-7.53l-48.82-37.46C1137,557.87,1135.11,560.4,1133.24,562.94Z"/><path class="cls-5" d="M1394.2,769.44a8.42,8.42,0,0,1-7.81-5.25L1265.81,465a8.42,8.42,0,0,1,15.61-6.3L1402,757.9a8.44,8.44,0,0,1-4.66,10.92A8.32,8.32,0,0,1,1394.2,769.44Z"/><circle class="cls-6" cx="1393.54" cy="760.56" r="30.54"/><path class="cls-7" d="M2924.38,3773H1813.93a35.39,35.39,0,0,1-35.39-35.38V3622.81H2959.76v114.82A35.38,35.38,0,0,1,2924.38,3773Z"/><path class="cls-8" d="M1778.54,3653.32v-30.51H2959.76s1.95,14.83-11.65,21.77C2929.63,3654,1778.54,3653.32,1778.54,3653.32Z"/><path class="cls-9" d="M2801.34,3449.58H1937a18.53,18.53,0,0,0-13.8,6.17L1783.31,3612c-10.69,11.93-2.22,30.89,13.8,30.89H2941.2c16,0,24.48-19,13.8-30.89l-139.86-156.21A18.56,18.56,0,0,0,2801.34,3449.58Z"/><polygon class="cls-10" points="2457.12 3572.1 2281.18 3572.1 2246.62 3610.7 2491.68 3610.7 2457.12 3572.1"/><path class="cls-1" d="M2382.87,3572.1l-52.56,38.6h41.42l52.56-38.6Zm74.25,0h-18.65l-52.57,38.6h20.71l51.33-37.69Zm-144.56,0L2260,3610.7h20.71l52.57-38.6Z"/><path class="cls-8" d="M2800.86,3523.88c0,35.17-196.57,39.25-439.05,39.25s-439-4.08-439-39.25,196.57-63.67,439.05-63.67S2800.86,3488.72,2800.86,3523.88Z"/><path class="cls-11" d="M3087.79,1691.67c-16-10.34-64.25-46.41-47.73-134.37,6.13-32.57-16.17-44.45-35.84-55-26.83-14.32-50-26.68-23-84.1,33.82-71.77,17.2-134.72-43.35-164.3-46.93-22.9-96.23-67.89-136.94-123.58-15.36-31.85-27.58-62.41-36-85-262.87-54.26-706,57.17-841.14,109.2L1907.11,1133c-8.82,65.09-65.73,112.37-100.94,155.4-42.66,52.12-61.47,107.28-34.75,166,10.57,23.28,18.75,44,11.4,61.63-6.21,14.93-23.82,27.62-53.84,38.78-29.72,11-47.92,25.37-55.58,43.82-10.84,26,1.77,53.75,12.87,78.19,7.82,17.25,6.56,43.26,1.85,56.61-17.4,49.26-34.77,67.15-26.12,102-2.31-36.91,18.61-56.13,34.4-97.22,5.89-15.35,8.82-40.44-5.78-72.33-10.38-22.66-17.6-41.44-8.38-63.61,6.6-15.87,23-28.46,50.1-38.54,33.08-12.3,51.94-26.31,59.34-44.08,2.79-6.72,3.31-13.77,3-20.94,15.59,34.83,15.31,63.29-47.59,91.07-115.61,51.06-3.21,129.65-20.33,163.84-29.38,58.68-37.85,70-33.22,115.89,5.31,52.54,42.53,83.69,79.66,94.26.5-8.26-36.9-56.52-5-136.22,6.88,43.93,49.54,147.24,61.56,149.92,191.66,42.71,764.28,94.66,972.29-1.6,39.74-18.39,32.31-107.39,43.29-131.81,7.95-17.67,44.09,135.92,57.59,121.72,182.7-192,142.27-252.13,120.32-254.56-30.55-3.37-50-.94-16.53-139.8,16.24-67.34-109-32.71-58.43-140.19,30.34-64.43,17.07-119.37-41.12-157.94-20.39-13.53-39-34.15-56-57.54,27,20.67,54.41,38,80.37,50.71,56.16,27.41,72.9,80.19,41.1,147.7-30.92,65.68,1.24,82.84,27.1,96.64,20,10.67,36,19.12,31,44.73C3011.42,1653.63,3078.41,1688.68,3087.79,1691.67ZM1775.27,1437.33c-16.59-48.18-2.69-92.68,34.57-138.22,21-25.6,53.42-46.76,78.9-73.18C1854.61,1312.23,1776.48,1371.48,1775.27,1437.33Z"/><path class="cls-12" d="M2299.85,3225.26H2145c.18,4.77,5.12,111,2.51,120.58-57.94,61.49-258.34,120.6-226.75,176.37,21.39,37.76,122.77,15,283.74-9.94,34.24-5.31,59-2.8,80.87-24.3,24-23.58,6.82-65.19,1.1-106.94C2285,3370,2298.74,3236,2299.85,3225.26Z"/><path class="cls-12" d="M2427,3225.26h154.82c-.19,4.77-5.13,111-2.51,120.58,57.93,61.49,258.33,120.6,226.74,176.37-21.4,37.76-122.77,15-283.74-9.94-34.25-5.31-59-2.8-80.87-24.3-24-23.58-6.82-65.19-1.1-106.94C2441.8,3370,2428.06,3236,2427,3225.26Z"/><path class="cls-12" d="M2282.31,3410c-.42,4.51-133.4-3.21-133.6-8.7-1.76-47.71-13.44-676.07-13.94-703.73l209.37,65.37C2338.42,2810.12,2285.37,3377.39,2282.31,3410Z"/><path class="cls-12" d="M2444.29,3410c.42,4.51,133.4-3.21,133.6-8.7,1.76-47.71,13.44-676.07,13.94-703.73l-209.38,65.37C2388.18,2810.12,2441.23,3377.39,2444.29,3410Z"/><path class="cls-13" d="M1685.5,2630.4c19.29-27.93,43.53-72.82,100.93-150.56,6.56-8.88,53.24,2.49,45.36,10.46C1786,2536.62,1729.32,2650.56,1685.5,2630.4Z"/><path class="cls-13" d="M1635.51,2622.39c19.3-27.93,52.07-104,125.56-161.12,9.06-7.05,52.45,8.74,44.57,16.72C1759.85,2524.31,1672,2638.19,1635.51,2622.39Z"/><path class="cls-12" d="M1586.16,2588.56c19.3-27.92,148.07-163.86,221.56-220.94,9.06-7,66.34,50.62,63,68.61,14.46,40.85-36,91.15-44.41,180.4-1.45,15.42-21.73,2.57-25.79-3.37-10.48-15.32-7.47-22.06-19.64-66.17-7.42-26.89-38.88-29.26-56.29-22.69C1655,2564.21,1614.94,2603.82,1586.16,2588.56Z"/><path class="cls-12" d="M1852.94,2488.53c-9.81,12.06-98.51-57.75-89.41-70.43,135.88-189.53,286-448.71,314.79-501.81l128.49,103.19C2126.46,2127.3,1982.5,2329.15,1852.94,2488.53Z"/><path class="cls-14" d="M1916.65,2114.65c45.56,27.23,141.56,89.83,192.6,105.11,68.36-87.53,106.36-319.44,106.29-327.92-60,3.79-132.1,14-151.39,24.45C2029.93,1961.33,1965.68,2041.23,1916.65,2114.65Z"/><path class="cls-12" d="M2877.81,2488.53c9.81,12.06,98.5-57.75,89.41-70.43-135.88-189.53-286-448.71-314.79-501.81L2524,2019.48C2604.29,2127.3,2748.24,2329.15,2877.81,2488.53Z"/><path class="cls-13" d="M3039.23,2630.49c-18.39-26.83-41.48-70-96.17-144.66-6.25-8.53-50.73,2.4-43.21,10.07C2943.47,2540.4,2997.47,2649.86,3039.23,2630.49Z"/><path class="cls-13" d="M3086.85,2622.8c-18.38-26.83-49.61-100-119.62-154.8-8.64-6.77-50,8.4-42.47,16.06C2968.38,2528.56,3052.09,2638,3086.85,2622.8Z"/><path class="cls-12" d="M3133.88,2590.3c-18.39-26.83-141.09-157.43-211.1-212.27-8.64-6.77-63.21,48.63-60,65.92-13.79,39.24,34.31,87.57,42.31,173.31,1.38,14.81,20.7,2.47,24.57-3.24,10-14.71,7.11-21.19,18.7-63.57,7.07-25.84,37-28.1,53.65-21.8C3068.33,2566.89,3106.46,2605,3133.88,2590.3Z"/><path class="cls-14" d="M2816.18,2114.65c-45.56,27.23-141.57,89.83-192.6,105.11-68.37-87.53-106.1-317.14-106-325.62,60,3.79,129.77,11.69,149.06,22.15C2700.81,1961.33,2767.14,2041.23,2816.18,2114.65Z"/><path class="cls-15" d="M1951.35,2824.89c173.66,130.2,652.36,138.21,844.79,0,0,0-81.81-208-124.59-325.87-110.24-11.41-496.77-12.05-615.36.95C2021.32,2612.58,1994.12,2698.74,1951.35,2824.89Z"/><path class="cls-8" d="M2034.85,2568.55c181,43.13,435,30.32,650-33.34-4.7-12.65-9.23-24.92-13.32-36.19-110.24-11.41-496.77-12.05-615.36.95C2048.8,2523.85,2041.78,2546.41,2034.85,2568.55Z"/><path class="cls-14" d="M2037.51,2522.59c194.3,67.71,486.44,76.19,651.58-7.65,0,0-77.85-493.49-102.2-614.78-115.71-15.29-342.83-19.3-463.18,1.19C2106.26,2056.1,2072.75,2302.62,2037.51,2522.59Z"/><path class="cls-12" d="M2505.81,1915c.35-7.83-1-15.38-2.85-22.81-80.44-5.43-201.26-7.18-287.42-.3-.66,3.37-2.09,6.53-2.25,10-2.71,60.59,60.58,112.64,141.35,116.24S2503.1,1975.55,2505.81,1915Z"/><path class="cls-12" d="M2462.92,1747.07l-1.86,171.14c-.4,36.8-47.49,66.13-105.19,65.51s-104.14-31-103.74-67.78l1.86-171.13Z"/><path class="cls-16" d="M2509.11,1817c.34-7.53-.93-14.78-2.74-21.92-77.3-5.22-193.4-6.9-276.19-.3-.64,3.25-2,6.28-2.17,9.66-2.6,58.22,58.21,108.23,135.84,111.71S2506.51,1875.19,2509.11,1817Z"/><path class="cls-12" d="M2894,1579.2c-27.07,97.85-123.54,158.06-195.21,147.35s-84.21-91.55-70.1-186S2712.41,1378,2784,1388.91C2882,1403.89,2919.44,1487.24,2894,1579.2Z"/><path class="cls-13" d="M2807.29,1599.13c-6.2,41.42-40.83,70.56-77.37,65.11s-61.1-43.47-54.89-84.88,40.82-70.56,77.33-65.1S2813.47,1557.72,2807.29,1599.13Z"/><path class="cls-12" d="M1829,1568.66c25.12,98.36,120.39,160.47,192.26,151.18s86-89.86,73.76-184.58-80.48-164.21-152.32-154.68C1844.54,1393.62,1805.42,1476.21,1829,1568.66Z"/><path class="cls-13" d="M1920.61,1590.35c5.37,41.53,39.42,71.36,76,66.62s62-42.24,56.59-83.77-39.42-71.35-76-66.62S1915.24,1548.83,1920.61,1590.35Z"/><path class="cls-11" d="M1894.35,1188.54c-39,319.75,192.11,534.25,461.51,536.92s493.61-228.34,469.4-540.32c-13.45-173.22-193.56-310.85-451-311.74C2104.88,872.47,1922.09,961.14,1894.35,1188.54Z"/><path class="cls-12" d="M1977.4,1124.08c-24.92,53.77-13.48,530.33,40.91,597.28,57.69,71,294.19,140.79,344,141.29,53.39.53,286.33-57.63,332.24-134.6,54.33-91.09,82.29-514.65,65.75-565.27-55.92-171-204.1-178.16-398-180.08C2181,980.9,2042,984.55,1977.4,1124.08Z"/><path class="cls-17" d="M2024.61,1596.48c-1.71,19.27,23.69,37.28,56.74,40.21s61.22-10.32,62.94-29.59-23.7-37.28-56.74-40.22S2026.32,1577.2,2024.61,1596.48Z"/><path class="cls-17" d="M2576.1,1618c1,19.32,28.66,33.61,61.8,31.9s59.18-18.75,58.19-38.08-28.67-33.61-61.79-31.9S2575.1,1598.71,2576.1,1618Z"/><path class="cls-18" d="M2329.84,1557.92a4.46,4.46,0,0,0,4.42-3.68c2.71-15.44,15-25.31,31.39-25.15s28.85,10.48,30.88,25.67a4.44,4.44,0,0,0,8.81-1.18c-2.59-19.45-18.87-33.18-39.6-33.39s-36.79,12.86-40.25,32.5a4.47,4.47,0,0,0,3.61,5.16Z"/><path class="cls-19" d="M2055.87,1284a12.48,12.48,0,0,0,8.26-3.55c29.51-28.6,87.35-38.58,134.65-23.12a12.6,12.6,0,1,0,7.82-24c-56.43-18.4-123.76-6.21-160,29a12.6,12.6,0,0,0,9.29,21.62Z"/><path class="cls-19" d="M2666.63,1293.1a12.6,12.6,0,0,0,9.26-21.64c-36.35-35.17-103.68-47.25-160.07-28.78a12.6,12.6,0,0,0,7.86,24c47.26-15.54,105.17-5.69,134.68,22.92A12.52,12.52,0,0,0,2666.63,1293.1Z"/><path class="cls-11" d="M2686.44,1022.78c-69.75-39-201-61.23-319-64.52-128.3-3.58-260.94,10.61-332.39,54.4-47.26,29-108,253.14-85.13,235.2,26.16-20.53,67.5-38.38,117.09-52.7,6.58-24.71,42.14-85.85,49-93.9-2.77,13.07-7.78,59.2-10.2,83.79,61.84-14.47,132.48-23.87,201.3-26.84-1-26.22,12.63-60,12.73-61.8,7.81,8,23.16,45,29.73,60.77q15.52-.06,30.72.36c92.77,2.59,161.28,10.3,215.77,22.3-1.59-81-1.54-106.3-2.16-100.8,9.61,17.37,21.37,67.12,21.61,105.4a501.62,501.62,0,0,1,55.65,17.53c2.16-23.52,8.15-61.49,9-67.94,7.15,4.53,19.85,56.89,24.16,82.14,28.21,13.43,53.22,28.83,79,45.9C2811.43,1280.73,2742.66,1054.21,2686.44,1022.78Z"/><path class="cls-20" d="M2462.51,1536.67s133.5,46.94,186.89-22.53c65.06-84.66-28.73-155.72-91.21-144.18C2500.37,1380.63,2446.74,1428.93,2462.51,1536.67Z"/><path class="cls-21" d="M2662.73,1404.07c-24.06-32.13-57.34-43-93.86-40.39-37.33,2.64-75.79,28-87.23,54.87,20.9-30.1,55.73-40.33,77.35-44.31,34.42-6.39,78.84,10.27,98.12,41.77,17.15,28,14.43,69.25-9.45,100.32C2675.4,1495.54,2687.8,1437.56,2662.73,1404.07Z"/><path class="cls-22" d="M2495.8,1447a60.58,60.58,0,1,0,79.64-31.59A60.57,60.57,0,0,0,2495.8,1447Z"/><path class="cls-23" d="M2501,1437.51a16.81,16.81,0,1,0,22.1-8.76A16.82,16.82,0,0,0,2501,1437.51Z"/><path class="cls-20" d="M2259,1531.34s-136,39.13-185.28-33.32c-60-88.29,37.71-153.8,99.41-138.66C2230.21,1373.37,2281,1424.7,2259,1531.34Z"/><path class="cls-21" d="M2066.76,1387.36c25.88-30.68,59.74-39.59,96-34.89,37.11,4.81,74,32.3,83.9,59.84-19.12-31.26-53.3-43.48-74.65-48.71-34-8.39-79.3,5.68-100.38,36-18.74,27-18.42,68.3,3.62,100.69C2048.81,1478,2039.8,1419.34,2066.76,1387.36Z"/><path class="cls-22" d="M2121.31,1437.41a60.58,60.58,0,1,0,79.64-31.59A60.58,60.58,0,0,0,2121.31,1437.41Z"/><path class="cls-23" d="M2126.49,1427.92a16.81,16.81,0,1,0,22.09-8.76A16.81,16.81,0,0,0,2126.49,1427.92Z"/><path class="cls-24" d="M2515,1621.41c10.21,60.47-87,138.5-171.92,130.25-84.51-8.2-138.73-82.07-135.12-143,7.16-33.14,62.11-21.34,145.69-19.44S2508.8,1584.63,2515,1621.41Z"/><path class="cls-25" d="M2354.63,1697c-39.23-1.14-69.59,7.33-89.62,24.78,21.58,15.51,51,30.49,83.73,31.32,36.87.93,69.45-4,94.18-27.54C2433.84,1707.79,2389.72,1698,2354.63,1697Z"/><path class="cls-1" d="M2473.82,1593.66c-28.62-9.45-73.77-4.87-115.37-5.81-46.95-1.06-81.22-7.8-110.72-2.15,10.47,25.38,49.35,42.6,103.36,44.45C2413.45,1632.29,2464.7,1620.33,2473.82,1593.66Z"/><path class="cls-26" d="M1805.28,1171.75s-36.34,64.28,4.84,69.76,78.62-20.48,83.61-58-24.34-72.36-65.53-77.84S1805.28,1171.75,1805.28,1171.75Z"/><path class="cls-26" d="M2026.42,1201.18s18.28,71.55-22.91,66.07-70.53-40.33-65.54-77.84,42.43-63.47,83.62-58S2026.42,1201.18,2026.42,1201.18Z"/><path class="cls-26" d="M1943,1191.05c-2.37,17.82-17,30.58-32.7,28.49s-26.47-18.23-24.1-36,17-30.58,32.69-28.49S1945.39,1173.22,1943,1191.05Z"/><path class="cls-27" d="M2239.62,2081.6c-8.2,16.35-3.42,43.87,5.27,57.75,14.75,23.56,43.87,26.55,58.88,5.82C2310.49,2135.88,2262,2104.52,2239.62,2081.6Z"/><path class="cls-28" d="M2250.64,2113.05c-2.22,8.86,5.12,23.87,12.55,31.46,12.63,12.9,30.45,14.68,36,3.47C2301.68,2143,2267.67,2125.64,2250.64,2113.05Z"/><path class="cls-27" d="M2508.07,2081.41c8,16.44,3,43.91-5.81,57.68-15,23.39-44.13,26-58.94,5.15C2436.69,2134.88,2485.53,2104.07,2508.07,2081.41Z"/><path class="cls-28" d="M2496.76,2112.73c2.13,8.88-5.35,23.8-12.86,31.31-12.74,12.76-30.58,14.34-36,3.06C2445.43,2142.05,2479.61,2125.12,2496.76,2112.73Z"/><path class="cls-27" d="M2471.92,2290.66c-35.17,38.1-127.85,47-180.16,12.93-41.71-27.17-45.61-76.83-13.68-130.87,28.84-48.83,85.17-80.37,144.28-49.11C2467.26,2147.35,2526.16,2231.89,2471.92,2290.66Z"/><path class="cls-29" d="M2427.09,2242.63a10.86,10.86,0,0,1-13.2,8,11.06,11.06,0,0,1-7.93-13.38,10.87,10.87,0,0,1,13.2-8A11.06,11.06,0,0,1,2427.09,2242.63Z"/><path class="cls-29" d="M2341.87,2240.85a10.86,10.86,0,0,1-13.19,8,11.06,11.06,0,0,1-7.93-13.39,10.87,10.87,0,0,1,13.19-8A11.05,11.05,0,0,1,2341.87,2240.85Z"/><path class="cls-30" d="M2437.13,2172.72c-1.19,2.8-5.79,3.47-10.26,1.51s-7.13-5.84-5.93-8.64,5.79-3.48,10.26-1.51S2438.33,2169.91,2437.13,2172.72Z"/><path class="cls-30" d="M2331.61,2167.1c.66,3-2.65,6.28-7.41,7.37s-9.14-.46-9.81-3.44,2.66-6.27,7.41-7.36S2331,2164.12,2331.61,2167.1Z"/><path class="cls-31" d="M2417.4,2274.19c2.64,20.75-16.9,42.26-47.15,42.08-25.45-.17-51.79-26.48-41.19-48.08C2340.72,2244.45,2413.41,2243,2417.4,2274.19Z"/><path class="cls-30" d="M2388,2280.52a13.81,13.81,0,0,1-5.3-.15,16.53,16.53,0,0,1-10.71-8,18.41,18.41,0,0,1-9,8.89c-5.3,2.22-10.5.61-14.28-4.42a1.74,1.74,0,0,1,.32-2.43,1.7,1.7,0,0,1,2.39.33c3.6,4.79,7.57,4.44,10.27,3.32,4.53-1.9,8.23-7.15,8.46-11.64a16,16,0,0,1-.07-1.72,1.7,1.7,0,0,1,1.6-1.7,1.72,1.72,0,0,1,1.8,1.5,11.8,11.8,0,0,1,.09,1.79,12.44,12.44,0,0,0,9.83,10.69c3.45.75,7.81,0,9.69-4.4a1.71,1.71,0,0,1,2.25-.9,1.76,1.76,0,0,1,.89,2.29A10.9,10.9,0,0,1,2388,2280.52Z"/><path class="cls-29" d="M2385.88,2255.34c.18,6-11.13,11.18-14.17,10.76-3.7-.52-14-5.21-14.15-11.22S2385.7,2249.33,2385.88,2255.34Z"/></svg>