<svg xmlns="http://www.w3.org/2000/svg" width="400" height="164"><g fill-rule="evenodd"><path d="M188.129 36.789c.392.035.992.035 1.334-.001.341-.036.02-.065-.713-.064-.733 0-1.013.03-.621.065m-2.355.316c-1.199.368-.864.42.394.061.595-.17.932-.309.749-.309-.184 0-.698.111-1.143.248m6.431.412c.949.372 1.538.741 2.241 1.406 1.07 1.012 1.393 1.14.429.17-.87-.875-1.815-1.493-2.78-1.817-1.344-.452-1.276-.302.11.241m40.462 2.9c0 3.442-.011 3.483-.766 2.833-1.573-1.355-5.16-1.721-6.489-.662-.244.194-.177.184.255-.037 1.597-.816 4.817-.32 6.297.971.863.753.869.734.869-2.855v-3.334h2.667v18.5H233v-.75c0-.915-.192-.946-.961-.155-.317.327-.766.667-.998.755-.231.088-.377.204-.323.257.124.124 1.122-.487 1.527-.935.449-.496.588-.419.588.328V56h2.834V37.167h-3v3.25m6.444-3.139c-.061.061-.111.698-.111 1.416V40h1.5c.825 0 1.5-.056 1.5-.125s-.618-.125-1.375-.125h-1.375l-.049-1.202-.049-1.201 1.466-.056 1.465-.056-1.43-.034c-.787-.019-1.481.016-1.542.077m-55.278.744c-.868.593-2.029 1.671-1.917 1.783.042.041.391-.24.777-.625.386-.386 1.025-.891 1.421-1.123.396-.232.719-.452.719-.49 0-.159-.298-.024-1 .455m4 1.311c-.287.092-.028.134.834.134.861 0 1.12-.042.833-.134a3.304 3.304 0 00-.833-.133c-.229 0-.604.06-.834.133m-1.806.542c-.733.375-2.027 1.631-2.027 1.968 0 .1.247-.141.549-.537.351-.459.929-.917 1.598-1.263.577-.299.948-.542.826-.541-.123.002-.548.169-.946.373m-4.661.583c-.745 1.058-1.738 3.726-1.481 3.982.042.043.172-.32.287-.806.234-.99.789-2.278 1.333-3.092.438-.657.317-.73-.139-.084m10.253-.206c.449.314 1.343 1.623 1.479 2.164.168.67.44.767 2.009.716 1.166-.039 1.476-.101 1.491-.299.01-.144-.012-.161-.053-.041-.048.145-.507.208-1.517.208h-1.447l-.363-.792c-.402-.874-1.47-2.208-1.768-2.208-.105 0-.029.114.169.252m4.478 1.081c.059.321.172.696.25.834.262.458.178-.24-.102-.856l-.255-.561.107.583m6.77.831c-.303.072-.598.178-.655.235-.057.057.153.047.467-.022.314-.07 1.57-.127 2.791-.127 1.221 0 2.046-.049 1.833-.108-.54-.152-3.771-.135-4.436.022m16.38.148c-.368.167-1.019.653-1.445 1.079-.971.971-.963.972-.999-.183l-.03-.958-.063.822c-.127 1.631.033 1.776.886.801.891-1.02 1.637-1.505 2.601-1.695.59-.116.63-.144.22-.156-.275-.008-.802.122-1.17.29m2.086-.189c.23.042.472.163.539.269.079.123.124.087.125-.1.002-.223-.124-.287-.539-.269-.458.019-.477.034-.125.1m27.611.285c-2.788 1.146-4.099 3.15-4.203 6.425l-.051 1.584.138-1.584c.389-4.497 2.594-6.583 6.958-6.583 1.12 0 1.907-.051 1.75-.113-.76-.301-3.61-.133-4.592.271m-65.492.485c-.164.399-.335 1.018-.379 1.375-.068.553-.043.519.171-.23.138-.483.366-1.101.508-1.375.141-.273.198-.496.127-.496-.071.001-.263.327-.427.726m24.715-.31c.229.131.491.239.583.239.092 0-.021-.108-.25-.239s-.492-.238-.583-.238c-.092 0 .021.107.25.238m30.873 6.542l.043 6.792 1.459.048c.802.026 1.458-.011 1.458-.084 0-.072-.618-.131-1.375-.131h-1.375v-6.708c0-3.69-.057-6.709-.127-6.709s-.107 3.057-.083 6.792m15.844-6.261c4.421 2.525 4.703 9.094.533 12.396-.234.184-.165.173.227-.04 4.374-2.369 3.443-11.464-1.311-12.793-.229-.064.019.133.551.437m-53.995.228c-1.118.782-2.451 3.408-1.73 3.408.096 0 .174-.265.174-.59 0-1.084.832-2.259 2.167-3.059.321-.192.505-.35.409-.35-.096-.001-.555.265-1.02.591m8.111-.214c0 .062.338.451.75.863.412.413.75.693.75.623 0-.071-.338-.459-.75-.864-.412-.405-.75-.685-.75-.622m15.288.468c-.611.503-1.574 1.924-1.413 2.084.045.045.213-.195.373-.533.161-.338.627-.941 1.037-1.339.874-.85.875-.931.003-.212m-20.362.942c-.33.084-1.593.832-1.593.944 0 .033-.113.332-.252.664s-.213.604-.165.604c.048 0 .208-.303.356-.674.859-2.146 5.493-1.794 5.576.424.024.64.03.646.145.167.356-1.478-1.927-2.674-4.067-2.129m23.95-.004c-1.066.206-2.75 2.475-2.695 3.633.008.183.109-.004.224-.417.593-2.14 1.624-3 3.592-3 1.542 0 2.459.511 3.142 1.75.101.183.186.235.189.114.03-1.27-2.507-2.455-4.452-2.08m22.332.201c-.389.183-.708.375-.708.428 0 .052.221-.019.492-.159 3.303-1.708 6.603 2.535 5.109 6.568-1.087 2.931-4.901 3.575-6.439 1.087-.202-.326-.403-.557-.448-.512-.325.325 1.431 1.828 2.458 2.104 2.336.63 4.328-.901 4.848-3.726.718-3.895-2.311-7.197-5.312-5.79M179.73 46.5c0 1.054.027 1.485.06.958.033-.527.033-1.389 0-1.916-.033-.527-.06-.096-.06.958m39.994-1.706c-.106.068.363.123 1.042.123S222 44.86 222 44.792c0-.161-2.022-.159-2.276.002m-36.945 1.248c-.055.573-.036 1.304.043 1.625.113.457.148.233.161-1.042.02-1.865-.059-2.089-.204-.583m66.105-.667c-.438.483-.948 1.285-.865 1.362.035.032.342-.345.682-.839.668-.971.717-1.111.183-.523m-30.845.5c-.428.457-1.032 1.751-1.03 2.208.001.184.136-.054.3-.528.163-.473.502-1.13.753-1.458.514-.675.504-.783-.023-.222m4.461.458c-.246.912-.115 1.043.152.152.112-.376.167-.722.121-.768-.047-.046-.169.231-.273.616m10.003.844c.203.708.207 2.854.006 3.718-.115.494-.104.6.046.45.277-.277.268-4.256-.01-4.534-.163-.163-.172-.087-.042.366m-24.991.058c-.231.278-1.229.522-3.178.775-1.296.168-1.923.323-1.307.323.614 0 3.864-.519 4.126-.659.3-.161.786-.674.638-.674-.046 0-.171.106-.279.235m40.204.204c-.211.759-.127 3.386.116 3.614.168.156.191.111.114-.22-.266-1.143-.296-1.866-.115-2.737.206-.993.119-1.495-.115-.657M222.227 49c0 .871.028 1.227.062.792.035-.436.035-1.148 0-1.584-.034-.435-.062-.079-.062.792m-21.036-.348c-2.02.698-3.248 2.949-2.554 4.681.13.326.148.217.08-.5-.19-2.003.814-3.542 2.662-4.079.525-.153.954-.31.954-.349 0-.12-.212-.074-1.142.247m-97.441.38c-.454.461-3.16 2.454-3.941 2.903-.63.363-3.672 3.289-3.819 3.674-.081.215-.252.391-.378.391-.389 0-2.82 2.915-4.442 5.328-1.902 2.829-4.523 8.388-5.15 10.922-.091.367-.355 1.417-.586 2.333-.987 3.906-1.335 11.731-.68 15.289.652 3.545 1.601 7.074 2.341 8.711.7 1.549 1.521 3.496 1.814 4.299.159.439.458 1.001.664 1.25.206.248.658.901 1.005 1.451 2.339 3.704 7.375 9.16 10.308 11.167.804.55 1.948 1.36 2.544 1.801 1.242.919 1.274.918 2.767-.107a34.038 34.038 0 011.327-.878c2.97-1.726 9.072-7.881 10.805-10.899.395-.688.812-1.363.928-1.5.458-.546 2.609-4.906 3.14-6.366.31-.853.686-1.814.837-2.134 2.381-5.086 2.467-18.549.159-25.055-1.329-3.747-3.924-9.054-5.244-10.726A47.087 47.087 0 01116.761 59c-.903-1.296-4.749-5.251-6.243-6.418a69.816 69.816 0 01-1.666-1.343c-.331-.282-.902-.69-1.269-.908a24.809 24.809 0 01-1.539-1.034c-1.172-.856-1.656-.912-2.294-.265m76.093-.271c-.059 2.058 2.298 5.497 4.592 6.7 2.165 1.135 6.714 1.334 7.648.335.116-.124.072-.145-.146-.068-5.17 1.831-10.352-.894-11.782-6.194-.166-.614-.306-.962-.312-.773m13.489.781a23.3 23.3 0 01-.345 1.204c-.101.309-.102.435-.003.334.087-.09.263-.576.389-1.08l.23-.917 1.436-.048c1.381-.046 1.439-.033 1.509.334.064.334.076.325.096-.077l.023-.459h-3.154l-.181.709m-10.154-.094c-.006.201.064.412.155.469.197.122.197-.042 0-.5-.138-.322-.143-.321-.155.031m23.894-.097c-.076.124.002.148.24.072.343-.108.355-.064.355 1.322 0 1.759-.59 2.608-2.09 3.011-.498.133-.665.226-.421.233 1.593.044 2.677-1.317 2.677-3.361 0-1.45-.321-1.989-.761-1.277m-2.739.482l-.583.123.583.005c.321.003.771-.054 1-.128l.417-.133-.417.005a6.514 6.514 0 00-1 .128m-8.035.417a8.5 8.5 0 00-.207.917l-.101.583.262-.577c.144-.318.237-.73.207-.917-.054-.336-.055-.337-.161-.006m6.535-.133c-.326.119-1.166.904-1.166 1.09 0 .08.168-.05.375-.288.206-.238.675-.539 1.041-.669.367-.129.517-.233.334-.23a2.213 2.213 0 00-.584.097m-19.236.383c.124.464.203.589.306.486.038-.038-.04-.257-.174-.486l-.243-.417.111.417m41.586.092c-.056 1.744 2.555 4.032 4.029 3.53.113-.038-.169-.126-.626-.195-1.605-.243-2.708-1.262-3.138-2.898-.195-.742-.252-.836-.265-.437m19.757.575c.053.412.162.862.24 1 .214.373.177.018-.096-.917l-.242-.833.098.75m-22.501.333c.25 1.404 1.211 2.957 2.282 3.692.359.245.248.081-.345-.512-.905-.905-1.14-1.298-1.706-2.847-.237-.648-.304-.745-.231-.333m-38.161.138c.319.579.725 1.008.718.757-.003-.08-.234-.408-.514-.728l-.509-.584.305.555m8.163.099c-1.346 2.054-4.55 2.622-6.671 1.182-.332-.225-.603-.347-.603-.271 0 .882 4.094 1.574 5.383.911 1.096-.565 2.491-1.907 2.241-2.157-.044-.044-.201.107-.35.335m9.088.351c-.046 1.069.821 1.927 1.921 1.901.352-.009.265-.066-.352-.231-.965-.259-1.39-.741-1.477-1.675l-.063-.666-.029.671m30.339.256c-.409.711-.862 1.066-1.828 1.434l-.623.237.569-.092c.869-.141 2.669-1.824 2.322-2.171-.035-.034-.233.232-.44.592m-36.149-.219a10.3 10.3 0 01-.174.458c-.038.092.048.021.193-.157.262-.323.341-.593.173-.593-.048 0-.135.132-.192.292m49.728.667c.267.758 1.674 2.262 2.47 2.641.275.131.355.144.177.028-.744-.486-1.813-1.574-2.205-2.243-.44-.751-.617-.921-.442-.426m-51.03 1.106c-.55.574-1.188 1.171-1.417 1.327-.404.276-.405.279-.018.094.498-.237 1.763-1.393 2.207-2.017.481-.676.35-.575-.772.596m16.252-.45c-.001.201.078.415.175.476.273.168.288.033.047-.424-.21-.4-.22-.402-.222-.052m-11.826.443c-.019.27.521 1.028.963 1.352.433.318.432.312-.056-.266a11.065 11.065 0 01-.699-.91c-.109-.174-.202-.254-.208-.176m12.782.227c.678.13.552 1.805-.146 1.945-1.566.313-2.677.027-3.154-.813-.157-.275-.374-.479-.484-.454-.329.075-1.024.576-.931.67.049.048.226-.037.394-.189.434-.393.636-.347.972.222.454.769 2.812 1.148 3.707.595.457-.283.217-2.096-.275-2.071-.393.019-.405.033-.083.095m-11.219 1.531c.335.543 3.237.869 4.677.526.275-.066-.287-.086-1.25-.046-1.504.064-1.874.024-2.636-.279-.487-.195-.843-.285-.791-.201m5.802.023c-.206.083-.375.191-.375.239 0 .162.266.092.593-.156.369-.279.318-.298-.218-.083m7.795.036c-.003.26.168.288 1.539.258l1.541-.034-1.411-.057c-.863-.034-1.461-.134-1.539-.257-.087-.138-.129-.109-.13.09m11.761.122c.089.09.423.206.741.258l.578.094-.666-.255c-.788-.302-.871-.314-.653-.097m22.828-.014c.087.082.42.194.741.248l.584.1-.584-.236c-.697-.282-.965-.323-.741-.112m5.241.123l-.75.229.653-.078c.358-.043.73-.156.825-.251.095-.095.139-.163.097-.151l-.825.251m-25.416.228l-1.334.105 1.334.014c.733.008 1.521-.046 1.75-.119l.416-.134-.416.014c-.229.008-1.017.062-1.75.12m22.291.122c.436.035 1.148.035 1.584 0 .435-.034.079-.062-.792-.062s-1.227.028-.792.062m-56.274 13.476c-.161.512-.261.963-.222 1.003.04.04.221-.379.401-.931.181-.552.281-1.004.222-1.004-.059 0-.24.419-.401.932m61.811 8.485c0 5.225.021 7.338.047 4.696.025-2.641.025-6.916 0-9.5-.026-2.583-.047-.421-.047 4.804m-77.308-8c.059.275.174.612.254.75.094.16.108.07.039-.25-.06-.275-.174-.613-.255-.75-.094-.16-.107-.07-.038.25m11.433 2.12c-.286.937-.492 1.731-.458 1.765.034.034.302-.699.594-1.629.293-.929.499-1.723.458-1.764-.04-.041-.308.692-.594 1.628m-7.859-1.439c-.015.248.839 2.941.91 2.871.065-.066-.475-2.025-.728-2.635-.094-.229-.177-.335-.182-.236m-2.991 1.073c.253.746.395.891.242.246-.066-.275-.191-.573-.278-.663-.088-.089-.072.098.036.417m.381 1.043c.051.163.253.824.448 1.467.196.644.39 1.136.432 1.094.096-.097-.551-2.205-.792-2.578-.165-.256-.173-.254-.088.017m19.516.703c.091.032.954.088 1.916.125.963.037 1.563.013 1.334-.054-.403-.117-3.587-.187-3.25-.071m13.116.176c-1.697.457-3.638 2.024-3.133 2.529.05.05.162-.096.249-.324 1.102-2.899 7.98-3.084 10.019-.269.274.378.499.616.499.529 0-1.819-4.561-3.292-7.634-2.465m14.884-.026c-1.344.33-2.592 1.152-3.27 2.153-.302.446-.256.422.289-.15 2.383-2.505 7.703-2.799 9.507-.525.169.213.419.452.557.53.137.078-.013-.138-.333-.481-1.405-1.5-4.246-2.143-6.75-1.527m35.702.012c-.53.116-1.011.258-1.069.316-.156.155.127.129.784-.075.321-.099 1.37-.237 2.333-.308l1.75-.128-1.417-.008c-.779-.005-1.851.087-2.381.203m16.596.026c-.408.146-1.085.635-1.616 1.166l-.913.913-.063-.8-.063-.8-.03.958c-.024.754.023.958.22.958.137 0 .25-.097.25-.215 0-1.133 4.264-3.041 4.724-2.114.046.094.065.075.042-.042-.062-.311-1.71-.327-2.551-.024m-86.865.495c-.118.326-.177.629-.132.674.045.045.172-.191.282-.524.26-.789.129-.921-.15-.15m4.858-.286c-1.338.462-2.375 1.456-2.79 2.674-.456 1.339-.45 1.346 1.231 1.346h1.481l.265-.661a1.81 1.81 0 01.893-.993c.346-.182.515-.335.375-.339-.392-.011-1.468.954-1.527 1.371-.068.478-2.803.688-2.803.215 0-1.439 1.547-3.081 3.403-3.613.558-.159.864-.293.681-.296-.184-.004-.728.129-1.209.296m55.515.853c0 .688.029.969.065.625a7.247 7.247 0 000-1.25c-.036-.344-.065-.062-.065.625m-49.89-.833c.138.089.363.161.5.161.223 0 .223-.018 0-.161a1.098 1.098 0 00-.5-.162c-.222 0-.222.018 0 .162m34.679 5.041c.006 2.865.062 5.338.125 5.495.062.158.09-2.148.061-5.125l-.052-5.411h1.33c.908 0 1.356.066 1.414.208.05.124.089.091.097-.083.011-.257-.165-.292-1.487-.292H238l.012 5.208m9.027-.916l.038 4.291.048-4.208.047-4.208h1.317c.897 0 1.343.066 1.401.208.05.124.089.091.097-.083.011-.257-.165-.292-1.487-.292H247l.039 4.292m21.568-3.883c.471.214 1.132.678 1.469 1.032.337.353.54.492.451.309-.322-.659-1.954-1.768-2.562-1.74-.118.005.171.185.642.399m5.636-.2c-.044.114-.06 3.208-.035 6.875l.046 6.666.04-6.804.039-6.805 1.334.055c.734.03 1.334-.002 1.333-.071 0-.226-2.669-.145-2.757.084m-84.576.151c0 .077-.496 1.71-1.078 3.551-.144.456-.194.756-.112.667.229-.248 1.41-4.08 1.293-4.197-.057-.057-.103-.066-.103-.021m14.75.221c.183.13.464.366.624.523.16.157.334.244.386.191.108-.107-.961-.965-1.193-.956-.083.003-.001.112.183.242m56.613.269c-.829.609-1.453 1.621-1.613 2.615l-.115.715 1.536-.049 1.536-.048.188-.578c.131-.402.392-.694.855-.956.366-.207.561-.378.432-.38-.391-.004-1.287.779-1.511 1.321-.208.5-2.838.847-2.838.374 0-.993.722-2.202 1.833-3.071.8-.625.564-.581-.303.057m-77.358-.183c0 .137.072.362.161.5.144.222.162.222.162 0 0-.138-.073-.363-.162-.5-.143-.223-.161-.223-.161 0m.435 1.333c.13.777.778 2.762.839 2.569.027-.084-.173-.827-.444-1.652s-.449-1.238-.395-.917m8.078.352c-.102.294-.157.565-.122.6.036.036.149-.176.252-.471.102-.294.157-.564.122-.6-.036-.036-.149.176-.252.471m-11.165.152c.253.746.395.891.242.246-.066-.275-.191-.573-.278-.663-.088-.089-.072.098.036.417m32.855-.389c.16.042.423.042.583 0 .161-.042.029-.076-.291-.076-.321 0-.452.034-.292.076m-11.261.377c1.229.749 1.214 2.034-.031 2.738-.446.252-.455.271-.083.179 1.548-.382 1.403-3.205-.167-3.236-.137-.003-.011.141.281.319m10.013-.064c-1.437.779.082 2.972 2.004 2.894.157-.007-.102-.144-.576-.306-2.012-.686-2.497-1.715-1.186-2.514.631-.385.439-.444-.242-.074m3.817.061c.29.177.606.458.703.625.097.166.178.216.181.109.006-.234-.941-1.057-1.216-1.056-.107.001.042.146.332.322m10.944.001c-.519.317-1.391 1.423-1.385 1.757.002.093.23-.192.508-.633.348-.555.72-.902 1.205-1.122.385-.175.588-.319.451-.321-.138-.002-.488.142-.779.319m3.537-.089c.279.122.711.462.958.756.248.295.45.446.45.337 0-.321-1.2-1.328-1.574-1.321-.267.005-.231.055.166.228m3.752-.151c0 .092.11.312.245.49s.245.249.245.157-.11-.312-.245-.49-.245-.249-.245-.157m32.673.297c1.886 1.268.777 2.711-2.397 3.12-.897.116-1.597.245-1.556.286.37.37 3.919-.491 4.561-1.107.735-.703.022-2.679-.966-2.679-.114 0 .047.171.358.38m3.454 4.063c.061 4.961.098 5.177.896 5.254.802.077.957 1.681.183 1.886-.256.069-.377.158-.267.198.568.21.901-.28.85-1.25-.048-.918-.065-.95-.549-1-.889-.093-.916-.232-.929-4.772-.006-2.297-.062-4.305-.125-4.463-.062-.157-.089 1.709-.059 4.147m8.69-3.973c-.397.176-.879.577-1.24 1.031-.258.325-.204.303.25-.1.546-.486 1.151-.788 1.913-.956.21-.046.149-.076-.167-.081-.275-.004-.615.043-.756.106m-73.305 4.296c-.025 4.793-.002 4.9 1.032 4.9.827 0 .668 1.742-.179 1.967-.509.135-.546.169-.199.183 1.123.045 1.516-2.167.407-2.287-.764-.084-.762-.074-.775-3.878-.006-1.962-.068-3.943-.138-4.401-.077-.513-.134.84-.148 3.516m3.029-3.35c.001.55.032.755.069.456.038-.3.037-.75-.001-1-.038-.251-.069-.006-.068.544m14.095-.158c-.185.416-.312.823-.283.902.03.08.212-.261.407-.757.429-1.096.341-1.198-.124-.145m-31.63.342c-.226.819-.109.936.15.15.11-.333.161-.646.112-.694-.048-.048-.166.196-.262.544m-10.287-.178c.054.14.258.782.453 1.425.196.644.392 1.134.437 1.089.097-.097-.773-2.77-.901-2.77-.048 0-.043.115.011.256m35.937.141c0 .23.234.27 1.584.27.87 0 1.583-.056 1.583-.125.001-.069-.603-.1-1.342-.07-.875.035-1.427-.015-1.584-.146-.193-.16-.241-.146-.241.071m15.012.196c-.052.803 3.021 1.123 3.102.324.026-.259.015-.269-.052-.042-.147.497-2.613.425-2.858-.083-.1-.206-.186-.296-.192-.199m45.335.549c-.272.508-.216.65.087.218.147-.21.228-.42.18-.468-.048-.048-.168.065-.267.25m-51.964.464c-.789 2.836.65 6.437 2.73 6.827.702.132 2.023-.001 2.248-.227.108-.108-.091-.107-.573.004-2.941.672-5.204-2.558-4.302-6.14.211-.837.118-1.257-.103-.464m-34.454.156c-.061.244-.079.476-.04.516.039.039.121-.129.183-.373.061-.244.079-.476.04-.515-.039-.04-.122.128-.183.372m18.078-.281c-.011.378.633 1.298 1.121 1.602.398.248.385.215-.105-.259-.309-.299-.662-.775-.785-1.058-.124-.284-.228-.412-.231-.285m13.434.478c-.498 3.013.47 6.145 2.292 7.413.376.262.291.124-.311-.505-1.497-1.564-1.838-2.568-1.838-5.408 0-2.375 0-2.369-.143-1.5m-34.759.223c-.113.376-.174.715-.137.752.038.038.161-.239.274-.615.112-.377.174-.715.136-.753-.037-.037-.16.24-.273.616m65.223 3.318c0 2.063.024 2.907.053 1.875a80.83 80.83 0 000-3.75c-.029-1.031-.053-.187-.053 1.875m24.04-3.389c-.061.062-.095 1.955-.075 4.209l.036 4.097.089-4.167c.098-4.614.102-4.291-.05-4.139m-76.611.148c-.138.029-1.038.177-2 .329-2.506.395-3.907 1.249-4.229 2.579-.096.394-.09.392.112-.038.634-1.35 1.783-1.988 4.283-2.38 2.986-.468 3.351-.543 2.667-.543-.321 0-.696.024-.833.053m15.5.078c.32.093.981.289 1.467.435.487.146.924.226.971.179.109-.109-1.661-.63-2.438-.717l-.584-.066.584.169m45.343.605c-1.272.445-2.522 1.631-2.503 2.375.003.147.105.042.225-.233.472-1.078 1.633-1.865 3.268-2.216.606-.13.654-.163.25-.173-.275-.007-.833.104-1.24.247m-70.76.225c-.063.197-.076.396-.03.442.045.046.134-.078.197-.275.062-.197.076-.396.03-.442-.046-.046-.134.078-.197.275m-8.368 0c.474 1.613 1.346 4.161 1.404 4.103.094-.094-1.052-3.693-1.296-4.071-.128-.199-.16-.208-.108-.032m36.69.038c.177.117.619.512.981.879.362.366.58.516.485.333-.227-.435-.847-.993-1.371-1.233-.356-.163-.37-.16-.095.021m-31.718 1.157c-.213.672-.494 1.39-.624 1.597-.131.206-.169.375-.085.375.167 0 .192-.054.797-1.718.227-.623.388-1.21.356-1.305-.031-.094-.231.379-.444 1.051m-1.685-.58c-.001.201.073.412.164.468.213.131.213-.255 0-.583-.131-.203-.162-.182-.164.115m17.081-.116c-.183.067-.783.184-1.333.26-.55.075-.831.166-.625.201.301.051 1.266-.093 2.331-.346.07-.017.17.532.222 1.219l.095 1.25.03-1.274c.032-1.344-.078-1.545-.72-1.31m63.752.136c-.686.141-1.148.289-1.025.329.292.098 2.174-.304 2.288-.488.048-.078.065-.132.037-.119-.029.013-.614.138-1.3.278m-54.335.104c.32.13.695.239.833.243.438.014-.172-.264-.833-.378l-.584-.101.584.236m55.889 1.094c0 .688.029.969.065.625a7.247 7.247 0 000-1.25c-.036-.343-.065-.062-.065.625M190.25 82c-.063.197-.076.396-.03.442.045.046.134-.078.197-.275.062-.197.076-.396.03-.442-.046-.046-.134.078-.197.275m24.167-.167c.183.079.483.141.666.139.268-.004.252-.031-.083-.139-.57-.182-1.008-.182-.583 0m48.5.141c-.275.168-.611.449-.745.624-.181.235-.136.221.174-.053.23-.205.715-.481 1.078-.613.396-.146.526-.246.326-.253-.183-.006-.558.126-.833.295m-76.91.057c-.009.343.308 1.209.407 1.111.039-.039-.035-.369-.164-.732-.13-.363-.239-.534-.243-.379m11.9.097c-.297.206-.741.932-.734 1.201.004.14.109.02.233-.266.125-.286.401-.642.614-.792.213-.149.315-.27.225-.268a.73.73 0 00-.338.125m18.844.36c.801.357 1.082.668 1.253 1.388.117.49.13.5.146.105.028-.723-1.121-1.842-1.85-1.803-.119.007.084.146.451.31m3.999 1.18c-.001.807.054 1.381.122 1.275.159-.251.16-2.302 0-2.552-.067-.105-.122.469-.122 1.277m11.802-.876c-.057.16-.135.366-.173.458-.039.092.037.035.169-.125.192-.235.506-.292 1.605-.292.869 0 1.329-.06 1.264-.166-.197-.318-2.747-.207-2.865.125M194.22 84c0 .596.03.84.067.542a5.307 5.307 0 000-1.084c-.037-.298-.067-.054-.067.542m41.03-.667c-.063.197-.076.396-.03.442.045.046.134-.078.197-.275.062-.197.076-.396.03-.442-.046-.046-.134.078-.197.275m26.528-.222c-1.261 1.261 2.098 3.413 3.972 2.545.236-.11.125-.126-.378-.057-2.05.282-3.468-.475-3.439-1.835.017-.815.015-.823-.155-.653m-20.7.722c.189 1.191 1.252 2 2.627 2 .798 0 2.128-.453 2.128-.725 0-.08-.206-.007-.458.163-1.388.936-3.538.226-4.142-1.367l-.248-.654.093.583m-8.911-.111c0 .152-.282.592-.625.977-.491.55-.529.631-.176.376.509-.368 1.096-1.335.918-1.513-.064-.065-.117.007-.117.16m14.519-.036c-.011.148-.178.471-.372.717-.193.246-.314.486-.268.532.157.157.812-.935.735-1.228-.063-.243-.079-.246-.095-.021m-43.585.262c-.342 1.064-2.001 1.817-3.673 1.667-.622-.056-.9-.033-.75.062 1.203.762 4.986-.792 4.609-1.894-.037-.11-.121-.036-.186.165m64.482.273c-.183.284-.588.688-.899.898-.312.209-.483.381-.381.381.245 0 1.33-.959 1.55-1.37.285-.532.09-.466-.27.091m-58.576.162c-.027 1.123 2.083 3.29 3.196 3.282.117-.001-.247-.229-.81-.506-1.086-.536-1.735-1.273-2.152-2.442-.125-.349-.23-.499-.234-.334m-11.835.051c-.007.248.764 1.066 1.005 1.066.106 0 .036-.131-.157-.292a4.318 4.318 0 01-.597-.625c-.135-.183-.248-.25-.251-.149m-7.922.399c-.063.197-.076.396-.03.442.045.046.134-.078.197-.275.062-.197.076-.396.03-.442-.046-.046-.134.078-.197.275m28.467-.115c-.074.121-.319.346-.546.5-.451.309-.338.383.169.112.176-.094.398-.319.495-.5.195-.364.094-.459-.118-.112m17.002.074c-.057.16-.135.366-.174.458-.038.092.048.021.193-.157.262-.323.341-.593.173-.593-.048 0-.135.131-.192.292m24.208.291c.196.99 1.621 2.586 2.306 2.583.101 0-.13-.209-.513-.463-.833-.553-1.312-1.131-1.645-1.987-.202-.519-.229-.543-.148-.133m-74.633 1.232c.248.754.475 1.295.506 1.202.063-.19-.613-2.182-.821-2.419-.074-.084.068.464.315 1.217m28.443-1.169c.34.55 2.723.911 3.633.55.158-.063-.37-.114-1.173-.113-1.111 0-1.568-.069-1.906-.291-.488-.319-.694-.374-.554-.146m-18.301.354c.149.578.651 1.254 1.247 1.678.752.536.747.292-.005-.273-.358-.269-.808-.788-1-1.155-.207-.396-.305-.497-.242-.25m44.01-.083c.33.971 1.836 2.523 2.147 2.212.042-.041-.181-.214-.494-.382-.314-.169-.745-.596-.96-.948-.62-1.022-.832-1.292-.693-.882m-18.411.564c-.308.383-.948.858-1.569 1.165-.577.285-.953.518-.835.519.669.005 2.479-1.27 2.888-2.035.255-.475.076-.346-.484.351m13.746.19c-.349.365-.863.782-1.14.926-.278.143-.467.299-.421.345.19.19 1.819-1.07 2.134-1.65.23-.425.136-.363-.573.379m12.891-.094c-.187.225-.179.248.054.159.229-.088.279.029.303.705l.029.809.064-.706c.082-.905-.128-1.355-.45-.967m-57.976.411c-.277.793-.232 1.041.065.358.136-.314.221-.65.189-.746-.032-.096-.146.079-.254.388m13.836.463c-.395.23-.684.453-.641.496.043.042.383-.116.757-.352.812-.512.965-.528 1.097-.11.056.175.216.414.357.53.202.169.192.086-.048-.397-.354-.711-.55-.732-1.522-.167m43.447-.159c-.144.16-.404.381-.579.49-.174.109-.239.203-.144.208.095.006.433-.212.75-.483.318-.272.5-.497.406-.5-.094-.004-.289.124-.433.285m21.729-.184c-.114.048-.208.164-.208.26 0 .104.099.091.25-.035.201-.166.305-.162.527.022.238.196.265.193.195-.022-.089-.267-.423-.365-.764-.225m-41.801.65c.358.268.663.324.522.095-.05-.08-.26-.189-.468-.241-.364-.092-.366-.087-.054.146m40.593.075c-.321.176-.508.32-.417.32.092 0 .429-.144.75-.32.321-.175.509-.319.417-.319-.092 0-.429.144-.75.319m-35.5.417c-.321.124-.461.23-.311.237.15.007.525-.097.834-.23.702-.306.266-.311-.523-.007m-34 .083c.137.089.362.162.5.162.222 0 .222-.018 0-.162a1.104 1.104 0 00-.5-.161c-.222 0-.222.018 0 .161m3.333 0c-.331.214.085.214.584 0l.333-.143-.333-.009a1.202 1.202 0 00-.584.152m12.334 0c.137.089.4.158.583.153l.333-.009-.333-.144c-.498-.214-.915-.214-.583 0m3.833 0l-.417.134.417.014c.229.008.529-.059.667-.148.318-.205-.025-.205-.667 0m10.75 0c.498.214.915.214.583 0a1.198 1.198 0 00-.583-.152l-.333.009.333.143m13.75 0c.137.089.4.158.583.153l.334-.009-.334-.144c-.498-.214-.914-.214-.583 0m20.75 0c.183.079.446.144.583.144.158 0 .127-.053-.083-.144a1.854 1.854 0 00-.583-.143c-.158 0-.127.053.083.143m3.167 0l-.334.144.334.009c.183.005.445-.064.583-.153.331-.214-.085-.214-.583 0m-36.042.282c.16.042.423.042.583 0 .161-.042.029-.076-.291-.076-.321 0-.452.034-.292.076m-50.042 13.8v1.418h2.8c1.956 0 2.861.061 3 .2.15.15.2 2.157.2 8.006v7.806l1.625-.047 1.625-.048.044-7.872.043-7.872.439-.111c.242-.06 1.505-.06 2.808.002 2.837.134 2.786.164 2.716-1.59l-.05-1.224-7.625-.043-7.625-.043v1.418m44.584-1.302c2.023.095 1.841-.219 1.78 3.073-.072 3.915-.022 4.067 1.029 3.076.333-.314 1-.723 1.482-.908.481-.185.741-.341.577-.345-.42-.013-1.503.567-2.193 1.173l-.585.513-.045-3.306-.045-3.306-1.584-.012c-.994-.008-1.149.008-.416.042m45.02.144c-.057.149-.089.995-.071 1.882l.033 1.611.092-1.75.092-1.75 1.271-.048c1.222-.047 1.274-.033 1.347.347.056.294.035 16.043-.025 17.826-.008.253-.187.292-1.337.292h-1.327l-.054-1.625-.055-1.625-.035 1.629c-.04 1.895.014 1.954 1.789 1.954 1.446 0 1.351.704 1.303-9.685l-.043-9.232-1.438-.048c-1.201-.039-1.456-.003-1.542.222m37.841-.146c-.061.061-.111.699-.111 1.417v1.305h3V100.5h-1.389c-.764 0-1.439.05-1.5.111m-112.312 1.343l.048 1.205-2.965.045-2.966.046-.043 7.958-.043 7.959H185v-7.8c0-5.845-.05-7.85-.2-8-.14-.14-1.044-.2-3-.2H179v-1.139c0-.627.051-1.19.113-1.252.062-.062 3.418-.093 7.458-.069l7.346.043.049 1.204M309 101.917v1.25h-2.667v-2.5H309v1.25m-110.958 3.531c.16.042.423.042.583 0 .16-.042.029-.076-.292-.076s-.452.034-.291.076m1.166 0c.161.042.423.042.584 0 .16-.042.029-.076-.292-.076s-.452.034-.292.076m14.209-.002c3.247.203 5.407 1.443 6.002 3.447.387 1.302.411 1.274-1.073 1.274h-1.32l-.183-.554c-.188-.57-.982-1.431-1.624-1.76-.42-.215-2.657-.254-2.785-.048-.047.076.321.104.816.063 1.821-.151 2.972.453 3.414 1.79l.223.675h1.473c1.687 0 1.722-.044 1.211-1.544-.716-2.102-3.216-3.517-6.052-3.426l-.936.03.834.053m15.711.008c.3.037.75.036 1-.002s.005-.068-.545-.067c-.55.001-.755.032-.455.069m15.167 0c.299.037.749.036 1-.002.25-.038.005-.068-.545-.067-.55.001-.755.032-.455.069m13.747-.006c.16.042.423.042.583 0 .16-.042.029-.076-.292-.076s-.452.034-.291.076m2.043.114c2.73.529 4.419 1.964 5.238 4.451.265.806.326.906.249.404-.39-2.537-2.927-4.758-5.713-5-.927-.08-.923-.078.226.145m19.293-.072c-.388.063-.76.17-.827.237-.131.131 1.101-.034 1.782-.239.537-.162.045-.161-.955.002m2.811.095c2.731.544 4.298 1.877 5.161 4.391.277.809.308.849.222.282-.383-2.523-3.451-5.006-6.065-4.909-.233.009.074.115.682.236m14.811.047c1.238.339 1.841.696 2.414 1.428.221.282.444.471.495.42.407-.407-1.949-1.897-3.249-2.055-.624-.076-.569-.042.34.207m19.867-.145c-.744.191-.906.382-.188.223.726-.161 2.538-.163 3.404-.004.556.102.598.092.25-.057-.551-.236-2.772-.34-3.466-.162m-120.034.18c-.331.214.085.214.584 0l.333-.144-.333-.009a1.203 1.203 0 00-.584.153m4.211.236c.528.217 1.144.515 1.369.663.225.147.466.267.536.267.071 0-.133-.174-.452-.387-.622-.415-1.872-.949-2.209-.942-.112.002.228.182.756.399m10.033-.102c-1.422.596-3.244 2.229-3.244 2.908 0 .098.301-.241.668-.753.726-1.015 2.01-1.874 3.332-2.231.478-.129.599-.203.334-.204-.229-.002-.72.125-1.09.28m20.176-.069c1.135.356 1.946.998 2.533 2.004.115.197.205.25.208.121.019-.729-2.136-2.376-3.068-2.346-.194.006-.051.103.327.221m11.414.034c-.321.139-.94.553-1.376.921-.846.712-.907.691-.993-.354l-.048-.583-1.333-.012-1.334-.012 1.292.061 1.292.06v.817c0 1.028.263 1.208.821.562a5.328 5.328 0 012.13-1.47c.348-.128.519-.235.382-.238-.138-.003-.513.109-.833.248m3.75-.026c1.804.588 2.407 1.265 2.829 3.177.121.55.228.807.237.572.072-1.838-1.796-4.022-3.4-3.976-.183.005-.033.107.334.227m9.328.318c-5.748 2.763-4.572 12.777 1.588 13.526.663.08.625.054-.333-.225-2.929-.852-4.421-2.725-4.741-5.951-.378-3.808 1.6-6.961 4.844-7.723.484-.113.541-.156.226-.168-.232-.009-.945.234-1.584.541m37.465-.054c-1.646.823-2.946 2.541-3.274 4.329-.06.326.087.069.332-.583.837-2.22 1.995-3.388 3.982-4.017.394-.125.524-.215.318-.222-.191-.006-.802.216-1.358.493m36.234-.215c-.803.268-2.446 1.569-2.442 1.935.001.106.194-.051.429-.349.546-.693 1.712-1.376 2.8-1.64.469-.114.665-.208.436-.211-.229-.002-.78.117-1.223.265m4.237-.228c.038.034.369.107.736.163.464.071.565.056.333-.05-.32-.145-1.213-.239-1.069-.113m-33.615.34c-.049.129-.059.485-.021.791.062.508.071.495.095-.144l.027-.701 1.375-.056 1.375-.056-1.381-.034c-1.055-.026-1.401.021-1.47.2m6.218-.129c-.065.064-.117 3.136-.117 6.826v6.709l1.05.112c.578.062 1.234.087 1.458.055l.408-.057V105.75l-1.341-.048c-.737-.026-1.394.005-1.458.07m-110.793.533c-.901.574-1.857 1.613-2.321 2.521-.5.98-.288.826.303-.22.47-.833 1.9-2.262 2.277-2.277.223-.008.86-.496.648-.496-.091 0-.5.213-.907.472m82.009-.181c-2.317 1.125-3.937 4.765-3.359 7.543.136.656.158.529.174-1.023.032-3.134 1.223-5.423 3.299-6.341.396-.175.719-.353.719-.394 0-.135-.239-.073-.833.215M309 112.5v6.667h-2.667v-13.334H309v6.667m5.991-6.188c-1.461.945-2.7 2.667-2.912 4.048-.064.418-.01.347.218-.289.584-1.626 2.231-3.714 2.953-3.742.223-.008.86-.496.648-.496-.091 0-.5.216-.907.479m5.842-.42c0 .112 1.538.959 1.61.887.032-.032-.317-.263-.775-.512-.459-.25-.835-.419-.835-.375m14.334.014c0 .034.335.259.744.499.831.486 1.408 1.182 1.805 2.178.147.367.271.533.275.369.009-.307-.487-1.337-.862-1.792-.428-.518-1.962-1.498-1.962-1.254m-132 1.171c0 .071.236.398.524.726.288.328.696.976.907 1.439.21.463.387.736.392.607.014-.329-1.061-2.21-1.477-2.587-.191-.173-.346-.256-.346-.185m119.78.465c.282.298.603.717.713.931.11.214.242.347.292.297.121-.121-1.139-1.77-1.352-1.77-.091 0 .065.244.347.542m-125.338.25c-.043.068.508.125 1.224.125.715 0 1.266-.057 1.224-.125-.042-.069-.593-.125-1.224-.125s-1.182.056-1.224.125m29.641.068c-1.826 1.004-2.083 1.89-2.083 7.17v4.137l-1.459.019c-1.599.022-1.223.258.467.294 1.377.03 1.325.22 1.325-4.853 0-6.069.537-7.057 3.67-6.756.451.044.779.015.731-.063-.127-.205-2.258-.164-2.651.052m15.356-.064c-.044.072.42.106 1.032.077 1.572-.075 2.352.447 2.709 1.814l.147.563-.069-.62c-.079-.711-.478-1.318-1.117-1.699-.463-.276-2.55-.38-2.702-.135m15.003-.004c-.042.068.546.125 1.308.125.761 0 1.35-.057 1.307-.125-.042-.069-.631-.125-1.307-.125-.677 0-1.265.056-1.308.125m21.712.204c-.626.331-1.821 1.545-1.821 1.851 0 .098.245-.146.544-.542 1.174-1.556 3.438-1.957 4.99-.883 2.61 1.805 2.288 7.096-.522 8.582-.327.173-.5.318-.384.322.868.03 2.362-1.726 2.713-3.19.997-4.158-2.31-7.837-5.52-6.14m15.586-.082c-.295.226-.275.232.233.062.313-.105 1.035-.148 1.649-.098.659.053.999.029.86-.059-.394-.25-2.382-.18-2.742.095m21.801.044c-.298.148-.541.322-.541.388 0 .065.278-.024.618-.197 1.854-.945 4.024-.005 4.723 2.047.185.544.306.739.314.504.063-2.063-3.086-3.752-5.114-2.742m14.065-.162c-.044.072.436.101 1.067.065.631-.035 1.394.018 1.695.118.501.167.52.162.225-.065-.346-.265-2.836-.363-2.987-.118m-134.433.884c-.37.374-.673.766-.673.871 0 .105.229-.087.51-.427.281-.341.672-.733.87-.872.198-.138.272-.252.163-.252-.108 0-.5.306-.87.68m34.229-.167c.237.282.475.713.529.958.158.719.208.804.222.377.015-.457-.744-1.848-1.009-1.848-.095 0 .02.231.258.513m10.974-.004c-.605.67-1.046 1.487-1.029 1.905.012.277.037.262.142-.082.235-.772.662-1.456 1.184-1.895.285-.241.439-.437.341-.437-.098 0-.385.229-.638.509m15.184-.141c-1.624 1.154-2.504 6.093-1.226 6.883.086.053.045-.217-.089-.599-.679-1.923-.179-4.568 1.108-5.854.439-.439.781-.798.761-.798-.019 0-.269.166-.554.368m4.209.007c1.154.901 1.43 1.432 1.83 3.518l.228 1.19-.095-1.166c-.139-1.716-1.392-3.917-2.229-3.917-.118 0 .001.169.266.375m37.543.047c.31.257.74.849.957 1.315.258.554.395.721.396.484.002-.434-.916-1.671-1.499-2.019-.249-.148-.19-.06.146.22m31.45-.16c-.144.144-.262.344-.262.444 0 .101.019.152.043.113.024-.038.186-.238.359-.444.359-.427.256-.51-.14-.113m-128.635.629c.719.839 1.146 2.074.799 2.315-.104.072-.054.123.123.125.672.006-.027-1.79-1.07-2.748-.43-.395-.399-.33.148.308m9.801-.163c-.327.309-.593.665-.59.792.004.151.089.116.248-.103.134-.184.444-.54.689-.792.633-.649.367-.57-.347.103m23.038 4.944l.051 5.495h-2.678l-.049-4.292-.049-4.292.004 4.417.005 4.417 1.25-.036 1.458-.042c.227-.006.295-10.31.072-10.875-.063-.158-.091 2.186-.064 5.208m59.617-4.905c-1.019 1.192-1.412 4.017-.811 5.828.257.775 1.501 2.238 1.903 2.238.273 0 .177-.109-.467-.536-1.843-1.22-2.09-5.636-.419-7.485.321-.355.518-.642.438-.638-.079.005-.369.271-.644.593m40.713-.203c.204.265.37.583.37.708 0 .126.077.228.171.228.226 0-.227-.871-.614-1.179-.208-.166-.186-.093.073.243m-18.915.312c-.189.206-.393.562-.453.791-.102.382-.095.389.086.083.109-.183.35-.502.537-.708.186-.206.301-.412.256-.457-.046-.046-.238.085-.426.291m11.169.457c0 .504.031.711.069.459a3.702 3.702 0 000-.917c-.038-.252-.069-.046-.069.458m-119.212.071c-.248.652-.199.754.098.206.141-.26.215-.514.165-.565-.051-.05-.169.112-.263.359m116.601-.081c.158.625.547 1.458.55 1.177.001-.138-.145-.55-.326-.917-.18-.366-.281-.484-.224-.26m5.407-.182c-.024.415.532 1.152 1.061 1.404.635.303 3.074.862 3.202.734.05-.05-.198-.138-.551-.197-2.207-.364-3.225-.905-3.605-1.915-.068-.182-.097-.189-.107-.026m-136.993 1.266c-.103.407-.175 1.176-.162 1.708l.026.968.116-1.25c.064-.687.173-1.456.243-1.708s.09-.458.045-.458-.166.333-.268.74m17.73-.24c-.063.197-.076.396-.03.441.045.046.134-.078.197-.275.062-.197.076-.396.03-.441-.046-.046-.134.078-.197.275m-14.978.375c-.137.51-.13.791.02.791.068-.001.138-.263.154-.584.035-.67-.03-.747-.174-.207m9.858 1.08l.083 1.54-4.982.044-4.981.044-.054.563c-.029.309.026.643.124.74.126.126.166-.014.137-.479l-.04-.657 4.958-.044 4.958-.045.017-.622c.026-.96-.028-1.643-.171-2.155-.075-.266-.096.196-.049 1.071m72.082-1.188c-.314.77-.145 3.952.25 4.691.528.988.573.883.107-.25-.431-1.048-.544-2.965-.239-4.032.178-.62.091-.921-.118-.409m37.556-.004c-.141.367-.127.903.024.903.068 0 .143-.263.166-.583.045-.625-.027-.745-.19-.32m-107.663.278c-.131.49-.103 3.596.037 4.094.059.212.108-.707.108-2.041 0-1.335-.01-2.428-.022-2.428-.012 0-.068.169-.123.375m39.434 4.167l-.039 4.458h1.333c.734 0 1.388.006 1.454.013.067.007.142-.05.168-.125.025-.076-.591-.113-1.368-.084l-1.415.054-.047-4.387-.047-4.387-.039 4.458m53.418-3.042c.049.596.115 1.115.149 1.153.123.141.033-1.58-.1-1.903-.08-.195-.1.114-.049.75m27.052-.916c-.004.392 1.456 1.75 1.882 1.75.087 0-.14-.217-.505-.481-.365-.265-.824-.696-1.02-.959-.195-.262-.356-.402-.357-.31m-39.281 1.666c0 .917.028 1.271.062.786.034-.484.033-1.234-.001-1.666-.034-.433-.062-.036-.061.88m36.939-.502v1.081l-4.959.044-4.958.044-.049.423c-.027.233.026.608.118.833.145.354.163.307.133-.339l-.035-.75 4.958-.044 4.958-.045v-1.164c0-.64-.037-1.164-.083-1.164-.046 0-.083.486-.083 1.081m-58.969.252c-.019.688-.071 1.55-.114 1.917l-.079.667.17-.667c.094-.367.145-1.229.115-1.917l-.056-1.25-.036 1.25m24.02-.083c.001.55.032.755.069.455a4.392 4.392 0 00-.001-1c-.038-.25-.069-.005-.068.545m44.449-.844c0 .044.507.231 1.128.416 1.151.343 1.906.795 2.537 1.521.31.356.332.363.181.05-.27-.559-1.094-1.171-2.052-1.523-1.026-.378-1.794-.576-1.794-.464m-4.917 1.38c.159.16 2.178.714 2.604.714.459 0-.055-.203-1.046-.414-.582-.123-1.208-.279-1.391-.346-.224-.082-.279-.067-.167.046m-66.559.881c-.043.787-.596 1.965-1.233 2.625-.288.298-.468.541-.399.541.573 0 1.82-2.264 1.728-3.137l-.064-.613-.032.584m-70.319.166c0 .321.034.452.076.292.042-.16.042-.423 0-.583-.042-.161-.076-.029-.076.291m140.878 0c.498.214.915.214.583 0a1.198 1.198 0 00-.583-.152l-.333.009.333.143m-43.308.584c.202 1.498 1.355 3.393 2.416 3.97.349.19.442.209.247.051-1.375-1.118-1.913-1.949-2.497-3.855-.241-.789-.25-.797-.166-.166m48.343.211c.111 1.148.187 1.244.202.257.007-.476-.053-.906-.133-.955-.08-.05-.111.264-.069.698m-38.763.031a3.34 3.34 0 01-1.765 2.028c-.371.168-.571.307-.446.309.805.013 2.255-1.449 2.461-2.483.146-.73-.016-.635-.25.146m12.421-.159c.238 1.328.761 2.357 1.677 3.3.644.663.718.715.245.173-.763-.875-1.43-2.104-1.614-2.973-.169-.806-.441-1.247-.308-.5m22.671-.175c1.311.799 1.155 2.265-.288 2.697-.364.109-.629.231-.588.271.43.43 1.929-.864 1.929-1.665 0-.523-.924-1.629-1.359-1.627-.123 0 .014.146.306.324m-115.054.49c-.03.815-.766 2.36-1.49 3.127-.736.781-.74.955-.005.243.985-.955 2.067-3.456 1.666-3.852-.085-.084-.157.119-.171.482m-26.993.131c.179 1.098 1.909 3.8 2.229 3.48.049-.048-.111-.245-.354-.436-.529-.416-1.24-1.589-1.657-2.738-.206-.566-.276-.665-.218-.306m81.779-.196c-.058 1.595 3.023 4.795 4.562 4.737.203-.008.038-.126-.408-.292-1.926-.716-3.137-1.949-3.83-3.9-.172-.483-.318-.728-.324-.545m-57.737.457c-.151.604-1.036 1.592-1.677 1.873-.283.124-.412.232-.285.24.705.041 2.345-1.76 2.146-2.358-.039-.115-.121-.005-.184.245m-21.008.126c.222.814 1.55 2.006 2.224 1.997.142-.002-.042-.142-.408-.312-.721-.332-1.217-.813-1.653-1.601-.239-.433-.261-.444-.163-.084m6.763-.069c-.2.14-.364.349-.364.464 0 .308-.83 1.049-1.5 1.34-.321.139-.486.255-.367.259.57.017 2.2-1.341 2.2-1.833 0-.09.586-.161 1.33-.161h1.329l-.167.44c-.092.242-.137.471-.099.509.038.037.147-.156.242-.43.127-.364.121-.541-.022-.658-.326-.267-2.173-.217-2.582.07m62.607.733c-.243.552-.413 1.003-.376 1.003.125 0 .924-1.693.872-1.85-.029-.086-.252.295-.496.847m22.28-.58a3.712 3.712 0 01-.367.889c-.134.214-.201.432-.149.484.134.135.803-1.431.713-1.673-.04-.11-.129.025-.197.3m27.756-.359c-.033.702 1.576 2.282 2.313 2.272.145-.002-.037-.142-.403-.312-.728-.336-1.232-.828-1.64-1.601-.145-.275-.267-.437-.27-.359m6.838.142c-.101.119-.352.479-.558.8-.205.321-.707.752-1.115.958-.409.207-.633.375-.499.375.443-.001 1.32-.651 1.785-1.324l.459-.663 1.301-.006c1.598-.008 1.572-.276-.031-.323-.781-.023-1.218.037-1.342.183m4.493.175c.005.335.024.344.175.083.213-.364 2.734-.437 2.877-.083.05.124.089.091.097-.083.011-.259-.168-.292-1.57-.292-1.533 0-1.584.012-1.579.375m-118.75.583c.704 1.694 2.814 3.578 3.959 3.534.112-.004-.253-.218-.81-.476-1.199-.556-2.255-1.597-2.848-2.808-.495-1.011-.681-1.166-.301-.25m3.209.042c.194.321.526.692.737.824.345.217.057-.165-.937-1.241-.085-.091.005.096.2.417m44.87-.405c0 .409 1.68 1.739 2.197 1.738.121 0-.101-.159-.493-.352a4.41 4.41 0 01-1.208-.955c-.273-.331-.496-.525-.496-.431m68.385.693c-.201.433-.337.815-.304.849.096.096.778-1.309.72-1.482-.028-.085-.216.2-.416.633m5.461-.485c-.021.358.302.843.699 1.048.34.176.334.151-.066-.288-.241-.264-.479-.592-.529-.73-.062-.172-.095-.181-.104-.03m-2.999.24c-.071 1.463 2.681 3.662 4.522 3.614.21-.006-.107-.143-.703-.305-2.018-.549-3.183-1.557-3.676-3.18-.082-.271-.133-.317-.143-.129m-48.357.173c.321.418 1.016.886 1.51 1.018.239.064.137-.034-.241-.229-.361-.187-.847-.509-1.078-.715-.252-.223-.329-.253-.191-.074m60.045.393c-.102.335-.12.541-.039.458.163-.167.416-1.067.3-1.067-.041 0-.158.274-.261.609m-52.458 1.253c-.455.474-.6.682-.323.463.475-.376 1.342-1.325 1.21-1.325-.033 0-.432.388-.887.862m10.214-.744c.207.039.544.039.75 0 .207-.04.038-.073-.375-.073-.412 0-.581.033-.375.073m3.296.545c-.357.365-.605.708-.551.762.054.054.311-.17.572-.497.659-.826.721-.77.758.697l.033 1.292.058-1.21c.081-1.701-.062-1.872-.87-1.044m-35.553.129c-.301.321-.526.605-.5.631.065.064.637-.428 1.033-.888.513-.595.067-.38-.533.257m-65.076-.341c.206.04.544.04.75 0 .206-.04.037-.072-.375-.072s-.581.032-.375.072m5.029.319c-.534.577-1.415 1.128-2.237 1.398-.367.121-.578.25-.47.286.358.12 1.96-.761 2.629-1.447.362-.37.619-.674.57-.674-.048 0-.27.197-.492.437m9.64-.319c.207.04.507.039.666-.003.16-.042-.01-.074-.377-.073-.366.002-.497.036-.289.076m45.164 0c.207.04.544.04.75 0 .207-.04.038-.072-.375-.072-.412 0-.581.032-.375.072m22.167 0c.206.04.544.04.75 0 .206-.04.037-.072-.375-.072-.413 0-.581.032-.375.072m37.417.002c.252.038.664.038.916 0s.046-.07-.458-.07-.71.032-.458.07m5.041.344c-.275.249-.725.619-1 .823-.275.203-.411.372-.303.375.108.003.596-.367 1.083-.822.488-.455.849-.828.804-.828-.046-.001-.309.202-.584.452m9.044-.346c.207.04.507.039.667-.003.159-.042-.011-.074-.377-.073-.367.002-.497.036-.29.076m5.197.477c-.584.604-1.048.875-2.241 1.307-.366.133-.537.247-.379.253.728.03 2.252-.866 3.03-1.781.496-.583.228-.439-.41.221m-142.197.761c.23.291 1.674.899 1.811.762.046-.046-.202-.178-.552-.293a5.797 5.797 0 01-1.053-.472c-.381-.241-.399-.241-.206.003m42.396.173c-.022.422 1.994.779 2.814.499.515-.175-.013-.271-1.24-.224-1.356.052-1.407.04-1.478-.333-.068-.356-.075-.351-.096.058m24.977-.11c-.229.133-.717.33-1.083.44-.398.118-.555.225-.389.263.261.06 1.972-.699 1.972-.874 0-.111-.026-.102-.5.171m-45.596.077c-.089.089-.46.272-.825.405-.364.133-.55.246-.412.251.29.009 1.666-.591 1.666-.727 0-.147-.252-.105-.429.071m76.513.109c.575.337 3.361.536 3.829.274.192-.107-.14-.135-1.023-.087-1.178.064-2.006-.038-2.973-.366-.183-.063-.108.018.167.179m21.25-.182c0 .146 1.536.76 1.734.693.1-.034-.118-.158-.484-.275-.367-.118-.738-.28-.825-.361-.176-.162-.425-.196-.425-.057m-31.334.494c-.382.147-.468.227-.25.231.184.004.521-.1.75-.231.52-.297.271-.297-.5 0m37.417-.006c-.275.126-.388.232-.25.237.137.004.438-.1.667-.231.53-.303.241-.307-.417-.006m12.792.371c.16.042.423.042.583 0 .16-.042.029-.076-.292-.076s-.452.034-.291.076m-30.792.552c-.063.288-.078.561-.032.607.046.046.135-.153.199-.441.063-.288.077-.561.031-.607-.045-.046-.135.153-.198.441m-12.456.534c-.248.745.973 2.664 2.05 3.221.817.422.769.267-.09-.297-.852-.559-1.691-1.715-1.785-2.458-.079-.627 2.259-.74 2.734-.133l.301.383-.146-.417c-.17-.487-2.912-.755-3.064-.299m9.123.526c-.856 1.342-3.947 1.759-5.314.716-.328-.251-.559-.355-.512-.232.436 1.136 4.41 1.306 5.434.232.444-.466.871-1.104.789-1.179-.035-.033-.214.176-.397.463m2.602.903c-.313.614-.859 1.17-1.622 1.652-.172.109-.237.203-.143.208.482.028 2.454-2.171 2.186-2.439-.046-.046-.235.215-.421.579m-6.394 2.659c.39.035 1.027.035 1.417 0 .389-.035.07-.064-.709-.064-.779 0-1.098.029-.708.064" fill="#461c32"/><path d="M234.207 37.122l1.457.057.045 9.452.045 9.452-.002-9.5-.002-9.5-1.5-.009-1.5-.009 1.457.057m4.905-.003c-.044.072.584.107 1.397.078l1.478-.054.058 1.429.059 1.429-.01-1.459-.011-1.459-1.444-.048c-.795-.026-1.482.012-1.527.084m-6.647 3.381c-.026 1.742.008 3.167.077 3.167.068 0 .125-1.425.125-3.167 0-1.742-.035-3.167-.077-3.167-.042 0-.098 1.425-.125 3.167m-37.059-.779c.257.337.501.612.542.612.116 0-.606-.975-.819-1.106-.104-.065.021.158.277.494m44.386.401a9.561 9.561 0 001.416 0c.39-.035.071-.064-.708-.064-.779 0-1.098.029-.708.064m-43.696.711c.061.23.18.529.265.667.108.174.121.123.043-.167a3.032 3.032 0 00-.265-.666c-.108-.174-.121-.123-.043.166m8.525 1.121c.296.036.821.037 1.167.001.346-.036.104-.066-.538-.067-.642-.001-.925.029-.629.066m15.923-.001c.253.038.628.037.833-.002.205-.04-.002-.071-.46-.07-.459.001-.626.034-.373.072m7.164 0c.252.038.665.038.917 0s.046-.07-.458-.07c-.505 0-.711.032-.459.07m23.25.001c.298.037.786.037 1.084 0 .298-.037.054-.067-.542-.067-.596 0-.84.03-.542.067m-37.046.415c-.045.118-.063 3.252-.039 6.965l.044 6.749 1.416.01 1.417.01-1.375-.058-1.375-.058V42.333h2.833v.917c0 .956.135 1.117.522.625.205-.262.2-.269-.054-.071-.257.202-.287.141-.334-.666l-.05-.888-1.461-.048c-1.076-.036-1.483.008-1.544.167m26.63-.08l1.458.057v13.641l-1.375.059-1.375.06 1.417-.011 1.416-.012V42.25l-1.5-.009-1.5-.01 1.459.058m-47.23.753c.191.243.469.286 1.667.257l1.438-.034-1.409-.056c-.774-.031-1.524-.147-1.666-.258-.227-.177-.231-.166-.03.091m16.355.375c.311.32.603.583.648.583.046 0-.171-.263-.482-.583-.311-.321-.603-.584-.648-.584-.046 0 .171.263.482.584m-89.834.001c-4.377.575-9.177 2.062-13 4.028-2.17 1.116-2.092 1.057-1.689 1.281 1.317.734 3.348 2.203 5.664 4.097 1.583 1.295 5.057 4.901 5.949 6.176a48.93 48.93 0 001.392 1.886c1.32 1.672 3.915 6.979 5.244 10.726 2.308 6.506 2.222 19.969-.159 25.055-.151.32-.527 1.281-.837 2.134-.531 1.46-2.682 5.82-3.14 6.366-.116.137-.533.812-.928 1.5-1.733 3.018-7.835 9.173-10.805 10.899-.174.101-.781.503-1.349.892-.567.39-1.12.711-1.228.714-1.567.042 7.56 3.798 11.053 4.548 15.782 3.39 30.167-1.547 40.953-14.053 2.614-3.031 5.71-8.741 7.095-13.084 2.376-7.451 2.625-16.847.616-23.333-.836-2.702-1.129-3.547-1.702-4.917-7.163-17.104-24.843-27.317-43.129-24.915m100.544 1.535c.254.038.629.037.834-.002.205-.04-.003-.071-.461-.07-.458.001-.626.034-.373.072m-40.82 1.63c.001.734.03 1.013.065.621a8.344 8.344 0 00-.001-1.333c-.036-.342-.064-.021-.064.712m31.179 2.667c0 1.65.025 2.302.055 1.45.03-.853.03-2.203 0-3-.031-.798-.056-.1-.055 1.55m-3.056-2.551c-.007.155-.18.399-.384.542-.203.142-.29.259-.192.259.283 0 .772-.626.676-.865-.058-.146-.091-.125-.1.064m47.348.468c.009.433.271 1.144.277.75a1.959 1.959 0 00-.138-.667c-.088-.204-.142-.236-.139-.083m-71.989.666c0 .321.034.452.076.292.042-.16.042-.423 0-.583-.042-.161-.076-.03-.076.291m39.016 1.25c0 .642.031.884.067.538a6.208 6.208 0 00-.002-1.166c-.037-.296-.066-.013-.065.628m3.165.084c0 .595.03.839.067.541a5.297 5.297 0 000-1.083c-.037-.298-.067-.054-.067.542m-8.148 3c0 2.154.023 3.035.052 1.958.029-1.077.029-2.84 0-3.917s-.052-.196-.052 1.959m30.64-3c0 .412.033.581.072.375.04-.207.04-.544 0-.75-.039-.207-.072-.038-.072.375m7.667 0c0 .412.032.581.072.375.04-.207.04-.544 0-.75-.04-.207-.072-.038-.072.375m-61.966-.328c-.062.101-.068.228-.013.283.055.055.1.013.1-.094 0-.393 3.13-.255 3.219.141.063.28.072.273.053-.041-.025-.429-3.109-.694-3.359-.289m51.265 1.842c.007.221.08.552.163.736.105.232.12.131.05-.334-.118-.774-.23-.985-.213-.402m3.335.495c-.007.143.104.406.246.584.255.318.257.318.106-.01a10.616 10.616 0 01-.246-.583c-.08-.216-.094-.215-.106.009m5.82 1.849c-.321.281-.432.435-.248.342.305-.154 1.06-.876.899-.86-.037.003-.33.237-.651.518m-59.5 1.225c-.405.413-.698.75-.652.75.045 0 .414-.337.819-.75.405-.413.699-.75.653-.75-.046 0-.415.337-.82.75m9.709-.302c.16.042.423.042.583 0 .16-.042.029-.076-.292-.076s-.452.034-.291.076m7.932.017c.158.111.207.457.167 1.172-.032.558.003.954.076.88.244-.245.059-2.067-.217-2.142-.201-.054-.206-.036-.026.09m16.734-.017c.161.042.423.042.584 0 .16-.042.029-.076-.292-.076s-.452.034-.292.076m22.586.003c.207.04.507.039.666-.003.16-.042-.01-.074-.377-.073-.366.002-.497.036-.289.076m-19.14 1.174l-.404.458.446-.393.447-.392.068.559.069.56.027-.625c.031-.745-.111-.781-.653-.167m-24.736.04c-.059.094.008.122.157.065.156-.06.396.057.602.294l.343.393-.279-.459c-.284-.465-.639-.592-.823-.293m26.29.956c.344.036.907.036 1.25 0 .344-.036.063-.065-.625-.065-.687 0-.968.029-.625.065m-31.087.333c.296.036.821.037 1.167.001.346-.036.104-.066-.538-.067-.642-.001-.925.029-.629.066m7.254-.001c.252.038.665.038.917 0s.046-.07-.459-.07c-.504 0-.71.032-.458.07m18.083.001c.298.037.786.037 1.084 0 .298-.037.054-.067-.542-.067-.596 0-.84.03-.542.067m22.997 0c.295.036.82.037 1.166.001s.104-.066-.538-.067c-.641-.001-.924.029-.628.066m-72.513 12.338c-.043.068.496.104 1.198.079 2.24-.079 2.496-.147.662-.176-.981-.016-1.817.028-1.86.097m13.85-.002a15.48 15.48 0 001.75 0c.481-.034.087-.062-.875-.062-.963 0-1.357.028-.875.062m61.755-.001c.438.035 1.113.034 1.5-.001.387-.034.028-.063-.797-.062-.825 0-1.141.029-.703.063m-.814 2.628c.001 1.375.026 1.915.058 1.2.031-.714.031-1.839-.001-2.5-.031-.66-.057-.075-.057 1.3m-52.691 2.198c.16.042.423.042.583 0 .16-.042.029-.076-.292-.076s-.452.034-.291.076m64.75.003c.206.039.543.039.75 0 .206-.04.037-.073-.375-.073-.413 0-.582.033-.375.073m15.668 0c.208.04.508.038.667-.003.159-.042-.01-.075-.377-.073-.367.002-.497.036-.29.076m-64.613.109c.038.032.295.11.57.171.365.082.432.066.25-.057-.225-.152-.987-.259-.82-.114m14.736.106c.184.079.446.144.584.144.157 0 .126-.053-.084-.144a1.854 1.854 0 00-.583-.143c-.158 0-.127.053.083.143m31.917.003c-.176.115-.077.132.333.056.719-.131.855-.226.32-.223-.222.002-.516.077-.653.167m-24.458.112c.16.042.423.042.583 0 .16-.042.029-.076-.292-.076s-.452.034-.291.076m9.25.007a9.561 9.561 0 001.416 0c.39-.035.071-.063-.708-.063-.779 0-1.098.028-.708.063m-30.125.164c.137.051.4.162.583.246.328.151.328.149.01-.106-.178-.142-.441-.253-.584-.246-.224.012-.225.026-.009.106m64.532 1.242c-.021.84-.104 1.307-.241 1.362-.163.066-.162.087.006.097.321.02.392-.321.327-1.587l-.059-1.15-.033 1.278M237.906 78.5c0 2.337.023 3.294.052 2.125.029-1.169.029-3.081 0-4.25s-.052-.213-.052 2.125m9 .083c0 2.384.023 3.335.052 2.115.028-1.219.028-3.169 0-4.333-.029-1.163-.052-.165-.052 2.218m3.134 2.369l-.04 6.702-1.542.055-1.541.055 1.547.035c1.111.025 1.569-.024 1.627-.174.044-.115.059-3.171.034-6.792l-.046-6.583-.039 6.702m-8.967-2.035c0 2.475.023 3.51.051 2.301.029-1.209.029-3.234.001-4.5-.029-1.266-.052-.276-.052 2.199m-6.824-3.416c.79.923.801.933.62.582-.094-.183-.385-.52-.645-.749l-.474-.416.499.583m39.824 4.249c0 2.475.023 3.511.051 2.302.029-1.209.029-3.234.001-4.5-.029-1.266-.052-.277-.052 2.198m-73.698-3.635c.16.042.423.042.583 0 .161-.042.029-.076-.291-.076-.321 0-.452.034-.292.076m28.833 0c.161.042.423.042.584 0 .16-.042.029-.076-.292-.076s-.452.034-.292.076m35.834 0c.16.042.423.042.583 0 .16-.042.029-.076-.292-.076s-.452.034-.291.076m-11.815 1.552c0 .87.028 1.227.062.791.035-.435.035-1.148 0-1.583-.034-.435-.062-.079-.062.792m-40.798-.847c-.167.185-.258.483-.215.708l.074.389.023-.404c.012-.222.146-.541.298-.708.152-.168.238-.305.193-.305-.046 0-.214.144-.373.32m4.354.009c.11.143.274.447.364.674.11.275.169.319.176.131.006-.155-.158-.459-.365-.675-.206-.215-.285-.274-.175-.13m10.268.1l-.468.429.542-.377c.298-.207.542-.4.542-.429 0-.132-.185-.019-.616.377m4.116-.377c0 .029.243.273.541.542l.542.489-.49-.541c-.456-.505-.593-.619-.593-.49m-24.792.865c.002.366.036.497.076.289.04-.207.039-.507-.003-.666-.042-.16-.074.01-.073.377m2.67.083c0 .412.033.581.073.375a2.418 2.418 0 000-.75c-.04-.206-.073-.038-.073.375m69.446.125l-.574.625.625-.574c.343-.316.625-.598.625-.625 0-.128-.141-.008-.676.574m-75.166.329c-.046.387-.019.64.058.563.078-.078.115-.395.083-.704-.056-.549-.06-.546-.141.141m55.895-.037c.036.351 2.812.616 3.132.298.073-.072-.57-.108-1.429-.079-1.391.047-1.571.02-1.649-.25-.074-.254-.083-.249-.054.031m-61.553.055c0 .132-.498.206-1.542.229l-1.542.034 1.485.056c1.373.052 2.014-.098 1.713-.399-.063-.063-.114-.027-.114.08m73.404 3.528c0 2.063.024 2.906.053 1.875.03-1.031.03-2.719 0-3.75-.029-1.031-.053-.187-.053 1.875m-45.347-.583c0 .733.03 1.012.065.62a8.344 8.344 0 00-.001-1.333c-.036-.341-.065-.021-.064.713m51.665-.084c0 .688.03.969.066.625a7.247 7.247 0 000-1.25c-.036-.343-.066-.062-.066.625m-89.794-.404c-.061.244-.079.476-.04.515.039.039.122-.128.183-.373.061-.244.079-.476.04-.515-.039-.039-.121.128-.183.373m34.958.571c0 .596.031.84.068.542a5.307 5.307 0 000-1.084c-.037-.298-.068-.054-.068.542m-19.388 1.383l.082 1.367.051-1.234c.028-.678-.009-1.294-.082-1.367-.073-.074-.096.481-.051 1.234m64.632-.425c.082 1.673.152 1.837.178.417.014-.756-.031-1.375-.1-1.375s-.104.431-.078.958m-54.547-.291c.183.078.483.141.667.138.268-.004.251-.031-.084-.138-.57-.183-1.008-.183-.583 0m7.792 1.916c.002.367.036.497.076.29.04-.207.038-.507-.003-.667-.042-.159-.075.011-.073.377m-12.318-.159c-.054.141-.052.304.005.361.058.057.104-.018.104-.168 0-.229.256-.28 1.625-.326l1.625-.055-1.63-.034c-1.337-.029-1.648.011-1.729.222m49.994.659c.001.55.032.755.069.456.038-.3.037-.75-.001-1-.038-.251-.069-.006-.068.544M194.045 84c0 .412.033.581.073.375a2.418 2.418 0 000-.75c-.04-.206-.073-.038-.073.375m32.455.219c0 .029.244.272.542.541l.541.49-.489-.542c-.456-.505-.594-.618-.594-.489m5.067.305a4.418 4.418 0 01-.817.666c-.275.17-.403.309-.285.309.208.001 1.718-1.32 1.519-1.328-.054-.002-.242.156-.417.353m-24.947.991c.071.069.355.151.63.181.496.054.5.063.5 1.08 0 .565.056.991.125.949.211-.132.141-1.838-.083-2.017-.244-.194-1.365-.379-1.172-.193m64.64.001c.039.063.328.144.643.181.316.037.542.016.504-.047-.039-.062-.329-.143-.644-.18-.315-.037-.541-.016-.503.046m-71.799.105c.3.037.75.036 1-.002.251-.038.006-.068-.544-.067-.55.001-.755.032-.456.069m15.167 0c.3.037.75.036 1-.002s.005-.068-.545-.067c-.55.001-.755.032-.455.069m14.249-.001c.254.038.629.037.834-.003.205-.039-.003-.071-.461-.069-.458.001-.626.033-.373.072m14.5 0c.254.038.629.037.834-.003.205-.039-.003-.071-.461-.069-.458.001-.626.033-.373.072m20.834 0c.253.038.628.037.833-.003.205-.039-.002-.071-.461-.069-.458.001-.626.033-.372.072m-25.466.703c.139.269.328.536.421.593.092.057.01-.163-.182-.489-.422-.716-.594-.79-.239-.104m-44.114-.071c.094.184.347.484.562.665.377.319.376.313-.024-.168-.664-.8-.719-.851-.538-.497m-5.959.815l-.194.589-1.864.053-1.864.053 1.884.036 1.883.035.251-.601c.138-.331.217-.636.175-.678-.042-.042-.164.189-.271.513m14.118-.081c-.624.4-.803.61-.29.34l.833-.438c.23-.121.304-.214.167-.208-.138.006-.457.144-.71.306m.877.123c0 .188.433.601.833.795.137.066.1.001-.083-.145a3.704 3.704 0 01-.542-.544c-.115-.153-.208-.201-.208-.106m50.38.68c.438.035 1.113.034 1.5-.001.387-.034.028-.063-.797-.062-.825 0-1.141.029-.703.063m20.917.001c.484.034 1.234.033 1.667-.001.432-.034.036-.062-.881-.061-.917 0-1.27.028-.786.062m-60.668.332c.392.035.992.035 1.333-.001.342-.036.021-.064-.712-.064-.734.001-1.013.03-.621.065m28.912-.007c.161.042.423.042.584 0 .16-.042.029-.076-.292-.076s-.452.034-.292.076m19.586.003c.207.04.507.038.666-.003.16-.042-.01-.075-.377-.073-.366.002-.497.036-.289.076m7.417.002c.253.038.628.037.833-.003.205-.039-.002-.071-.461-.069-.458.001-.626.033-.372.072m-79.246 12.337c.576.033 1.476.032 2-.001.523-.033.052-.059-1.048-.059s-1.529.027-.952.06m116.577-.009c.16.042.423.042.583 0 .16-.042.029-.076-.292-.076s-.452.034-.291.076m-128.817 1.385c0 .779.029 1.098.064.709a9.575 9.575 0 000-1.417c-.035-.39-.064-.071-.064.708M222.248 110l.002 9.417.417.016c.359.014.365.006.043-.053l-.374-.069-.045-9.364-.045-9.364.002 9.417m83.822-9.276c-.047.123-.063.779-.036 1.458l.049 1.235 1.5.009 1.5.009-1.47-.057-1.47-.057.053-1.411c.054-1.414.034-1.603-.126-1.186m3.154 1.193c0 .733.03 1.012.065.62a8.344 8.344 0 00-.001-1.333c-.036-.341-.065-.021-.064.713m-115.038.841c-.011.188-.094.432-.185.543-.092.11-.047.096.099-.031.146-.127.229-.371.185-.542-.072-.281-.082-.278-.099.03m-13.978.699c.802.031 2.115.031 2.917 0 .802-.03.146-.055-1.458-.055-1.604 0-2.261.025-1.459.055m9.173 0c.531.033 1.356.033 1.833-.001.478-.034.044-.061-.964-.06-1.008 0-1.399.028-.869.061m-4.634 8.043l.003 7.917 1.568.048c.863.026 1.628-.011 1.701-.083.073-.073-.613-.108-1.525-.079l-1.657.052-.046-7.886-.046-7.886.002 7.917m83.662-1.417c0 3.3.022 4.674.049 3.053a222.22 222.22 0 000-6c-.027-1.679-.049-.353-.049 2.947m-69.865-4.797c.253.039.628.038.833-.002.205-.04-.002-.071-.46-.07-.459.002-.626.034-.373.072m14.833 0c.254.039.629.038.834-.002.205-.04-.003-.071-.461-.07-.458.002-.626.034-.373.072m15.748-.002c.206.04.544.04.75 0 .206-.039.037-.072-.375-.072s-.581.033-.375.072m15.335.001c.208.039.508.038.667-.004.159-.042-.01-.074-.377-.072-.367.002-.497.036-.29.076m14.082.001c.252.038.664.038.916 0s.046-.069-.458-.069-.71.031-.458.069m22.083-.002c.206.04.544.04.75 0 .206-.039.037-.072-.375-.072-.413 0-.581.033-.375.072m14.833 0c.207.04.544.04.75 0 .207-.039.038-.072-.375-.072-.412 0-.581.033-.375.072m22.586.002c.253.039.628.038.833-.002.205-.04-.002-.071-.46-.07-.459.002-.626.034-.373.072m14 0c.253.039.628.038.833-.002.205-.04-.002-.071-.46-.07-.459.002-.626.034-.373.072m-94.635.589c-.044.115-.06 3.209-.036 6.875l.044 6.667 1.25.01 1.25.011-1.212-.06-1.212-.059.045-6.826c.025-3.755.024-6.826-.002-6.826-.025 0-.082.094-.127.208m2.896.504c.034.388.113.759.174.825.062.066.084-.196.05-.583-.035-.388-.114-.759-.175-.825-.062-.066-.084.196-.049.583M303 112.633l.083 6.95.044-6.823c.024-3.752-.014-6.88-.083-6.95-.07-.07-.09 3.001-.044 6.823m3.076-6.758c-.044.115-.06 3.209-.036 6.875l.043 6.667.5.015c.48.015.481.013.038-.052l-.462-.068.046-6.823c.025-3.752.024-6.822-.002-6.822-.026 0-.083.094-.127.208m3.091 6.592l.083 6.783.044-6.656c.024-3.661-.014-6.714-.084-6.784-.07-.07-.089 2.926-.043 6.657m18.406-5.592l-.49.542.542-.49c.505-.456.618-.594.49-.594-.029 0-.273.244-.542.542m-133.331.333l-.659.709.709-.659c.389-.363.708-.681.708-.708 0-.127-.145 0-.758.658m59.667 0l-.659.709.708-.659c.659-.613.785-.758.659-.758-.027 0-.346.319-.708.708m9.917 0c.691.736.841.869.841.743 0-.026-.357-.383-.792-.791l-.792-.743.743.791m27.665-.083l-.574.625.625-.574c.581-.535.701-.676.574-.676-.028 0-.309.281-.625.625m22.176.125c-.405.412-.699.75-.653.75.046 0 .414-.338.819-.75.405-.413.699-.75.653-.75-.046 0-.414.337-.819.75m-37.761-.042l-.489.542.541-.49c.505-.456.619-.593.49-.593-.029 0-.273.243-.542.541m-49.291 1.334c-.519.514-.521.52-.039.126l.666-.542c.087-.069.104-.126.039-.126-.066 0-.365.244-.666.542m103.397-.103c-.357.455-.451.976-.203 1.129.079.049.108-.092.066-.313-.053-.278.055-.533.35-.828.235-.235.36-.427.28-.427-.081 0-.303.198-.493.439m-88.439.269l-.49.542.542-.49c.505-.456.618-.593.49-.593-.029 0-.273.243-.542.541m52.418.084l-.574.625.625-.575c.343-.316.625-.597.625-.625 0-.127-.141-.007-.676.575m26.509-.042c.311.321.603.583.649.583.046 0-.171-.262-.482-.583-.311-.321-.603-.583-.649-.583-.046 0 .171.262.482.583m-64.094.125l-.489.542.541-.49c.505-.456.619-.594.49-.594-.029 0-.273.244-.542.542m22 0l-.489.542.541-.49c.505-.456.619-.594.49-.594-.029 0-.273.244-.542.542m45.606-.125c0 .092.107.354.238.583.131.23.238.342.238.25 0-.091-.107-.354-.238-.583-.131-.229-.238-.342-.238-.25m-89.64 5.363c-.036 4.789-.061 5.202-.33 5.272-.274.072-.273.078.005.096.455.029.461-.059.411-5.483l-.046-5.081-.04 5.196m27.568-4.53c.385.658.393.668.393.463 0-.097-.154-.353-.343-.569l-.343-.394.293.5m76.06-.277c0 .131-.498.205-1.542.228l-1.541.035 1.484.055c1.373.052 2.014-.097 1.713-.399-.063-.063-.114-.026-.114.081m-88.426 5.027c0 2.704.023 3.811.051 2.459a143.92 143.92 0 000-4.917c-.028-1.352-.051-.246-.051 2.458m-29.728-4.381c-.012.349-.096.372-1.554.424l-1.542.055 1.547.034c1.582.036 1.882-.086 1.649-.668-.048-.117-.092-.048-.1.155m11.356 4.746c-.02 2.539.021 4.651.09 4.693.068.043.105-1.322.082-3.032-.079-5.743-.137-6.308-.172-1.661m15.204-.031c0 2.521.024 3.552.052 2.291.028-1.26.028-3.323 0-4.583-.028-1.26-.052-.229-.052 2.292m-51.019-3.75c.033.32.158.333 3.282.338l3.248.006-3.197-.051c-2.86-.045-3.206-.081-3.282-.338-.065-.219-.077-.208-.051.045m45.152 4.027c-.03 3.304-.09 4.382-.247 4.446-.164.065-.162.087.005.097.357.022.377-.261.328-4.657l-.048-4.247-.038 4.361M314.876 111c.075.274 6.548.476 6.812.212.071-.071-1.379-.107-3.224-.08-2.594.037-3.387 0-3.504-.167-.117-.165-.136-.157-.084.035m-122.649 1.667c0 .87.028 1.227.062.791.035-.435.035-1.148 0-1.583-.034-.435-.062-.079-.062.792m119.5 0c0 .87.028 1.227.062.791.035-.435.035-1.148 0-1.583-.034-.435-.062-.079-.062.792m-101.688-.834c0 .321.034.452.076.292.042-.16.042-.423 0-.583-.042-.161-.076-.029-.076.291m77.85.667c0 .688.03.969.066.625a7.247 7.247 0 000-1.25c-.036-.344-.066-.062-.066.625m36.975-.211l-.031 1.039-4.958.045-4.958.044-.023.377c-.018.314-.009.321.054.042.073-.328.199-.336 4.985-.336 5.515 0 5.125.105 5.024-1.353l-.062-.897-.031 1.039m-40.143.294c.001.642.031.884.067.538a6.211 6.211 0 00-.001-1.166c-.037-.296-.066-.013-.066.628m-77.833.167c.001.642.031.884.067.538a6.308 6.308 0 00-.001-1.167c-.037-.296-.067-.013-.066.629m55.824-.25c0 .412.033.581.072.375.04-.206.04-.544 0-.75-.039-.206-.072-.038-.072.375m3.163.083c.002.367.036.497.076.29.04-.207.039-.507-.003-.667-.042-.159-.074.011-.073.377m-60.517.123l-.025.622-4.958.045-4.958.044-.023.377c-.018.314-.009.321.054.042.073-.328.199-.336 4.985-.336 5.342 0 5.167.033 5.021-.944-.06-.399-.075-.376-.096.15m84.347.961c0 .32.035.452.077.291.041-.16.041-.423 0-.583-.042-.16-.077-.029-.077.292m-72.981.757c-.054.141-.052.304.005.361.058.057.104-.016.104-.162 0-.146.132-.3.292-.341.273-.072.273-.078-.005-.096-.164-.011-.342.096-.396.238m121.826.909c0 .504.031.711.069.459a3.608 3.608 0 000-.917c-.038-.252-.069-.046-.069.458m-54.217-.551c0 .094-.196.461-.437.815-.24.354-.31.539-.155.411.35-.291.817-1.173.688-1.301-.053-.053-.096-.019-.096.075m42.875.174c.436.034 1.148.034 1.584 0 .435-.034.079-.063-.792-.063s-1.227.029-.792.063m-49.178.866c.135.222.502.588.816.811.416.297.458.309.154.046a10.757 10.757 0 01-.816-.812c-.36-.406-.375-.41-.154-.045m20.543.22l-.49.541.542-.489c.505-.456.618-.594.49-.594-.029 0-.273.244-.542.542m-97.321.36c-.365.359-.515.572-.333.474.37-.2 1.177-1.018 1.068-1.084-.039-.023-.369.251-.735.61m59.915-.038c-.413.376-.6.604-.417.508.314-.166 1.397-1.213 1.24-1.198-.041.003-.411.314-.823.69M196 115.885c0 .029.244.273.542.542l.541.49-.489-.542c-.456-.505-.594-.618-.594-.49m15.333.532c.311.32.603.583.649.583.046 0-.171-.263-.482-.583-.311-.321-.603-.584-.649-.584-.046 0 .171.263.482.584m4.325.041l-.575.625.625-.574c.582-.535.702-.676.575-.676-.028 0-.309.282-.625.625m-22.376.505c.163.301.556.788.875 1.084l.579.536-.576-.668a20.776 20.776 0 01-.876-1.083c-.288-.401-.288-.396-.002.131m102.593-.01c.252.038.665.038.917 0s.045-.07-.459-.07-.71.032-.458.07m-20.376.505c.219.298.423.542.455.542.126 0-.287-.625-.56-.847-.18-.146-.14-.03.105.305m47.762.339c-.588.704-.599.734-.111.286.463-.424.97-1.095.814-1.078-.026.003-.343.36-.703.792m-124.053-.515c.161.041.423.041.584 0 .16-.042.029-.077-.292-.077s-.452.035-.292.077m13.92.005c.3.038.75.037 1-.001s.005-.069-.545-.068c-.55.001-.755.032-.455.069m46.08-.005c.161.041.423.041.584 0 .16-.042.029-.077-.292-.077s-.452.035-.292.077m58.75.005c.298.037.786.037 1.084 0 .298-.037.054-.067-.542-.067-.596 0-.84.03-.542.067m14.836-.002c.207.039.507.038.666-.004.16-.042-.01-.074-.377-.072-.366.002-.497.036-.289.076m-19.294.632c.311.32.603.583.649.583.046 0-.171-.263-.482-.583-.311-.321-.603-.584-.649-.584-.046 0 .171.263.482.584m-109.927.125l-.49.541.542-.489c.505-.456.618-.594.49-.594-.029 0-.273.244-.542.542m29.052 1.409c.206.04.544.04.75 0 .206-.04.037-.072-.375-.072s-.581.032-.375.072m14.5.004c.39.035 1.027.035 1.417 0 .389-.035.07-.063-.709-.063-.779 0-1.098.028-.708.063m48.004.001c.392.035.992.034 1.334-.002.341-.035.02-.064-.713-.064-.733.001-1.013.03-.621.066m-96.916.333c.439.035 1.114.034 1.5-.001.387-.034.029-.063-.796-.062-.825 0-1.142.029-.704.063m14.329-.003c.252.038.664.038.916 0s.046-.069-.458-.069-.71.031-.458.069m1.752-.001c.207.039.507.038.666-.004.16-.042-.01-.074-.377-.072-.366.002-.497.036-.289.076m43.914.004c.436.035 1.148.035 1.584 0 .435-.034.079-.062-.792-.062s-1.227.028-.792.062m21.584-.005c.206.04.543.04.75 0 .206-.039.037-.072-.375-.072-.413 0-.582.033-.375.072m1.666 0c.207.04.544.04.75 0 .207-.039.038-.072-.375-.072-.412 0-.581.033-.375.072m36.167.005c.39.035 1.027.035 1.417 0 .389-.035.07-.064-.709-.064-.779 0-1.098.029-.708.064m13.5-.005c.206.04.544.04.75 0 .206-.039.037-.072-.375-.072-.413 0-.581.033-.375.072m1.833 0c.207.04.544.04.75 0 .207-.039.038-.072-.375-.072-.412 0-.581.033-.375.072m-39.62 1.165c-.002.11.164.376.37.592.207.215.292.276.19.134a7.58 7.58 0 01-.37-.592c-.101-.183-.187-.243-.19-.134m8.815 1.259c-.106.207-.428.638-.715.958l-.521.583.556-.499c.505-.454 1.153-1.417.954-1.417-.045 0-.169.169-.274.375m-11.153.677c0 .029.244.273.542.542l.541.49-.489-.542c-.456-.505-.594-.618-.594-.49m4.958 2.066c.207.04.544.04.75 0 .207-.04.038-.072-.375-.072-.412 0-.581.032-.375.072" fill="#1c66b1"/><path d="M82.333 43.122c-5.877.195-14.546 2.802-18.525 5.57-.244.17-.491.308-.551.308-.467 0-4.37 2.914-6.426 4.797-1.335 1.223-2.024 1.943-3.916 4.094-3.469 3.944-6.852 10.585-8.08 15.859a51.395 51.395 0 01-.499 2c-.697 2.318-1.005 9.923-.532 13.167.384 2.639 1.035 5.655 1.529 7.083 2.93 8.475 7.418 15.07 13.399 19.691.56.433 1.243.97 1.518 1.193 1.978 1.604 7.23 4.422 9.833 5.276.642.211 1.317.447 1.5.524 3.603 1.528 11.025 2.412 16.174 1.927 2.813-.265 3.25-.334 6.155-.975 2.862-.631 7.936-2.559 10.026-3.809l.687-.412-1.104-.802a156.925 156.925 0 00-2.6-1.832c-2.986-2.059-7.999-7.486-10.343-11.198-.347-.55-.799-1.203-1.005-1.451-.206-.249-.505-.811-.664-1.25-.293-.803-1.114-2.75-1.814-4.299-.74-1.637-1.689-5.166-2.341-8.711-.655-3.558-.307-11.383.68-15.289.231-.916.495-1.966.586-2.333.627-2.534 3.248-8.093 5.15-10.922C92.792 58.915 95.223 56 95.612 56c.126 0 .297-.176.378-.391.146-.384 3.186-3.309 3.818-3.674.776-.448 3.459-2.406 4.056-2.96l.656-.609-1.135-.604c-2.727-1.451-6.682-2.939-9.311-3.502a33.472 33.472 0 01-1.824-.434c-1.328-.397-7.012-.801-9.917-.704" fill="#ca161f"/><path d="M186.113 37.173c-7.909 2.316-8.609 14.76-1.036 18.42 1.295.626 4.554.799 6.19.329 2.824-.811 4.659-3.072 5.184-6.387l.087-.549-1.467.049-1.467.048-.21.826c-.666 2.615-2.27 3.924-4.808 3.924-1.983 0-4.077-1.16-4.5-2.493-.06-.187-.178-.34-.264-.34-.085 0-.155-.082-.155-.183 0-.101-.108-.42-.239-.708-.963-2.115-.663-7.421.447-7.915.069-.03.125-.159.125-.285 0-.804 1.851-2.129 3.497-2.503 2.485-.565 4.65.496 5.718 2.802l.366.792h1.46c1.621 0 1.579.042 1.196-1.219-1.144-3.763-5.79-5.878-10.124-4.608m46.72 3.494c0 3.589-.006 3.608-.869 2.855-1.555-1.356-4.723-1.794-6.429-.888-4.479 2.378-4.284 10.945.298 13.091 1.817.851 5.013.432 6.225-.816.749-.772.942-.736.942.174v.75h2.5v-18.5h-2.667v3.334m6.368-2.125l.049 1.208h2.667l.049-1.208.049-1.209h-2.863l.049 1.209m-19.02 3.657c-.921.158-1.802.734-2.617 1.708-.742.888-.891.785-.895-.615l-.002-.959h-2.459l-.104.521c-.134.671-.137 12.367-.003 12.716.081.211.378.263 1.5.263H217l.002-4.041c.002-5.665.814-7.125 3.963-7.125h.955l-.018-1.042a22.81 22.81 0 00-.043-1.231c-.035-.26-.793-.348-1.678-.195m-17.293.132c-1.912.404-3.555 2.059-3.555 3.579v.59h2.503l.272-.679c1.015-2.538 6.469-1.965 5.887.619-.265 1.175-.712 1.389-3.578 1.72-4.317.497-5.983 1.845-5.699 4.613.35 3.423 5.126 4.599 8.808 2.168.469-.31.499-.294.894.472.343.666 1.621.937 3.059.65.881-.177.798-1.769-.104-1.992l-.625-.154-.083-4.584c-.092-5.044-.064-4.907-1.22-5.925-1.227-1.082-4.214-1.572-6.559-1.077m46.6.053c-6.149 1.74-6.276 11.51-.175 13.527 4.264 1.41 8.341-1.158 8.902-5.608.698-5.528-3.551-9.383-8.727-7.919m-10.243.151c-.045.119-.063 3.141-.039 6.715l.044 6.5h2.667V42.417l-1.295-.049c-.941-.036-1.316.01-1.377.167m-8.602 2.037c.79.4 1.69 1.359 1.69 1.8 0 .125.094.322.209.436.461.461.271 4.01-.274 5.087-1.487 2.942-5.219 2.983-6.67.073-1.301-2.613.076-7.259 2.278-7.684 1.044-.201 1.999-.102 2.767.288m22.637.003c3.66 1.87 2.87 8.848-1.076 9.504-1.459.242-4.033-1.114-4.038-2.129-.001-.11-.124-.425-.273-.7-.487-.896-.396-3.454.165-4.617 1.019-2.112 3.332-3.023 5.222-2.058m-45.447 6.053c0 2.408-1.081 3.435-3.588 3.409-1.994-.021-2.863-.708-2.702-2.136.164-1.458.847-1.837 4.032-2.235.729-.092 1.4-.241 1.492-.333.554-.554.766-.196.766 1.295m-29.079 18.574l.362 1.215c.136.458.313.983.394 1.166.238.538.648 1.748 1.016 3 .189.642.41 1.317.491 1.5.153.348 1.253 3.582 2.239 6.584.316.962.575 1.876.576 2.031.001.156.06.318.131.363.072.044.315.648.542 1.342l.412 1.263h1.791c1.599.001 1.792-.031 1.792-.292 0-.162.229-.93.509-1.709.752-2.09 1.948-5.572 2.405-6.998.546-1.705 1.832-5.389 1.95-5.588.053-.089.152-.425.219-.746s.178-.658.246-.75c.12-.159.838-2.439.838-2.657 0-.058-.688-.084-1.529-.057l-1.528.048-.287.916-1.069 3.417c-1.179 3.769-1.632 5.149-1.753 5.333-.06.092-.245.654-.412 1.25-.271.971-.865 2.762-1.175 3.542-.215.54-.914-.505-.914-1.366 0-.178-.075-.369-.167-.426-.091-.056-.17-.267-.173-.468-.004-.201-.193-.89-.42-1.532a90.644 90.644 0 01-.757-2.25c-.189-.596-.712-2.23-1.163-3.633-.451-1.402-.82-2.684-.82-2.847 0-.164-.056-.353-.125-.42-.069-.068-.203-.436-.299-.82l-.175-.696-1.63-.048c-1.63-.048-1.631-.048-1.517.333m74.579 9.048v9.417h2.834V68.833h-2.834v9.417m-55.097-4.113c-1.867.553-3.403 2.189-3.403 3.623 0 .494 2.712.259 2.831-.245.419-1.787 5.031-2.089 5.825-.382.794 1.709-.08 2.267-4.636 2.959-3.322.505-4.52 1.545-4.52 3.924 0 3.546 4.453 5.174 8.165 2.985 1.059-.624 1.2-.624 1.477.003.383.865 1.506 1.173 2.951.81l.741-.187v-.897c0-.874-.012-.897-.475-.897-.989 0-1.025-.174-1.025-4.877 0-4.525-.032-4.745-.791-5.56-1.303-1.398-4.667-1.991-7.14-1.259m15.014-.225c-.092.028-.589.177-1.106.33-1.764.521-2.811 1.777-2.811 3.372 0 2.377 1.047 3.158 5.667 4.228 2.249.52 3.168 1.117 3.166 2.055-.004 2.497-5.518 2.625-6.205.145l-.197-.709h-1.382c-1.561 0-1.612.063-1.141 1.384 1.61 4.514 10.911 4.242 11.519-.337.371-2.804-.649-3.764-5.093-4.794-2.747-.637-3.458-1.027-3.613-1.982-.316-1.948 4.235-2.241 5.286-.341.265.48 2.147.803 2.929.503.402-.155-.248-1.594-1.109-2.455-1.153-1.153-4.308-1.9-5.91-1.399m14.083.187c-5.441 1.446-6.223 10.802-1.098 13.137 1.88.856 3.298.99 4.932.464 2.246-.723 3.323-1.851 4.128-4.325l.176-.542h-1.374c-1.336 0-1.38.013-1.586.459-.117.252-.32.683-.452.958-.528 1.102-2.163 1.789-3.613 1.516-3.741-.701-3.93-8.611-.23-9.614 1.861-.504 3.65.179 4.193 1.602l.285.746h1.308c1.364 0 1.617-.159 1.323-.833-.736-1.687-1.37-2.503-2.325-2.992-1.61-.826-3.865-1.055-5.667-.576m35.667.007c-1.844.448-3.065 1.647-3.415 3.352l-.111.542h1.326c1.322 0 1.327-.001 1.538-.51.938-2.265 5.995-1.899 5.995.433 0 1.076-.97 1.632-3.355 1.922-4.515.549-6.145 1.676-6.145 4.248 0 3.492 5.995 5.273 8.804 2.615.313-.296.688-.257.818.084.391 1.022 1.968 1.498 3.332 1.005.818-.295.788-1.845-.037-1.935-.823-.089-.829-.123-.917-5.012l-.083-4.634-.583-.673c-1.286-1.484-4.404-2.109-7.167-1.437m16.667.073c-.803.362-2.167 1.583-2.167 1.939 0 .842-.49.082-.534-.826l-.049-1.042-1.292-.049-1.292-.048v13.514h2.834v-4.003c0-2.201.064-4.132.142-4.291.078-.159.275-.566.437-.904.699-1.455 1.59-1.995 3.296-1.997l1.125-.001v-2.638l-.875.004a4.457 4.457 0 00-1.625.342m-41.468 5.363l.053 5.375.415.672c.876 1.413 1.304 1.766 2.636 2.171 1.883.571 3.842.049 5.086-1.355.59-.667.771-.538.775.553l.003.709H250V81.18c0-7.699.148-7.013-1.518-7.013h-1.315v3.939c0 6.5-.671 7.912-3.659 7.696-2.308-.167-2.508-.689-2.508-6.533 0-5.549.134-5.102-1.528-5.102h-1.326l.053 5.375m-34.729 2.944c-.129 2.682-2.514 4.131-5.075 3.083-1.537-.629-1.703-3.159-.23-3.518.23-.056.456-.156.502-.222.046-.066 1.014-.28 2.152-.475 1.138-.194 2.102-.386 2.142-.426.379-.38.573.213.509 1.558m64.697-.21c0 2.245-1.359 3.557-3.685 3.557-3.815 0-3.728-3.7.101-4.318a51.315 51.315 0 002.167-.402c1.293-.277 1.417-.175 1.417 1.163m-89.054 18.5c-.062.062-.113.625-.113 1.252v1.139h2.8c1.956 0 2.86.06 3 .2.15.15.2 2.155.2 8v7.8h2.997l.043-7.959.043-7.958 2.966-.046 2.965-.045-.048-1.205-.049-1.204-7.346-.043c-4.04-.024-7.396.007-7.458.069m43.22 9.141v9.25h2.834v-4.137c0-3.153.058-4.332.245-4.961.769-2.592 4.361-3.361 5.595-1.198.401.702.408.782.467 5.504l.06 4.792h2.633l-.008-5.209c-.005-3.853-.064-5.367-.225-5.819-.987-2.763-5.403-3.551-7.709-1.377-1.049.99-1.1.838-1.028-3.067.061-3.273.192-3.028-1.627-3.028h-1.237v9.25m46.278-9.139c-.061.061-.111 4.223-.111 9.25v9.139h1.333c1.155 0 1.335-.039 1.343-.292.059-1.76.082-17.53.026-17.82-.074-.387-2.249-.62-2.591-.277m37.722 1.139v1.25H309v-2.5h-2.667v1.25M198.5 105.459c-5.059.59-7.686 6.256-5.134 11.072 2.294 4.327 9.837 4.018 11.365-.467l.249-.731h-1.323c-.74 0-1.324.071-1.324.161 0 .089-.236.43-.524.759-1.734 1.975-5.74 1.342-6.237-.985-.061-.285-.182-.607-.269-.715-.088-.109-.135-.447-.106-.75l.053-.553 4.981-.044 4.982-.044-.084-1.468c-.208-3.642-3.369-6.615-6.629-6.235m59.217.138c-4.363.735-6.639 5.202-5.032 9.874 1.842 5.352 9.975 5.633 12.336.426 2.493-5.498-1.594-11.263-7.304-10.3m21.95.011c-3.584.767-5.334 3.053-5.334 6.968 0 5.649 4.839 8.667 10.052 6.268 4.467-2.054 4.426-10.302-.061-12.529-.777-.385-3.383-1.091-3.547-.96-.015.012-.515.126-1.11.253m15.126-.013c-4.4 1.058-6.233 5.923-4.027 10.686 1.445 3.12 6.15 3.93 8.435 1.451.825-.895.959-.785.963.779.007 3.026-1.222 4.273-4.064 4.124-1.595-.084-2.19-.37-2.734-1.316l-.376-.652h-1.235c-1.424 0-1.466.031-1.169.896.707 2.054 2.55 3.02 5.763 3.02 1.558 0 2.418-.07 2.75-.226 1.385-.646 1.672-.804 2.09-1.154 1.601-1.338 1.811-2.572 1.811-10.633v-6.737h-2.833l-.003.625c-.004 1.028-.251 1.223-.749.596-.561-.708-1.332-1.164-2.337-1.385a59.41 59.41 0 01-1.078-.243c-.138-.034-.68.042-1.207.169m35.957.043c-5.378 1.128-5.365 6.252.019 7.461 3.512.789 3.995.965 4.536 1.653 1.109 1.409-.182 2.627-2.805 2.648-1.684.013-2.642-.48-2.976-1.534l-.226-.712-1.358.048-1.357.048.046.564c.367 4.569 10.036 5.211 11.59.769.984-2.813-.73-4.442-5.795-5.508-2.33-.491-3.14-1.164-2.766-2.298.545-1.653 4.374-1.487 5.261.228.248.48 2.566.787 2.961.393.133-.133-.342-1.346-.764-1.957-.693-1-3.623-2.247-4.926-2.095-.059.007-.707.138-1.44.292m-118.917.087c-1.931.522-3.33 1.782-4.188 3.775-.668 1.552-.591 5.058.145 6.521 2.69 5.354 10.731 4.63 11.797-1.063l.117-.625h-1.349c-1.334 0-1.35.005-1.455.459-.714 3.079-4.778 3.673-6.278.917-.827-1.52-.892-4.332-.141-6.082 1.123-2.618 5.499-2.628 6.362-.014l.183.554h1.32c1.484 0 1.46.028 1.073-1.274-.732-2.465-4.445-4.016-7.586-3.168m31.285.021a5.476 5.476 0 00-2.13 1.48c-.559.648-.821.466-.821-.569v-.824H237.536l-.026 6.084c-.014 3.346.025 6.349.086 6.673l.11.59 1.355-.049 1.356-.048.083-4.679.083-4.68.584-.763c1.236-1.619 3.807-1.809 4.884-.362.48.646.614 2.044.615 6.449l.001 4.132 1.375-.048 1.375-.049.052-4.25c.082-6.584-.251-7.822-2.374-8.833-1.028-.49-3.028-.618-3.977-.254m73.691-.069c-4.828 1.142-6.595 8.22-3.037 12.159.569.629 1.023.897 2.561 1.511 2.583 1.03 6.505-.451 7.648-2.888l.489-1.042-1.266-.05c-1.077-.041-1.29-.004-1.429.25-1.551 2.835-5.904 2.367-6.844-.736-.532-1.756-.907-1.624 4.78-1.675l4.956-.044v-1.15c0-4.23-3.802-7.294-7.858-6.335m-10.476 6.823v6.667H309v-13.334h-2.667v6.667m-105.871-4.437c1.081.69 1.764 1.619 1.944 2.645l.109.625h-3.674c-4.064 0-3.989.024-3.423-1.06.137-.263.249-.571.249-.685 0-.295 1.001-1.32 1.589-1.627.81-.425 2.463-.372 3.206.102m60.156-.068c3.051 1.475 3.127 7.346.116 9.037-3.322 1.865-6.747-1.985-5.589-6.284.67-2.488 3.291-3.807 5.473-2.753m22.014-.01c3.67 1.887 2.92 8.845-1.017 9.436-4.737.71-6.568-7.182-2.198-9.478.721-.379 2.439-.357 3.215.042m15.435.059c3.355 1.919 2.485 8.464-1.203 9.054-3.02.483-5.008-2.937-3.934-6.766.64-2.278 3.178-3.408 5.137-2.288m21.733-.142c1.021.535 2.033 1.991 2.033 2.923v.508h-3.583c-4.06 0-3.84.094-3.276-1.391.706-1.86 3.176-2.904 4.826-2.04" fill="#010101"/><path d="M0 82v82h400V0H0v82m191.25-45.08c2.764.71 4.738 2.585 5.312 5.042.305 1.311.18 1.405-1.771 1.336l-1.373-.048-.525-1.054c-2.255-4.529-8.285-3.288-9.578 1.971-.296 1.205-.262 3.834.066 5.054 1.521 5.664 8.272 6.029 9.793.529l.276-1 1.552-.048c1.879-.059 1.911-.033 1.656 1.319-1.689 8.944-14.395 8.613-16.765-.438-.679-2.591-.318-5.984.881-8.271.53-1.011 2.56-3.312 2.921-3.312.08 0 .425-.182.767-.404 1.512-.984 4.45-1.276 6.788-.676m44.543 9.569c.034 7.415-.001 9.434-.167 9.539-.858.545-2.959.037-2.959-.715v-.509l-.541.454c-1.861 1.567-5.094 1.617-7.28.114-3.354-2.306-3.809-8.859-.825-11.873 1.983-2.003 6.228-2.175 7.907-.32.524.579.572.354.572-2.665 0-3.813-.137-3.537 1.728-3.478l1.522.047.043 9.406m6.339-8.003c.059 1.678.062 1.675-1.664 1.678-1.507.003-1.453.059-1.484-1.541-.033-1.666-.055-1.644 1.655-1.588l1.444.048.049 1.403m-33.821 3.937c2.332 1.066 2.514 1.555 2.519 6.753.004 4.483.051 4.718.942 4.733.656.011.844 1.928.221 2.261-1.121.6-3.02.326-3.75-.542l-.435-.517-1.029.516c-4.06 2.033-8.288.353-8.275-3.287.008-2.549 1.424-3.821 4.746-4.261 4.147-.55 4.753-.855 4.474-2.25-.359-1.796-4.75-1.792-5.328.004l-.188.584-1.396.097c-1.952.136-2.04.063-1.642-1.368.753-2.711 5.849-4.229 9.141-2.723m13.425-.489c.213.082.264.386.264 1.584V45h-1.09c-3.034 0-3.743 1.345-3.743 7.101v3.893l-.377.094c-.208.052-.939.072-1.625.045l-1.248-.05V42.25h3l.083.888.083.888.5-.528c1.258-1.329 3.029-1.995 4.153-1.564m31.293.056c6.332 1.037 7.718 10.847 1.941 13.732-4.941 2.467-10.079-.638-10.269-6.204-.18-5.293 3.218-8.365 8.328-7.528m-10.946 7.177v6.916l-1.163.05c-.64.028-1.333.008-1.542-.044l-.378-.095v-13.84l1.542.048 1.541.048v6.917M89.5 43.433c1.237.134 2.475.311 2.75.393.275.083 1.096.278 1.824.434 2.708.58 6.825 2.143 9.459 3.591l1.203.662 2.174-1.085c21.26-10.608 46.852-1.063 56.052 20.905.573 1.37.866 2.215 1.702 4.917 3.107 10.034.952 23.627-5.219 32.924-1.881 2.832-1.988 2.97-4.321 5.533-11.97 13.146-31.672 16.802-47.867 8.881l-2.492-1.219-1.341.717c-3.441 1.842-6.931 3.034-11.917 4.069-5.661 1.175-15.375.458-19.924-1.471a32.123 32.123 0 00-1.5-.524c-2.603-.854-7.855-3.672-9.833-5.276-.275-.223-.958-.76-1.518-1.193C52.751 111.07 48.263 104.475 45.333 96c-.494-1.428-1.145-4.444-1.529-7.083-.473-3.244-.165-10.849.532-13.167.082-.275.307-1.175.499-2 1.228-5.274 4.611-11.915 8.08-15.859 1.892-2.151 2.581-2.871 3.916-4.094C58.887 51.914 62.79 49 63.257 49c.06 0 .307-.138.551-.308 5.991-4.168 16.298-6.278 25.692-5.259m138.083 1.3c-2.682 1.183-3.083 6.882-.599 8.526 2.741 1.814 5.599-.317 5.599-4.176 0-3.495-2.333-5.525-5-4.35m22.481.086c-2.033.923-2.884 4.513-1.645 6.936 1.838 3.596 6.417 2.341 6.854-1.877.394-3.81-2.268-6.395-5.209-5.059m-43.314 4.837c-.183.075-.821.189-1.417.254-2.599.286-3.583.885-3.583 2.182 0 1.329 1.525 2.032 3.506 1.617 1.684-.354 2.272-1.071 2.378-2.904.081-1.407.003-1.508-.884-1.149m-24.372 20.219c.232.665.471 1.396.532 1.625.061.229.436 1.429.833 2.667 1.539 4.791 2.579 8.102 2.686 8.549.159.666.421.48.666-.474.117-.454.734-2.4 1.371-4.325a314.18 314.18 0 001.694-5.25c.293-.963.594-1.9.669-2.084.075-.183.262-.689.417-1.125l.282-.791h1.643c.903 0 1.683.065 1.732.144.049.08-.437 1.674-1.079 3.542a612.628 612.628 0 00-1.831 5.397c-.365 1.1-.733 2.15-.82 2.333-.086.184-.309.821-.495 1.417-.185.596-.734 2.246-1.22 3.667l-.882 2.583-1.847.047c-2.234.057-1.919.404-3.216-3.547a276.568 276.568 0 00-1.426-4.25c-.213-.596-.888-2.621-1.5-4.5a269.89 269.89 0 00-1.211-3.667c-.399-1.016-.986-2.939-.927-3.041.039-.069.844-.125 1.789-.125h1.719l.421 1.208m73.872 8.375v9.5h-3l-.043-9.333c-.024-5.134-.007-9.43.039-9.549.06-.158.468-.202 1.543-.166l1.461.048v9.5m-52.852-4.32c.779.222 1.778.848 2.23 1.397.761.922.785 1.08.872 5.673l.083 4.417.5.056c.998.113 1.404 1.906.542 2.395-1.051.597-3.697.112-3.914-.718-.107-.407-.187-.4-1.069.093-4.379 2.448-9.556-.149-8.478-4.252.558-2.124 2.116-2.974 6.253-3.411 2.213-.234 2.916-.669 2.916-1.804 0-2.075-4.728-2.157-5.421-.095l-.191.569-1.527.048-1.527.048v-.68c0-3.018 4.5-4.944 8.731-3.736m14.019-.013c1.538.471 2.876 1.939 3.151 3.458l.114.625h-3.344l-.239-.57c-.689-1.651-4.54-1.674-4.736-.028-.1.839.738 1.372 2.887 1.84 4.861 1.057 6.178 2.193 5.824 5.024-.518 4.15-8.735 5.42-11.423 1.765-.496-.675-1.071-2.422-.893-2.711.212-.342 3.242-.183 3.242.17 0 2.113 4.904 2.9 5.8.932.509-1.115-.811-2.091-3.383-2.501-3.653-.582-5.308-1.932-5.317-4.338-.012-3.09 4.173-4.935 8.317-3.666m14.5.014c1.806.511 3.481 2.395 3.619 4.071l.047.581-1.521.048-1.521.048-.258-.645c-.723-1.806-3.059-2.423-4.822-1.272-2.392 1.561-2.124 7.181.406 8.503 1.412.738 4.3-.39 4.3-1.68 0-.898.318-1.085 1.842-1.085 1.741 0 1.774.041 1.248 1.547-1.85 5.293-9.523 5.624-11.95.516-2.999-6.309 2.013-12.497 8.61-10.632m35.078-.254c1.8.292 3.109 1.119 3.811 2.406.228.418.281 1.197.324 4.75.058 4.89.017 4.628.735 4.697l.552.053.05 1.068c.057 1.217.01 1.275-1.164 1.437-1.247.171-2.072-.039-2.703-.688l-.551-.568-.973.491c-4.677 2.359-9.58-.494-8.136-4.733.585-1.715 1.86-2.427 5.129-2.862 3.47-.462 3.931-.68 3.931-1.858 0-2.154-4.708-2.331-5.418-.203l-.194.583-1.471.049c-1.795.059-1.862.004-1.502-1.234.58-1.995 2.083-3.088 4.668-3.395 1.525-.182 1.75-.181 2.912.007m14.969-.07c.367.098.379.161.334 1.622l-.048 1.521-.869-.057c-3.423-.222-4.12 1.586-4.052 10.515l.004.625h-1.583c-.871 0-1.587-.018-1.592-.041-.093-.474-.166-11.34-.082-12.346.137-1.641.104-1.615 1.904-1.486l1.187.085v.811c0 .997.047.999 1.02.04 1.076-1.059 2.642-1.594 3.777-1.289M241 74.119c.046.041.121 2.266.167 4.944.104 6.091.236 6.426 2.545 6.433 2.701.009 3.012-.654 3.121-6.663.098-5.36-.023-5 1.671-5 1.792 0 1.674-.528 1.623 7.285l-.044 6.632-1.541.048-1.542.048v-.756c0-.88-.095-.922-.684-.298-2.035 2.155-6.522 1.659-7.755-.856-.736-1.504-1.113-11.193-.46-11.846.249-.25 2.613-.226 2.899.029m-38.583 7.217c-.275.074-1.1.221-1.834.326-2.435.348-3.255.89-3.244 2.142.017 2.044 4.142 2.404 5.453.477.372-.548.582-3.143.25-3.097-.069.009-.35.078-.625.152m65.066-.097c-.04.04-.821.191-1.736.335-2.47.389-2.557.416-3.176.959-.618.543-.791 1.582-.357 2.15 1.059 1.388 4.564.977 5.428-.637.362-.677.22-3.186-.159-2.807m-73.423 19.266c.229.228.279 2.617.058 2.799-.142.118-1.269.205-3.047.234l-2.821.045-.083 7.917-.084 7.917h-3.333l-.043-7.959-.044-7.958h-2.897c-3.334 0-3.099.133-3.099-1.752 0-1.143.025-1.228.375-1.278.644-.092 14.925-.058 15.018.035m31.065-.022l.375.017v6.495l.851-.644c2.619-1.983 6.435-1.256 7.709 1.469.342.731.357.992.357 6.18v5.417h-3.167l-.083-5.084c-.102-6.224-.311-6.703-2.801-6.446-2.458.253-2.866 1.26-2.866 7.071v4.554l-1.625-.048-1.625-.047-.043-9.406c-.025-5.553.019-9.445.109-9.5.13-.08 1.415-.093 2.809-.028m46.168-.011c.165.105.201 2.124.167 9.539l-.043 9.406h-3l-.043-9.451-.043-9.451 1.126-.058a39.89 39.89 0 001.376-.088.807.807 0 01.46.103m37.832.08c.237.153.291 2.393.067 2.747-.099.155-.546.201-1.623.166l-1.486-.048-.049-1.33c-.04-1.065.004-1.369.217-1.525.296-.217 2.542-.225 2.874-.01m-108.763 4.884c3.158.805 5.295 3.774 5.105 7.093l-.05.888-4.959.044-4.958.044v.589c0 3.173 4.683 4.32 6.418 1.571l.42-.665h2.872l-.097.598c-.806 4.967-9.571 5.747-11.998 1.068-3.024-5.828 1.42-12.715 7.247-11.23m14.888-.025c2.659.556 4.506 2.301 4.629 4.372l.038.634-1.533.047-1.534.048-.189-.631c-.801-2.669-4.735-2.747-5.939-.117-1.641 3.584-.18 7.319 2.863 7.319h1.399l.681-.665c.43-.419.763-.943.901-1.417l.219-.751h3.132l-.047.583c-.45 5.601-9.818 6.898-12.124 1.678a15.536 15.536 0 00-.423-.888c-.373-.679-.554-2.765-.363-4.19.597-4.459 3.988-6.922 8.29-6.022m30.784-.005c3.217.769 3.63 1.798 3.632 9.039.001 5.528.157 5.055-1.666 5.055-1.822 0-1.666.462-1.668-4.972-.001-4.717-.086-5.403-.756-6.073-1.18-1.18-3.879-.478-4.634 1.205-.12.267-.221 2.142-.274 5.09l-.085 4.667h-3.166V105.75h3l.051.708c.061.845.082.851.729.204 1.236-1.236 3.003-1.695 4.837-1.256m14.581.024c8.082 1.871 6.697 14.414-1.591 14.401-4.298-.006-6.822-2.49-6.99-6.878-.206-5.364 3.579-8.681 8.581-7.523m21.876-.015c7.978 1.678 7.154 13.903-.97 14.38-4.789.282-7.739-2.763-7.471-7.711.262-4.821 3.828-7.64 8.441-6.669m14.592-.022c1.066.284 1.731.632 2.233 1.169.489.524.684.431.684-.328v-.58l1.542.048 1.541.048-.002 7.333c-.003 8.483-.018 8.579-1.582 10.105-2.978 2.909-9.844 2.039-11.156-1.413-.448-1.179-.345-1.275 1.376-1.275h1.553l.278.584c1.021 2.141 5.407 1.697 6.11-.618.188-.619.413-2.966.284-2.966-.025 0-.341.273-.703.608-3.102 2.865-8.143 1.174-9.265-3.108-1.489-5.684 2.351-10.875 7.107-9.607m22.779.043c3.113.793 5.317 3.877 5.108 7.147l-.053.834-4.959.044-4.958.044.004.539c.012 1.771 1.465 3.121 3.36 3.122 1.692.001 2.585-.47 3.076-1.624l.231-.542h3.037l-.108.539c-.991 4.957-9.215 5.889-11.877 1.347-3.314-5.655 1.238-12.955 7.139-11.45m14.163-.014c2.109.444 3.624 1.677 3.955 3.222.217 1.011.163 1.045-1.577.988-1.426-.047-1.491-.066-1.698-.499-.482-1.007-1.621-1.434-3.235-1.212-2.478.341-2.066 2.177.63 2.808 1.274.298 2.599.645 3.666.961 2.162.639 3.317 2.655 2.742 4.782-1.081 4.002-9.643 4.596-11.604.806-.457-.883-.725-2.057-.518-2.264.306-.306 3.114-.236 3.114.078 0 2.196 4.752 3.013 5.828 1.001.536-1.002-.566-1.906-2.861-2.345-3.948-.757-5.452-1.712-5.823-3.698-.609-3.26 3.032-5.543 7.381-4.628m-24.729 6.828c.058 8.053.239 7.274-1.676 7.215l-1.537-.048-.043-6.667c-.052-7.938-.249-7.107 1.666-7.048l1.544.048.046 6.5m-111.419-4.254c-1.116.265-2.377 1.734-2.377 2.77v.401h6.693l-.116-.542c-.44-2.043-2.153-3.115-4.2-2.629m60.065-.051c-1.808.306-3.149 3.371-2.61 5.966.906 4.365 6.278 4.455 7.179.12.792-3.812-1.327-6.635-4.569-6.086m21.829.124c-3.552 1.318-3.279 8.301.355 9.071 3.216.682 5.433-2.741 4.284-6.612-.608-2.047-2.726-3.169-4.639-2.459m15.476-.059c-2.76.803-3.214 6.689-.642 8.32 2.95 1.871 6.05-1.317 5.132-5.275-.602-2.597-2.232-3.702-4.49-3.045m22.034-.007c-.77.231-1.547.931-1.925 1.737-.699 1.485-.822 1.427 2.991 1.427h3.346l-.11-.502c-.45-2.047-2.378-3.24-4.302-2.662" fill="#fff"/></g></svg>